<?xml version="1.0" encoding="utf-8" standalone="no"?>
<!DOCTYPE svg PUBLIC "-//W3C//DTD SVG 1.1//EN"
  "http://www.w3.org/Graphics/SVG/1.1/DTD/svg11.dtd">
<svg xmlns:xlink="http://www.w3.org/1999/xlink" width="2573.275pt" height="892.040625pt" viewBox="0 0 2573.275 892.040625" xmlns="http://www.w3.org/2000/svg" version="1.1">
 <metadata>
  <rdf:RDF xmlns:dc="http://purl.org/dc/elements/1.1/" xmlns:cc="http://creativecommons.org/ns#" xmlns:rdf="http://www.w3.org/1999/02/22-rdf-syntax-ns#">
   <cc:Work>
    <dc:type rdf:resource="http://purl.org/dc/dcmitype/StillImage"/>
    <dc:date>2025-01-15T00:40:27.792806</dc:date>
    <dc:format>image/svg+xml</dc:format>
    <dc:creator>
     <cc:Agent>
      <dc:title>Matplotlib v3.7.5, https://matplotlib.org/</dc:title>
     </cc:Agent>
    </dc:creator>
   </cc:Work>
  </rdf:RDF>
 </metadata>
 <defs>
  <style type="text/css">*{stroke-linejoin: round; stroke-linecap: butt}</style>
 </defs>
 <g id="figure_1">
  <g id="patch_1">
   <path d="M 0 892.040625 
L 2573.275 892.040625 
L 2573.275 0 
L 0 0 
z
" style="fill: #ffffff"/>
  </g>
  <g id="axes_1">
   <g id="patch_2">
    <path d="M 55.075 838.8 
L 2566.075 838.8 
L 2566.075 7.2 
L 55.075 7.2 
z
" style="fill: #ffffff"/>
   </g>
   <g id="patch_3">
    <path d="M 55.075 748.862069 
L 337.727248 748.862069 
L 337.727248 722.793103 
L 55.075 722.793103 
z
" clip-path="url(#pe1b0cd909b)" style="fill: #52ecaf"/>
   </g>
   <g id="patch_4">
    <path d="M 55.075 696.724138 
L 293.265097 696.724138 
L 293.265097 670.655172 
L 55.075 670.655172 
z
" clip-path="url(#pe1b0cd909b)" style="fill: #c8d456"/>
   </g>
   <g id="patch_5">
    <path d="M 55.075 801 
L 274.209889 801 
L 274.209889 774.931034 
L 55.075 774.931034 
z
" clip-path="url(#pe1b0cd909b)" style="fill: #68a257"/>
   </g>
   <g id="patch_6">
    <path d="M 337.727248 748.862069 
L 561.625939 748.862069 
L 561.625939 722.793103 
L 337.727248 722.793103 
z
" clip-path="url(#pe1b0cd909b)" style="fill: #b5ce17"/>
   </g>
   <g id="patch_7">
    <path d="M 561.625939 331.758621 
L 629.9071 331.758621 
L 629.9071 305.689655 
L 561.625939 305.689655 
z
" clip-path="url(#pe1b0cd909b)" style="fill: #b5ce17"/>
   </g>
   <g id="patch_8">
    <path d="M 561.625939 592.448276 
L 621.96743 592.448276 
L 621.96743 566.37931 
L 561.625939 566.37931 
z
" clip-path="url(#pe1b0cd909b)" style="fill: #b5ce17"/>
   </g>
   <g id="patch_9">
    <path d="M 274.209889 436.034483 
L 345.666918 436.034483 
L 345.666918 409.965517 
L 274.209889 409.965517 
z
" clip-path="url(#pe1b0cd909b)" style="fill: #68a257"/>
   </g>
   <g id="patch_10">
    <path d="M 337.727248 279.62069 
L 407.596343 279.62069 
L 407.596343 253.551724 
L 337.727248 253.551724 
z
" clip-path="url(#pe1b0cd909b)" style="fill: #52ecaf"/>
   </g>
   <g id="patch_11">
    <path d="M 345.666918 331.758621 
L 409.184277 331.758621 
L 409.184277 305.689655 
L 345.666918 305.689655 
z
" clip-path="url(#pe1b0cd909b)" style="fill: #68a257"/>
   </g>
   <g id="patch_12">
    <path d="M 409.184277 540.310345 
L 458.410231 540.310345 
L 458.410231 514.241379 
L 409.184277 514.241379 
z
" clip-path="url(#pe1b0cd909b)" style="fill: #68a257"/>
   </g>
   <g id="patch_13">
    <path d="M 458.410231 540.310345 
L 564.801807 540.310345 
L 564.801807 514.241379 
L 458.410231 514.241379 
z
" clip-path="url(#pe1b0cd909b)" style="fill: #68a257"/>
   </g>
   <g id="patch_14">
    <path d="M 564.801807 540.310345 
L 626.731232 540.310345 
L 626.731232 514.241379 
L 564.801807 514.241379 
z
" clip-path="url(#pe1b0cd909b)" style="fill: #b5ce17"/>
   </g>
   <g id="patch_15">
    <path d="M 409.184277 331.758621 
L 459.998164 331.758621 
L 459.998164 305.689655 
L 409.184277 305.689655 
z
" clip-path="url(#pe1b0cd909b)" style="fill: #52ecaf"/>
   </g>
   <g id="patch_16">
    <path d="M 293.265097 696.724138 
L 574.329411 696.724138 
L 574.329411 670.655172 
L 293.265097 670.655172 
z
" clip-path="url(#pe1b0cd909b)" style="fill: #651a79"/>
   </g>
   <g id="patch_17">
    <path d="M 293.265097 488.172414 
L 363.134192 488.172414 
L 363.134192 462.103448 
L 293.265097 462.103448 
z
" clip-path="url(#pe1b0cd909b)" style="fill: #c8d456"/>
   </g>
   <g id="patch_18">
    <path d="M 459.998164 227.482759 
L 555.274203 227.482759 
L 555.274203 201.413793 
L 459.998164 201.413793 
z
" clip-path="url(#pe1b0cd909b)" style="fill: #52ecaf"/>
   </g>
   <g id="patch_19">
    <path d="M 363.134192 488.172414 
L 463.174032 488.172414 
L 463.174032 462.103448 
L 363.134192 462.103448 
z
" clip-path="url(#pe1b0cd909b)" style="fill: #68a257"/>
   </g>
   <g id="patch_20">
    <path d="M 363.134192 383.896552 
L 410.772211 383.896552 
L 410.772211 357.827586 
L 363.134192 357.827586 
z
" clip-path="url(#pe1b0cd909b)" style="fill: #c8d456"/>
   </g>
   <g id="patch_21">
    <path d="M 629.9071 331.758621 
L 679.133054 331.758621 
L 679.133054 305.689655 
L 629.9071 305.689655 
z
" clip-path="url(#pe1b0cd909b)" style="fill: #651a79"/>
   </g>
   <g id="patch_22">
    <path d="M 407.596343 227.482759 
L 456.822297 227.482759 
L 456.822297 201.413793 
L 407.596343 201.413793 
z
" clip-path="url(#pe1b0cd909b)" style="fill: #52ecaf"/>
   </g>
   <g id="patch_23">
    <path d="M 679.133054 279.62069 
L 753.76595 279.62069 
L 753.76595 253.551724 
L 679.133054 253.551724 
z
" clip-path="url(#pe1b0cd909b)" style="fill: #651a79"/>
   </g>
   <g id="patch_24">
    <path d="M 629.9071 592.448276 
L 733.122809 592.448276 
L 733.122809 566.37931 
L 629.9071 566.37931 
z
" clip-path="url(#pe1b0cd909b)" style="fill: #b5ce17"/>
   </g>
   <g id="patch_25">
    <path d="M 410.772211 383.896552 
L 472.701636 383.896552 
L 472.701636 357.827586 
L 410.772211 357.827586 
z
" clip-path="url(#pe1b0cd909b)" style="fill: #52ecaf"/>
   </g>
   <g id="patch_26">
    <path d="M 733.122809 592.448276 
L 831.574715 592.448276 
L 831.574715 566.37931 
L 733.122809 566.37931 
z
" clip-path="url(#pe1b0cd909b)" style="fill: #b5ce17"/>
   </g>
   <g id="patch_27">
    <path d="M 293.265097 540.310345 
L 344.078984 540.310345 
L 344.078984 514.241379 
L 293.265097 514.241379 
z
" clip-path="url(#pe1b0cd909b)" style="fill: #c8d456"/>
   </g>
   <g id="patch_28">
    <path d="M 753.76595 279.62069 
L 855.393725 279.62069 
L 855.393725 253.551724 
L 753.76595 253.551724 
z
" clip-path="url(#pe1b0cd909b)" style="fill: #651a79"/>
   </g>
   <g id="patch_29">
    <path d="M 626.731232 540.310345 
L 722.007271 540.310345 
L 722.007271 514.241379 
L 626.731232 514.241379 
z
" clip-path="url(#pe1b0cd909b)" style="fill: #68a257"/>
   </g>
   <g id="patch_30">
    <path d="M 831.574715 592.448276 
L 903.031744 592.448276 
L 903.031744 566.37931 
L 831.574715 566.37931 
z
" clip-path="url(#pe1b0cd909b)" style="fill: #b5ce17"/>
   </g>
   <g id="patch_31">
    <path d="M 855.393725 279.62069 
L 964.96117 279.62069 
L 964.96117 253.551724 
L 855.393725 253.551724 
z
" clip-path="url(#pe1b0cd909b)" style="fill: #b5ce17"/>
   </g>
   <g id="patch_32">
    <path d="M 293.265097 383.896552 
L 363.134192 383.896552 
L 363.134192 357.827586 
L 293.265097 357.827586 
z
" clip-path="url(#pe1b0cd909b)" style="fill: #c8d456"/>
   </g>
   <g id="patch_33">
    <path d="M 964.96117 488.172414 
L 1045.945803 488.172414 
L 1045.945803 462.103448 
L 964.96117 462.103448 
z
" clip-path="url(#pe1b0cd909b)" style="fill: #b5ce17"/>
   </g>
   <g id="patch_34">
    <path d="M 407.596343 279.62069 
L 507.636184 279.62069 
L 507.636184 253.551724 
L 407.596343 253.551724 
z
" clip-path="url(#pe1b0cd909b)" style="fill: #68a257"/>
   </g>
   <g id="patch_35">
    <path d="M 855.393725 383.896552 
L 955.433566 383.896552 
L 955.433566 357.827586 
L 855.393725 357.827586 
z
" clip-path="url(#pe1b0cd909b)" style="fill: #651a79"/>
   </g>
   <g id="patch_36">
    <path d="M 574.329411 696.724138 
L 809.34364 696.724138 
L 809.34364 670.655172 
L 574.329411 670.655172 
z
" clip-path="url(#pe1b0cd909b)" style="fill: #7ab1fd"/>
   </g>
   <g id="patch_37">
    <path d="M 555.274203 227.482759 
L 621.96743 227.482759 
L 621.96743 201.413793 
L 555.274203 201.413793 
z
" clip-path="url(#pe1b0cd909b)" style="fill: #c8d456"/>
   </g>
   <g id="patch_38">
    <path d="M 903.031744 592.448276 
L 1009.423321 592.448276 
L 1009.423321 566.37931 
L 903.031744 566.37931 
z
" clip-path="url(#pe1b0cd909b)" style="fill: #52ecaf"/>
   </g>
   <g id="patch_39">
    <path d="M 507.636184 488.172414 
L 585.444949 488.172414 
L 585.444949 462.103448 
L 507.636184 462.103448 
z
" clip-path="url(#pe1b0cd909b)" style="fill: #68a257"/>
   </g>
   <g id="patch_40">
    <path d="M 809.34364 488.172414 
L 866.509263 488.172414 
L 866.509263 462.103448 
L 809.34364 462.103448 
z
" clip-path="url(#pe1b0cd909b)" style="fill: #7ab1fd"/>
   </g>
   <g id="patch_41">
    <path d="M 621.96743 227.482759 
L 731.534875 227.482759 
L 731.534875 201.413793 
L 621.96743 201.413793 
z
" clip-path="url(#pe1b0cd909b)" style="fill: #c8d456"/>
   </g>
   <g id="patch_42">
    <path d="M 809.34364 227.482759 
L 868.097197 227.482759 
L 868.097197 201.413793 
L 809.34364 201.413793 
z
" clip-path="url(#pe1b0cd909b)" style="fill: #7ab1fd"/>
   </g>
   <g id="patch_43">
    <path d="M 574.329411 436.034483 
L 633.082968 436.034483 
L 633.082968 409.965517 
L 574.329411 409.965517 
z
" clip-path="url(#pe1b0cd909b)" style="fill: #651a79"/>
   </g>
   <g id="patch_44">
    <path d="M 722.007271 540.310345 
L 798.228102 540.310345 
L 798.228102 514.241379 
L 722.007271 514.241379 
z
" clip-path="url(#pe1b0cd909b)" style="fill: #c8d456"/>
   </g>
   <g id="patch_45">
    <path d="M 1009.423321 592.448276 
L 1115.814898 592.448276 
L 1115.814898 566.37931 
L 1009.423321 566.37931 
z
" clip-path="url(#pe1b0cd909b)" style="fill: #b5ce17"/>
   </g>
   <g id="patch_46">
    <path d="M 1115.814898 592.448276 
L 1171.392587 592.448276 
L 1171.392587 566.37931 
L 1115.814898 566.37931 
z
" clip-path="url(#pe1b0cd909b)" style="fill: #b5ce17"/>
   </g>
   <g id="patch_47">
    <path d="M 964.96117 279.62069 
L 1058.649274 279.62069 
L 1058.649274 253.551724 
L 964.96117 253.551724 
z
" clip-path="url(#pe1b0cd909b)" style="fill: #651a79"/>
   </g>
   <g id="patch_48">
    <path d="M 722.007271 71.068966 
L 1068.176878 71.068966 
L 1068.176878 45 
L 722.007271 45 
z
" clip-path="url(#pe1b0cd909b)" style="fill: #68a257"/>
   </g>
   <g id="patch_49">
    <path d="M 1058.649274 279.62069 
L 1142.809775 279.62069 
L 1142.809775 253.551724 
L 1058.649274 253.551724 
z
" clip-path="url(#pe1b0cd909b)" style="fill: #52ecaf"/>
   </g>
   <g id="patch_50">
    <path d="M 1171.392587 592.448276 
L 1220.61854 592.448276 
L 1220.61854 566.37931 
L 1171.392587 566.37931 
z
" clip-path="url(#pe1b0cd909b)" style="fill: #7ab1fd"/>
   </g>
   <g id="patch_51">
    <path d="M 809.34364 331.758621 
L 871.273065 331.758621 
L 871.273065 305.689655 
L 809.34364 305.689655 
z
" clip-path="url(#pe1b0cd909b)" style="fill: #7ab1fd"/>
   </g>
   <g id="patch_52">
    <path d="M 679.133054 331.758621 
L 745.826281 331.758621 
L 745.826281 305.689655 
L 679.133054 305.689655 
z
" clip-path="url(#pe1b0cd909b)" style="fill: #c8d456"/>
   </g>
   <g id="patch_53">
    <path d="M 1171.392587 123.206897 
L 1514.386326 123.206897 
L 1514.386326 97.137931 
L 1171.392587 97.137931 
z
" clip-path="url(#pe1b0cd909b)" style="fill: #b5ce17"/>
   </g>
   <g id="patch_54">
    <path d="M 1045.945803 488.172414 
L 1152.337379 488.172414 
L 1152.337379 462.103448 
L 1045.945803 462.103448 
z
" clip-path="url(#pe1b0cd909b)" style="fill: #7ab1fd"/>
   </g>
   <g id="patch_55">
    <path d="M 1152.337379 540.310345 
L 1211.090936 540.310345 
L 1211.090936 514.241379 
L 1152.337379 514.241379 
z
" clip-path="url(#pe1b0cd909b)" style="fill: #7ab1fd"/>
   </g>
   <g id="patch_56">
    <path d="M 1211.090936 279.62069 
L 1271.432427 279.62069 
L 1271.432427 253.551724 
L 1211.090936 253.551724 
z
" clip-path="url(#pe1b0cd909b)" style="fill: #7ab1fd"/>
   </g>
   <g id="patch_57">
    <path d="M 1514.386326 123.206897 
L 1857.380065 123.206897 
L 1857.380065 97.137931 
L 1514.386326 97.137931 
z
" clip-path="url(#pe1b0cd909b)" style="fill: #52ecaf"/>
   </g>
   <g id="patch_58">
    <path d="M 1220.61854 227.482759 
L 1292.075569 227.482759 
L 1292.075569 201.413793 
L 1220.61854 201.413793 
z
" clip-path="url(#pe1b0cd909b)" style="fill: #7ab1fd"/>
   </g>
   <g id="patch_59">
    <path d="M 1152.337379 488.172414 
L 1258.728956 488.172414 
L 1258.728956 462.103448 
L 1152.337379 462.103448 
z
" clip-path="url(#pe1b0cd909b)" style="fill: #c8d456"/>
   </g>
   <g id="patch_60">
    <path d="M 1258.728956 540.310345 
L 1336.537721 540.310345 
L 1336.537721 514.241379 
L 1258.728956 514.241379 
z
" clip-path="url(#pe1b0cd909b)" style="fill: #c8d456"/>
   </g>
   <g id="patch_61">
    <path d="M 1292.075569 331.758621 
L 1393.703344 331.758621 
L 1393.703344 305.689655 
L 1292.075569 305.689655 
z
" clip-path="url(#pe1b0cd909b)" style="fill: #7ab1fd"/>
   </g>
   <g id="patch_62">
    <path d="M 798.228102 540.310345 
L 847.454055 540.310345 
L 847.454055 514.241379 
L 798.228102 514.241379 
z
" clip-path="url(#pe1b0cd909b)" style="fill: #c8d456"/>
   </g>
   <g id="patch_63">
    <path d="M 955.433566 383.896552 
L 1020.538859 383.896552 
L 1020.538859 357.827586 
L 955.433566 357.827586 
z
" clip-path="url(#pe1b0cd909b)" style="fill: #7ab1fd"/>
   </g>
   <g id="patch_64">
    <path d="M 633.082968 436.034483 
L 687.072723 436.034483 
L 687.072723 409.965517 
L 633.082968 409.965517 
z
" clip-path="url(#pe1b0cd909b)" style="fill: #651a79"/>
   </g>
   <g id="patch_65">
    <path d="M 1336.537721 71.068966 
L 1662.064186 71.068966 
L 1662.064186 45 
L 1336.537721 45 
z
" clip-path="url(#pe1b0cd909b)" style="fill: #c8d456"/>
   </g>
   <g id="patch_66">
    <path d="M 1142.809775 279.62069 
L 1204.7392 279.62069 
L 1204.7392 253.551724 
L 1142.809775 253.551724 
z
" clip-path="url(#pe1b0cd909b)" style="fill: #651a79"/>
   </g>
   <g id="patch_67">
    <path d="M 1020.538859 331.758621 
L 1103.111426 331.758621 
L 1103.111426 305.689655 
L 1020.538859 305.689655 
z
" clip-path="url(#pe1b0cd909b)" style="fill: #7ab1fd"/>
   </g>
   <g id="patch_68">
    <path d="M 1292.075569 227.482759 
L 1342.889456 227.482759 
L 1342.889456 201.413793 
L 1292.075569 201.413793 
z
" clip-path="url(#pe1b0cd909b)" style="fill: #651a79"/>
   </g>
   <g id="patch_69">
    <path d="M 1857.380065 123.206897 
L 2182.906531 123.206897 
L 2182.906531 97.137931 
L 1857.380065 97.137931 
z
" clip-path="url(#pe1b0cd909b)" style="fill: #7ab1fd"/>
   </g>
   <g id="patch_70">
    <path d="M 1342.889456 436.034483 
L 1392.11541 436.034483 
L 1392.11541 409.965517 
L 1342.889456 409.965517 
z
" clip-path="url(#pe1b0cd909b)" style="fill: #651a79"/>
   </g>
   <g id="patch_71">
    <path d="M 2182.906531 123.206897 
L 2446.503571 123.206897 
L 2446.503571 97.137931 
L 2182.906531 97.137931 
z
" clip-path="url(#pe1b0cd909b)" style="fill: #651a79"/>
   </g>
   <g id="matplotlib.axis_1">
    <g id="xtick_1">
     <g id="line2d_1">
      <defs>
       <path id="m61f6220af2" d="M 0 0 
L 0 3.5 
" style="stroke: #000000; stroke-width: 0.8"/>
      </defs>
      <g>
       <use xlink:href="#m61f6220af2" x="55.075" y="838.8" style="stroke: #000000; stroke-width: 0.8"/>
      </g>
     </g>
     <g id="text_1">
      <!-- 0 -->
      <g transform="translate(50.075 859.6875) scale(0.2 -0.2)">
       <defs>
        <path id="TimesNewRomanPSMT-30" d="M 231 2094 
Q 231 2819 450 3342 
Q 669 3866 1031 4122 
Q 1313 4325 1613 4325 
Q 2100 4325 2488 3828 
Q 2972 3213 2972 2159 
Q 2972 1422 2759 906 
Q 2547 391 2217 158 
Q 1888 -75 1581 -75 
Q 975 -75 572 641 
Q 231 1244 231 2094 
z
M 844 2016 
Q 844 1141 1059 588 
Q 1238 122 1591 122 
Q 1759 122 1940 273 
Q 2122 425 2216 781 
Q 2359 1319 2359 2297 
Q 2359 3022 2209 3506 
Q 2097 3866 1919 4016 
Q 1791 4119 1609 4119 
Q 1397 4119 1231 3928 
Q 1006 3669 925 3112 
Q 844 2556 844 2016 
z
" transform="scale(0.015625)"/>
       </defs>
       <use xlink:href="#TimesNewRomanPSMT-30"/>
      </g>
     </g>
    </g>
    <g id="xtick_2">
     <g id="line2d_2">
      <g>
       <use xlink:href="#m61f6220af2" x="372.661796" y="838.8" style="stroke: #000000; stroke-width: 0.8"/>
      </g>
     </g>
     <g id="text_2">
      <!-- 200 -->
      <g transform="translate(357.661796 859.6875) scale(0.2 -0.2)">
       <defs>
        <path id="TimesNewRomanPSMT-32" d="M 2934 816 
L 2638 0 
L 138 0 
L 138 116 
Q 1241 1122 1691 1759 
Q 2141 2397 2141 2925 
Q 2141 3328 1894 3587 
Q 1647 3847 1303 3847 
Q 991 3847 742 3664 
Q 494 3481 375 3128 
L 259 3128 
Q 338 3706 661 4015 
Q 984 4325 1469 4325 
Q 1984 4325 2329 3994 
Q 2675 3663 2675 3213 
Q 2675 2891 2525 2569 
Q 2294 2063 1775 1497 
Q 997 647 803 472 
L 1909 472 
Q 2247 472 2383 497 
Q 2519 522 2628 598 
Q 2738 675 2819 816 
L 2934 816 
z
" transform="scale(0.015625)"/>
       </defs>
       <use xlink:href="#TimesNewRomanPSMT-32"/>
       <use xlink:href="#TimesNewRomanPSMT-30" x="50"/>
       <use xlink:href="#TimesNewRomanPSMT-30" x="100"/>
      </g>
     </g>
    </g>
    <g id="xtick_3">
     <g id="line2d_3">
      <g>
       <use xlink:href="#m61f6220af2" x="690.248591" y="838.8" style="stroke: #000000; stroke-width: 0.8"/>
      </g>
     </g>
     <g id="text_3">
      <!-- 400 -->
      <g transform="translate(675.248591 859.6875) scale(0.2 -0.2)">
       <defs>
        <path id="TimesNewRomanPSMT-34" d="M 2978 1563 
L 2978 1119 
L 2409 1119 
L 2409 0 
L 1894 0 
L 1894 1119 
L 100 1119 
L 100 1519 
L 2066 4325 
L 2409 4325 
L 2409 1563 
L 2978 1563 
z
M 1894 1563 
L 1894 3666 
L 406 1563 
L 1894 1563 
z
" transform="scale(0.015625)"/>
       </defs>
       <use xlink:href="#TimesNewRomanPSMT-34"/>
       <use xlink:href="#TimesNewRomanPSMT-30" x="50"/>
       <use xlink:href="#TimesNewRomanPSMT-30" x="100"/>
      </g>
     </g>
    </g>
    <g id="xtick_4">
     <g id="line2d_4">
      <g>
       <use xlink:href="#m61f6220af2" x="1007.835387" y="838.8" style="stroke: #000000; stroke-width: 0.8"/>
      </g>
     </g>
     <g id="text_4">
      <!-- 600 -->
      <g transform="translate(992.835387 859.6875) scale(0.2 -0.2)">
       <defs>
        <path id="TimesNewRomanPSMT-36" d="M 2869 4325 
L 2869 4209 
Q 2456 4169 2195 4045 
Q 1934 3922 1679 3669 
Q 1425 3416 1258 3105 
Q 1091 2794 978 2366 
Q 1428 2675 1881 2675 
Q 2316 2675 2634 2325 
Q 2953 1975 2953 1425 
Q 2953 894 2631 456 
Q 2244 -75 1606 -75 
Q 1172 -75 869 213 
Q 275 772 275 1663 
Q 275 2231 503 2743 
Q 731 3256 1154 3653 
Q 1578 4050 1965 4187 
Q 2353 4325 2688 4325 
L 2869 4325 
z
M 925 2138 
Q 869 1716 869 1456 
Q 869 1156 980 804 
Q 1091 453 1309 247 
Q 1469 100 1697 100 
Q 1969 100 2183 356 
Q 2397 613 2397 1088 
Q 2397 1622 2184 2012 
Q 1972 2403 1581 2403 
Q 1463 2403 1327 2353 
Q 1191 2303 925 2138 
z
" transform="scale(0.015625)"/>
       </defs>
       <use xlink:href="#TimesNewRomanPSMT-36"/>
       <use xlink:href="#TimesNewRomanPSMT-30" x="50"/>
       <use xlink:href="#TimesNewRomanPSMT-30" x="100"/>
      </g>
     </g>
    </g>
    <g id="xtick_5">
     <g id="line2d_5">
      <g>
       <use xlink:href="#m61f6220af2" x="1325.422183" y="838.8" style="stroke: #000000; stroke-width: 0.8"/>
      </g>
     </g>
     <g id="text_5">
      <!-- 800 -->
      <g transform="translate(1310.422183 859.6875) scale(0.2 -0.2)">
       <defs>
        <path id="TimesNewRomanPSMT-38" d="M 1228 2134 
Q 725 2547 579 2797 
Q 434 3047 434 3316 
Q 434 3728 753 4026 
Q 1072 4325 1600 4325 
Q 2113 4325 2425 4047 
Q 2738 3769 2738 3413 
Q 2738 3175 2569 2928 
Q 2400 2681 1866 2347 
Q 2416 1922 2594 1678 
Q 2831 1359 2831 1006 
Q 2831 559 2490 242 
Q 2150 -75 1597 -75 
Q 994 -75 656 303 
Q 388 606 388 966 
Q 388 1247 577 1523 
Q 766 1800 1228 2134 
z
M 1719 2469 
Q 2094 2806 2194 3001 
Q 2294 3197 2294 3444 
Q 2294 3772 2109 3958 
Q 1925 4144 1606 4144 
Q 1288 4144 1088 3959 
Q 888 3775 888 3528 
Q 888 3366 970 3203 
Q 1053 3041 1206 2894 
L 1719 2469 
z
M 1375 2016 
Q 1116 1797 991 1539 
Q 866 1281 866 981 
Q 866 578 1086 336 
Q 1306 94 1647 94 
Q 1984 94 2187 284 
Q 2391 475 2391 747 
Q 2391 972 2272 1150 
Q 2050 1481 1375 2016 
z
" transform="scale(0.015625)"/>
       </defs>
       <use xlink:href="#TimesNewRomanPSMT-38"/>
       <use xlink:href="#TimesNewRomanPSMT-30" x="50"/>
       <use xlink:href="#TimesNewRomanPSMT-30" x="100"/>
      </g>
     </g>
    </g>
    <g id="xtick_6">
     <g id="line2d_6">
      <g>
       <use xlink:href="#m61f6220af2" x="1643.008978" y="838.8" style="stroke: #000000; stroke-width: 0.8"/>
      </g>
     </g>
     <g id="text_6">
      <!-- 1000 -->
      <g transform="translate(1623.008978 859.6875) scale(0.2 -0.2)">
       <defs>
        <path id="TimesNewRomanPSMT-31" d="M 750 3822 
L 1781 4325 
L 1884 4325 
L 1884 747 
Q 1884 391 1914 303 
Q 1944 216 2037 169 
Q 2131 122 2419 116 
L 2419 0 
L 825 0 
L 825 116 
Q 1125 122 1212 167 
Q 1300 213 1334 289 
Q 1369 366 1369 747 
L 1369 3034 
Q 1369 3497 1338 3628 
Q 1316 3728 1258 3775 
Q 1200 3822 1119 3822 
Q 1003 3822 797 3725 
L 750 3822 
z
" transform="scale(0.015625)"/>
       </defs>
       <use xlink:href="#TimesNewRomanPSMT-31"/>
       <use xlink:href="#TimesNewRomanPSMT-30" x="50"/>
       <use xlink:href="#TimesNewRomanPSMT-30" x="100"/>
       <use xlink:href="#TimesNewRomanPSMT-30" x="150"/>
      </g>
     </g>
    </g>
    <g id="xtick_7">
     <g id="line2d_7">
      <g>
       <use xlink:href="#m61f6220af2" x="1960.595774" y="838.8" style="stroke: #000000; stroke-width: 0.8"/>
      </g>
     </g>
     <g id="text_7">
      <!-- 1200 -->
      <g transform="translate(1940.595774 859.6875) scale(0.2 -0.2)">
       <use xlink:href="#TimesNewRomanPSMT-31"/>
       <use xlink:href="#TimesNewRomanPSMT-32" x="50"/>
       <use xlink:href="#TimesNewRomanPSMT-30" x="100"/>
       <use xlink:href="#TimesNewRomanPSMT-30" x="150"/>
      </g>
     </g>
    </g>
    <g id="xtick_8">
     <g id="line2d_8">
      <g>
       <use xlink:href="#m61f6220af2" x="2278.18257" y="838.8" style="stroke: #000000; stroke-width: 0.8"/>
      </g>
     </g>
     <g id="text_8">
      <!-- 1400 -->
      <g transform="translate(2258.18257 859.6875) scale(0.2 -0.2)">
       <use xlink:href="#TimesNewRomanPSMT-31"/>
       <use xlink:href="#TimesNewRomanPSMT-34" x="50"/>
       <use xlink:href="#TimesNewRomanPSMT-30" x="100"/>
       <use xlink:href="#TimesNewRomanPSMT-30" x="150"/>
      </g>
     </g>
    </g>
    <g id="text_9">
     <!-- Makespan -->
     <g transform="translate(1270.575 882.2625) scale(0.2 -0.2)">
      <defs>
       <path id="SimSun-4d" d="M 2800 450 
Q 2800 350 2862 300 
Q 2925 250 3025 250 
L 3125 250 
L 3125 100 
L 2050 100 
L 2050 250 
L 2175 250 
Q 2300 250 2350 300 
Q 2400 350 2400 450 
L 2400 3725 
L 2350 3725 
L 1500 100 
L 1350 100 
L 575 3650 
L 525 3650 
L 525 450 
Q 525 350 587 300 
Q 650 250 750 250 
L 825 250 
L 825 100 
L 75 100 
L 75 250 
L 150 250 
Q 275 250 325 300 
Q 375 350 375 450 
L 375 4025 
Q 375 4125 325 4175 
Q 275 4225 150 4225 
L 50 4225 
L 50 4375 
L 775 4375 
L 1500 1025 
L 1550 1025 
L 2325 4375 
L 3125 4375 
L 3125 4225 
L 3025 4225 
Q 2925 4225 2862 4175 
Q 2800 4125 2800 4025 
L 2800 450 
z
" transform="scale(0.015625)"/>
       <path id="SimSun-61" d="M 1225 75 
Q 775 75 525 287 
Q 275 500 275 775 
Q 275 1225 662 1512 
Q 1050 1800 2200 1925 
L 2200 2225 
Q 2200 2475 2087 2637 
Q 1975 2800 1575 2800 
Q 1150 2800 975 2662 
Q 800 2525 850 2375 
Q 875 2325 875 2275 
Q 875 2225 837 2150 
Q 800 2075 650 2075 
Q 550 2075 487 2137 
Q 425 2200 425 2325 
Q 425 2550 750 2750 
Q 1075 2950 1550 2950 
Q 2050 2950 2300 2762 
Q 2550 2575 2550 2225 
L 2550 575 
Q 2550 375 2587 337 
Q 2625 300 2725 300 
Q 2850 300 2900 412 
Q 2950 525 2950 725 
L 3075 725 
Q 3075 375 2950 237 
Q 2825 100 2625 100 
Q 2450 100 2350 175 
Q 2250 250 2200 425 
Q 1950 250 1737 162 
Q 1525 75 1225 75 
z
M 700 850 
Q 700 625 837 437 
Q 975 250 1275 250 
Q 1500 250 1725 337 
Q 1950 425 2200 600 
L 2200 1775 
Q 1350 1675 1025 1437 
Q 700 1200 700 850 
z
" transform="scale(0.015625)"/>
       <path id="SimSun-6b" d="M 1675 1900 
L 2625 425 
Q 2700 325 2762 287 
Q 2825 250 2900 250 
L 3000 250 
L 3000 100 
L 1975 100 
L 1975 250 
L 2050 250 
Q 2175 250 2225 287 
Q 2275 325 2200 425 
L 1425 1650 
L 925 1125 
L 925 450 
Q 925 350 987 300 
Q 1050 250 1150 250 
L 1275 250 
L 1275 100 
L 225 100 
L 225 250 
L 350 250 
Q 475 250 525 300 
Q 575 350 575 450 
L 575 4025 
Q 575 4125 525 4175 
Q 475 4225 350 4225 
L 200 4225 
L 200 4375 
L 425 4375 
Q 575 4375 687 4425 
Q 800 4475 875 4575 
L 925 4575 
L 925 1400 
L 1975 2525 
Q 2025 2625 2012 2687 
Q 2000 2750 1900 2750 
L 1750 2750 
L 1750 2900 
L 2800 2900 
L 2800 2750 
L 2675 2750 
Q 2600 2750 2487 2712 
Q 2375 2675 2275 2575 
L 1675 1900 
z
M 2450 2750 
L 2450 2750 
z
M 2175 2750 
L 2175 2750 
z
M 2300 250 
L 2300 250 
z
M 2750 250 
L 2750 250 
z
" transform="scale(0.015625)"/>
       <path id="SimSun-65" d="M 2400 1650 
Q 2425 2200 2212 2487 
Q 2000 2775 1650 2775 
Q 1275 2775 1037 2475 
Q 800 2175 800 1650 
L 2400 1650 
z
M 800 1500 
Q 800 825 1062 537 
Q 1325 250 1750 250 
Q 2075 250 2300 437 
Q 2525 625 2625 900 
L 2750 850 
Q 2675 575 2412 312 
Q 2150 50 1700 50 
Q 1125 50 762 425 
Q 400 800 400 1500 
Q 400 2125 762 2537 
Q 1125 2950 1650 2950 
Q 2125 2950 2475 2625 
Q 2825 2300 2825 1500 
L 800 1500 
z
" transform="scale(0.015625)"/>
       <path id="SimSun-73" d="M 625 2175 
Q 625 2550 912 2750 
Q 1200 2950 1600 2950 
Q 1825 2950 2025 2900 
Q 2225 2825 2300 2825 
Q 2375 2825 2425 2850 
Q 2475 2875 2550 2950 
L 2650 2125 
L 2500 2100 
Q 2400 2425 2162 2612 
Q 1925 2800 1625 2800 
Q 1300 2800 1112 2675 
Q 925 2550 925 2325 
Q 925 2125 1012 2012 
Q 1100 1900 1325 1850 
Q 1500 1775 1775 1700 
Q 2025 1600 2250 1500 
Q 2450 1400 2587 1237 
Q 2725 1075 2725 875 
Q 2725 500 2462 287 
Q 2200 75 1700 75 
Q 1375 75 1225 150 
Q 1050 200 950 200 
Q 875 200 787 162 
Q 700 125 600 75 
L 525 1000 
L 675 1025 
Q 750 625 1000 425 
Q 1250 225 1700 225 
Q 2050 225 2237 350 
Q 2425 475 2425 725 
Q 2425 900 2325 1012 
Q 2225 1125 2125 1175 
Q 1875 1275 1575 1400 
Q 1275 1500 1050 1600 
Q 825 1700 725 1850 
Q 625 2000 625 2175 
z
" transform="scale(0.015625)"/>
       <path id="SimSun-70" d="M 1150 -675 
L 1325 -675 
L 1325 -825 
L 175 -825 
L 175 -675 
L 325 -675 
Q 450 -675 500 -625 
Q 550 -575 550 -450 
L 550 2500 
Q 550 2600 500 2662 
Q 450 2725 325 2725 
L 175 2725 
L 175 2875 
L 400 2875 
Q 525 2875 637 2900 
Q 750 2925 850 3000 
L 900 3000 
L 900 2425 
Q 1075 2675 1287 2800 
Q 1500 2925 1750 2925 
Q 2250 2925 2575 2587 
Q 2900 2250 2900 1525 
Q 2900 825 2550 450 
Q 2200 75 1725 75 
Q 1450 75 1262 162 
Q 1075 250 900 425 
L 900 -450 
Q 900 -575 975 -625 
Q 1050 -675 1150 -675 
z
M 900 750 
Q 1025 500 1212 375 
Q 1400 250 1650 250 
Q 2000 250 2250 562 
Q 2500 875 2500 1525 
Q 2500 2125 2312 2425 
Q 2125 2725 1750 2725 
Q 1525 2725 1300 2587 
Q 1075 2450 900 2150 
L 900 750 
z
" transform="scale(0.015625)"/>
       <path id="SimSun-6e" d="M 200 100 
L 200 250 
L 325 250 
Q 450 250 500 300 
Q 550 350 550 450 
L 550 2600 
Q 550 2675 525 2712 
Q 500 2750 425 2750 
L 225 2750 
L 225 2900 
L 400 2900 
Q 525 2900 637 2925 
Q 750 2950 850 3025 
L 900 3025 
L 900 2450 
Q 1125 2700 1350 2825 
Q 1575 2950 1825 2950 
Q 2250 2950 2450 2725 
Q 2650 2500 2650 2050 
L 2650 450 
Q 2650 350 2712 300 
Q 2775 250 2875 250 
L 3000 250 
L 3000 100 
L 1950 100 
L 1950 250 
L 2075 250 
Q 2200 250 2250 300 
Q 2300 350 2300 450 
L 2300 2125 
Q 2300 2425 2175 2587 
Q 2050 2750 1800 2750 
Q 1575 2750 1337 2600 
Q 1100 2450 900 2175 
L 900 450 
Q 900 350 962 300 
Q 1025 250 1125 250 
L 1250 250 
L 1250 100 
L 200 100 
z
" transform="scale(0.015625)"/>
      </defs>
      <use xlink:href="#SimSun-4d"/>
      <use xlink:href="#SimSun-61" x="50"/>
      <use xlink:href="#SimSun-6b" x="100"/>
      <use xlink:href="#SimSun-65" x="150"/>
      <use xlink:href="#SimSun-73" x="200"/>
      <use xlink:href="#SimSun-70" x="250"/>
      <use xlink:href="#SimSun-61" x="300"/>
      <use xlink:href="#SimSun-6e" x="350"/>
     </g>
    </g>
   </g>
   <g id="matplotlib.axis_2">
    <g id="ytick_1">
     <g id="line2d_9">
      <defs>
       <path id="m5181fb90d0" d="M 0 0 
L -3.5 0 
" style="stroke: #000000; stroke-width: 0.8"/>
      </defs>
      <g>
       <use xlink:href="#m5181fb90d0" x="55.075" y="787.965517" style="stroke: #000000; stroke-width: 0.8"/>
      </g>
     </g>
     <g id="text_10">
      <!-- 1 -->
      <g transform="translate(38.075 794.909267) scale(0.2 -0.2)">
       <use xlink:href="#TimesNewRomanPSMT-31"/>
      </g>
     </g>
    </g>
    <g id="ytick_2">
     <g id="line2d_10">
      <g>
       <use xlink:href="#m5181fb90d0" x="55.075" y="735.827586" style="stroke: #000000; stroke-width: 0.8"/>
      </g>
     </g>
     <g id="text_11">
      <!-- 2 -->
      <g transform="translate(38.075 742.771336) scale(0.2 -0.2)">
       <use xlink:href="#TimesNewRomanPSMT-32"/>
      </g>
     </g>
    </g>
    <g id="ytick_3">
     <g id="line2d_11">
      <g>
       <use xlink:href="#m5181fb90d0" x="55.075" y="683.689655" style="stroke: #000000; stroke-width: 0.8"/>
      </g>
     </g>
     <g id="text_12">
      <!-- 3 -->
      <g transform="translate(38.075 690.633405) scale(0.2 -0.2)">
       <defs>
        <path id="TimesNewRomanPSMT-33" d="M 325 3431 
Q 506 3859 782 4092 
Q 1059 4325 1472 4325 
Q 1981 4325 2253 3994 
Q 2459 3747 2459 3466 
Q 2459 3003 1878 2509 
Q 2269 2356 2469 2072 
Q 2669 1788 2669 1403 
Q 2669 853 2319 450 
Q 1863 -75 997 -75 
Q 569 -75 414 31 
Q 259 138 259 259 
Q 259 350 332 419 
Q 406 488 509 488 
Q 588 488 669 463 
Q 722 447 909 348 
Q 1097 250 1169 231 
Q 1284 197 1416 197 
Q 1734 197 1970 444 
Q 2206 691 2206 1028 
Q 2206 1275 2097 1509 
Q 2016 1684 1919 1775 
Q 1784 1900 1550 2001 
Q 1316 2103 1072 2103 
L 972 2103 
L 972 2197 
Q 1219 2228 1467 2375 
Q 1716 2522 1828 2728 
Q 1941 2934 1941 3181 
Q 1941 3503 1739 3701 
Q 1538 3900 1238 3900 
Q 753 3900 428 3381 
L 325 3431 
z
" transform="scale(0.015625)"/>
       </defs>
       <use xlink:href="#TimesNewRomanPSMT-33"/>
      </g>
     </g>
    </g>
    <g id="ytick_4">
     <g id="line2d_12">
      <g>
       <use xlink:href="#m5181fb90d0" x="55.075" y="631.551724" style="stroke: #000000; stroke-width: 0.8"/>
      </g>
     </g>
     <g id="text_13">
      <!-- 4 -->
      <g transform="translate(38.075 638.495474) scale(0.2 -0.2)">
       <use xlink:href="#TimesNewRomanPSMT-34"/>
      </g>
     </g>
    </g>
    <g id="ytick_5">
     <g id="line2d_13">
      <g>
       <use xlink:href="#m5181fb90d0" x="55.075" y="579.413793" style="stroke: #000000; stroke-width: 0.8"/>
      </g>
     </g>
     <g id="text_14">
      <!-- 5 -->
      <g transform="translate(38.075 586.357543) scale(0.2 -0.2)">
       <defs>
        <path id="TimesNewRomanPSMT-35" d="M 2778 4238 
L 2534 3706 
L 1259 3706 
L 981 3138 
Q 1809 3016 2294 2522 
Q 2709 2097 2709 1522 
Q 2709 1188 2573 903 
Q 2438 619 2231 419 
Q 2025 219 1772 97 
Q 1413 -75 1034 -75 
Q 653 -75 479 54 
Q 306 184 306 341 
Q 306 428 378 495 
Q 450 563 559 563 
Q 641 563 702 538 
Q 763 513 909 409 
Q 1144 247 1384 247 
Q 1750 247 2026 523 
Q 2303 800 2303 1197 
Q 2303 1581 2056 1914 
Q 1809 2247 1375 2428 
Q 1034 2569 447 2591 
L 1259 4238 
L 2778 4238 
z
" transform="scale(0.015625)"/>
       </defs>
       <use xlink:href="#TimesNewRomanPSMT-35"/>
      </g>
     </g>
    </g>
    <g id="ytick_6">
     <g id="line2d_14">
      <g>
       <use xlink:href="#m5181fb90d0" x="55.075" y="527.275862" style="stroke: #000000; stroke-width: 0.8"/>
      </g>
     </g>
     <g id="text_15">
      <!-- 6 -->
      <g transform="translate(38.075 534.219612) scale(0.2 -0.2)">
       <use xlink:href="#TimesNewRomanPSMT-36"/>
      </g>
     </g>
    </g>
    <g id="ytick_7">
     <g id="line2d_15">
      <g>
       <use xlink:href="#m5181fb90d0" x="55.075" y="475.137931" style="stroke: #000000; stroke-width: 0.8"/>
      </g>
     </g>
     <g id="text_16">
      <!-- 7 -->
      <g transform="translate(38.075 482.081681) scale(0.2 -0.2)">
       <defs>
        <path id="TimesNewRomanPSMT-37" d="M 644 4238 
L 2916 4238 
L 2916 4119 
L 1503 -88 
L 1153 -88 
L 2419 3728 
L 1253 3728 
Q 900 3728 750 3644 
Q 488 3500 328 3200 
L 238 3234 
L 644 4238 
z
" transform="scale(0.015625)"/>
       </defs>
       <use xlink:href="#TimesNewRomanPSMT-37"/>
      </g>
     </g>
    </g>
    <g id="ytick_8">
     <g id="line2d_16">
      <g>
       <use xlink:href="#m5181fb90d0" x="55.075" y="423" style="stroke: #000000; stroke-width: 0.8"/>
      </g>
     </g>
     <g id="text_17">
      <!-- 8 -->
      <g transform="translate(38.075 429.94375) scale(0.2 -0.2)">
       <use xlink:href="#TimesNewRomanPSMT-38"/>
      </g>
     </g>
    </g>
    <g id="ytick_9">
     <g id="line2d_17">
      <g>
       <use xlink:href="#m5181fb90d0" x="55.075" y="370.862069" style="stroke: #000000; stroke-width: 0.8"/>
      </g>
     </g>
     <g id="text_18">
      <!-- 9 -->
      <g transform="translate(38.075 377.805819) scale(0.2 -0.2)">
       <defs>
        <path id="TimesNewRomanPSMT-39" d="M 338 -88 
L 338 28 
Q 744 34 1094 217 
Q 1444 400 1770 856 
Q 2097 1313 2225 1859 
Q 1734 1544 1338 1544 
Q 891 1544 572 1889 
Q 253 2234 253 2806 
Q 253 3363 572 3797 
Q 956 4325 1575 4325 
Q 2097 4325 2469 3894 
Q 2925 3359 2925 2575 
Q 2925 1869 2578 1258 
Q 2231 647 1613 244 
Q 1109 -88 516 -88 
L 338 -88 
z
M 2275 2091 
Q 2331 2497 2331 2741 
Q 2331 3044 2228 3395 
Q 2125 3747 1936 3934 
Q 1747 4122 1506 4122 
Q 1228 4122 1018 3872 
Q 809 3622 809 3128 
Q 809 2469 1088 2097 
Q 1291 1828 1588 1828 
Q 1731 1828 1928 1897 
Q 2125 1966 2275 2091 
z
" transform="scale(0.015625)"/>
       </defs>
       <use xlink:href="#TimesNewRomanPSMT-39"/>
      </g>
     </g>
    </g>
    <g id="ytick_10">
     <g id="line2d_18">
      <g>
       <use xlink:href="#m5181fb90d0" x="55.075" y="318.724138" style="stroke: #000000; stroke-width: 0.8"/>
      </g>
     </g>
     <g id="text_19">
      <!-- 10 -->
      <g transform="translate(28.075 325.667888) scale(0.2 -0.2)">
       <use xlink:href="#TimesNewRomanPSMT-31"/>
       <use xlink:href="#TimesNewRomanPSMT-30" x="50"/>
      </g>
     </g>
    </g>
    <g id="ytick_11">
     <g id="line2d_19">
      <g>
       <use xlink:href="#m5181fb90d0" x="55.075" y="266.586207" style="stroke: #000000; stroke-width: 0.8"/>
      </g>
     </g>
     <g id="text_20">
      <!-- 11 -->
      <g transform="translate(28.825 273.529957) scale(0.2 -0.2)">
       <use xlink:href="#TimesNewRomanPSMT-31"/>
       <use xlink:href="#TimesNewRomanPSMT-31" x="46.25"/>
      </g>
     </g>
    </g>
    <g id="ytick_12">
     <g id="line2d_20">
      <g>
       <use xlink:href="#m5181fb90d0" x="55.075" y="214.448276" style="stroke: #000000; stroke-width: 0.8"/>
      </g>
     </g>
     <g id="text_21">
      <!-- 12 -->
      <g transform="translate(28.075 221.392026) scale(0.2 -0.2)">
       <use xlink:href="#TimesNewRomanPSMT-31"/>
       <use xlink:href="#TimesNewRomanPSMT-32" x="50"/>
      </g>
     </g>
    </g>
    <g id="ytick_13">
     <g id="line2d_21">
      <g>
       <use xlink:href="#m5181fb90d0" x="55.075" y="162.310345" style="stroke: #000000; stroke-width: 0.8"/>
      </g>
     </g>
     <g id="text_22">
      <!-- 13 -->
      <g transform="translate(28.075 169.254095) scale(0.2 -0.2)">
       <use xlink:href="#TimesNewRomanPSMT-31"/>
       <use xlink:href="#TimesNewRomanPSMT-33" x="50"/>
      </g>
     </g>
    </g>
    <g id="ytick_14">
     <g id="line2d_22">
      <g>
       <use xlink:href="#m5181fb90d0" x="55.075" y="110.172414" style="stroke: #000000; stroke-width: 0.8"/>
      </g>
     </g>
     <g id="text_23">
      <!-- 14 -->
      <g transform="translate(28.075 117.116164) scale(0.2 -0.2)">
       <use xlink:href="#TimesNewRomanPSMT-31"/>
       <use xlink:href="#TimesNewRomanPSMT-34" x="50"/>
      </g>
     </g>
    </g>
    <g id="ytick_15">
     <g id="line2d_23">
      <g>
       <use xlink:href="#m5181fb90d0" x="55.075" y="58.034483" style="stroke: #000000; stroke-width: 0.8"/>
      </g>
     </g>
     <g id="text_24">
      <!-- 15 -->
      <g transform="translate(28.075 64.978233) scale(0.2 -0.2)">
       <use xlink:href="#TimesNewRomanPSMT-31"/>
       <use xlink:href="#TimesNewRomanPSMT-35" x="50"/>
      </g>
     </g>
    </g>
    <g id="text_25">
     <!-- Machine -->
     <g transform="translate(21.496875 458) rotate(-90) scale(0.2 -0.2)">
      <defs>
       <path id="SimSun-63" d="M 2150 2225 
Q 2150 2300 2175 2325 
Q 2175 2350 2200 2425 
Q 2225 2525 2100 2662 
Q 1975 2800 1675 2800 
Q 1300 2800 1037 2437 
Q 775 2075 775 1475 
Q 775 925 1000 587 
Q 1225 250 1750 250 
Q 2100 250 2337 475 
Q 2575 700 2675 1000 
L 2800 950 
Q 2700 575 2425 312 
Q 2150 50 1675 50 
Q 1075 50 725 425 
Q 375 800 375 1500 
Q 375 2125 750 2537 
Q 1125 2950 1725 2950 
Q 2150 2950 2387 2725 
Q 2625 2500 2625 2275 
Q 2625 2125 2562 2062 
Q 2500 2000 2375 2000 
Q 2275 2000 2212 2062 
Q 2150 2125 2150 2225 
z
" transform="scale(0.015625)"/>
       <path id="SimSun-68" d="M 200 100 
L 200 250 
L 325 250 
Q 450 250 500 300 
Q 550 350 550 450 
L 550 4025 
Q 550 4125 500 4175 
Q 450 4225 325 4225 
L 175 4225 
L 175 4375 
L 450 4375 
Q 550 4375 650 4425 
Q 750 4475 850 4575 
L 900 4575 
L 900 2450 
Q 1125 2725 1362 2837 
Q 1600 2950 1875 2950 
Q 2250 2950 2450 2737 
Q 2650 2525 2650 2075 
L 2650 450 
Q 2650 350 2712 300 
Q 2775 250 2875 250 
L 3000 250 
L 3000 100 
L 1950 100 
L 1950 250 
L 2075 250 
Q 2200 250 2250 300 
Q 2300 350 2300 450 
L 2300 2025 
Q 2300 2450 2162 2587 
Q 2025 2725 1800 2725 
Q 1600 2725 1362 2600 
Q 1125 2475 900 2175 
L 900 450 
Q 900 350 962 300 
Q 1025 250 1125 250 
L 1250 250 
L 1250 100 
L 200 100 
z
" transform="scale(0.015625)"/>
       <path id="SimSun-69" d="M 1425 2525 
Q 1425 2625 1375 2687 
Q 1325 2750 1200 2750 
L 675 2750 
L 675 2900 
L 925 2900 
Q 1150 2900 1350 2937 
Q 1550 2975 1725 3075 
L 1775 3075 
L 1775 450 
Q 1775 350 1837 300 
Q 1900 250 2000 250 
L 2525 250 
L 2525 100 
L 675 100 
L 675 250 
L 1200 250 
Q 1325 250 1375 300 
Q 1425 350 1425 450 
L 1425 2525 
z
M 1725 3025 
L 1725 3025 
z
M 1625 4425 
Q 1750 4425 1850 4337 
Q 1950 4250 1950 4125 
Q 1950 4000 1850 3900 
Q 1750 3800 1625 3800 
Q 1500 3800 1400 3900 
Q 1300 4000 1300 4125 
Q 1300 4250 1400 4337 
Q 1500 4425 1625 4425 
z
" transform="scale(0.015625)"/>
      </defs>
      <use xlink:href="#SimSun-4d"/>
      <use xlink:href="#SimSun-61" x="50"/>
      <use xlink:href="#SimSun-63" x="100"/>
      <use xlink:href="#SimSun-68" x="150"/>
      <use xlink:href="#SimSun-69" x="200"/>
      <use xlink:href="#SimSun-6e" x="250"/>
      <use xlink:href="#SimSun-65" x="300"/>
     </g>
    </g>
   </g>
   <g id="patch_72">
    <path d="M 55.075 838.8 
L 55.075 7.2 
" style="fill: none; stroke: #000000; stroke-width: 0.8; stroke-linejoin: miter; stroke-linecap: square"/>
   </g>
   <g id="patch_73">
    <path d="M 2566.075 838.8 
L 2566.075 7.2 
" style="fill: none; stroke: #000000; stroke-width: 0.8; stroke-linejoin: miter; stroke-linecap: square"/>
   </g>
   <g id="patch_74">
    <path d="M 55.075 838.8 
L 2566.075 838.8 
" style="fill: none; stroke: #000000; stroke-width: 0.8; stroke-linejoin: miter; stroke-linecap: square"/>
   </g>
   <g id="patch_75">
    <path d="M 55.075 7.2 
L 2566.075 7.2 
" style="fill: none; stroke: #000000; stroke-width: 0.8; stroke-linejoin: miter; stroke-linecap: square"/>
   </g>
   <g id="text_26">
    <!-- P6 -->
    <g transform="translate(64.496742 746.255172) scale(0.06 -0.06)">
     <defs>
      <path id="DejaVuSans-50" d="M 1259 4147 
L 1259 2394 
L 2053 2394 
Q 2494 2394 2734 2622 
Q 2975 2850 2975 3272 
Q 2975 3691 2734 3919 
Q 2494 4147 2053 4147 
L 1259 4147 
z
M 628 4666 
L 2053 4666 
Q 2838 4666 3239 4311 
Q 3641 3956 3641 3272 
Q 3641 2581 3239 2228 
Q 2838 1875 2053 1875 
L 1259 1875 
L 1259 0 
L 628 0 
L 628 4666 
z
" transform="scale(0.015625)"/>
      <path id="DejaVuSans-36" d="M 2113 2584 
Q 1688 2584 1439 2293 
Q 1191 2003 1191 1497 
Q 1191 994 1439 701 
Q 1688 409 2113 409 
Q 2538 409 2786 701 
Q 3034 994 3034 1497 
Q 3034 2003 2786 2293 
Q 2538 2584 2113 2584 
z
M 3366 4563 
L 3366 3988 
Q 3128 4100 2886 4159 
Q 2644 4219 2406 4219 
Q 1781 4219 1451 3797 
Q 1122 3375 1075 2522 
Q 1259 2794 1537 2939 
Q 1816 3084 2150 3084 
Q 2853 3084 3261 2657 
Q 3669 2231 3669 1497 
Q 3669 778 3244 343 
Q 2819 -91 2113 -91 
Q 1303 -91 875 529 
Q 447 1150 447 2328 
Q 447 3434 972 4092 
Q 1497 4750 2381 4750 
Q 2619 4750 2861 4703 
Q 3103 4656 3366 4563 
z
" transform="scale(0.015625)"/>
     </defs>
     <use xlink:href="#DejaVuSans-50"/>
     <use xlink:href="#DejaVuSans-36" x="60.302734"/>
    </g>
   </g>
   <g id="text_27">
    <!-- P2 -->
    <g transform="translate(63.01467 694.117241) scale(0.06 -0.06)">
     <defs>
      <path id="DejaVuSans-32" d="M 1228 531 
L 3431 531 
L 3431 0 
L 469 0 
L 469 531 
Q 828 903 1448 1529 
Q 2069 2156 2228 2338 
Q 2531 2678 2651 2914 
Q 2772 3150 2772 3378 
Q 2772 3750 2511 3984 
Q 2250 4219 1831 4219 
Q 1534 4219 1204 4116 
Q 875 4013 500 3803 
L 500 4441 
Q 881 4594 1212 4672 
Q 1544 4750 1819 4750 
Q 2544 4750 2975 4387 
Q 3406 4025 3406 3419 
Q 3406 3131 3298 2873 
Q 3191 2616 2906 2266 
Q 2828 2175 2409 1742 
Q 1991 1309 1228 531 
z
" transform="scale(0.015625)"/>
     </defs>
     <use xlink:href="#DejaVuSans-50"/>
     <use xlink:href="#DejaVuSans-32" x="60.302734"/>
    </g>
   </g>
   <g id="text_28">
    <!-- P3 -->
    <g transform="translate(62.379496 798.393103) scale(0.06 -0.06)">
     <defs>
      <path id="DejaVuSans-33" d="M 2597 2516 
Q 3050 2419 3304 2112 
Q 3559 1806 3559 1356 
Q 3559 666 3084 287 
Q 2609 -91 1734 -91 
Q 1441 -91 1130 -33 
Q 819 25 488 141 
L 488 750 
Q 750 597 1062 519 
Q 1375 441 1716 441 
Q 2309 441 2620 675 
Q 2931 909 2931 1356 
Q 2931 1769 2642 2001 
Q 2353 2234 1838 2234 
L 1294 2234 
L 1294 2753 
L 1863 2753 
Q 2328 2753 2575 2939 
Q 2822 3125 2822 3475 
Q 2822 3834 2567 4026 
Q 2313 4219 1838 4219 
Q 1578 4219 1281 4162 
Q 984 4106 628 3988 
L 628 4550 
Q 988 4650 1302 4700 
Q 1616 4750 1894 4750 
Q 2613 4750 3031 4423 
Q 3450 4097 3450 3541 
Q 3450 3153 3228 2886 
Q 3006 2619 2597 2516 
z
" transform="scale(0.015625)"/>
     </defs>
     <use xlink:href="#DejaVuSans-50"/>
     <use xlink:href="#DejaVuSans-33" x="60.302734"/>
    </g>
   </g>
   <g id="text_29">
    <!-- P5 -->
    <g transform="translate(345.190538 746.255172) scale(0.06 -0.06)">
     <defs>
      <path id="DejaVuSans-35" d="M 691 4666 
L 3169 4666 
L 3169 4134 
L 1269 4134 
L 1269 2991 
Q 1406 3038 1543 3061 
Q 1681 3084 1819 3084 
Q 2600 3084 3056 2656 
Q 3513 2228 3513 1497 
Q 3513 744 3044 326 
Q 2575 -91 1722 -91 
Q 1428 -91 1123 -41 
Q 819 9 494 109 
L 494 744 
Q 775 591 1075 516 
Q 1375 441 1709 441 
Q 2250 441 2565 725 
Q 2881 1009 2881 1497 
Q 2881 1984 2565 2268 
Q 2250 2553 1709 2553 
Q 1456 2553 1204 2497 
Q 953 2441 691 2322 
L 691 4666 
z
" transform="scale(0.015625)"/>
     </defs>
     <use xlink:href="#DejaVuSans-50"/>
     <use xlink:href="#DejaVuSans-35" x="60.302734"/>
    </g>
   </g>
   <g id="text_30">
    <!-- P5 -->
    <g transform="translate(563.901978 315.714349) scale(0.06 -0.06)">
     <use xlink:href="#DejaVuSans-50"/>
     <use xlink:href="#DejaVuSans-35" x="60.302734"/>
    </g>
    <!-- J2 -->
    <g transform="translate(563.901978 322.433037) scale(0.06 -0.06)">
     <defs>
      <path id="DejaVuSans-4a" d="M 628 4666 
L 1259 4666 
L 1259 325 
Q 1259 -519 939 -900 
Q 619 -1281 -91 -1281 
L -331 -1281 
L -331 -750 
L -134 -750 
Q 284 -750 456 -515 
Q 628 -281 628 325 
L 628 4666 
z
" transform="scale(0.015625)"/>
     </defs>
     <use xlink:href="#DejaVuSans-4a"/>
     <use xlink:href="#DejaVuSans-32" x="29.492188"/>
    </g>
    <!-- O1 -->
    <g transform="translate(563.901978 329.151724) scale(0.06 -0.06)">
     <defs>
      <path id="DejaVuSans-4f" d="M 2522 4238 
Q 1834 4238 1429 3725 
Q 1025 3213 1025 2328 
Q 1025 1447 1429 934 
Q 1834 422 2522 422 
Q 3209 422 3611 934 
Q 4013 1447 4013 2328 
Q 4013 3213 3611 3725 
Q 3209 4238 2522 4238 
z
M 2522 4750 
Q 3503 4750 4090 4092 
Q 4678 3434 4678 2328 
Q 4678 1225 4090 567 
Q 3503 -91 2522 -91 
Q 1538 -91 948 565 
Q 359 1222 359 2328 
Q 359 3434 948 4092 
Q 1538 4750 2522 4750 
z
" transform="scale(0.015625)"/>
      <path id="DejaVuSans-31" d="M 794 531 
L 1825 531 
L 1825 4091 
L 703 3866 
L 703 4441 
L 1819 4666 
L 2450 4666 
L 2450 531 
L 3481 531 
L 3481 0 
L 794 0 
L 794 531 
z
" transform="scale(0.015625)"/>
     </defs>
     <use xlink:href="#DejaVuSans-4f"/>
     <use xlink:href="#DejaVuSans-31" x="78.710938"/>
    </g>
   </g>
   <g id="text_31">
    <!-- P5 -->
    <g transform="translate(563.637322 576.404004) scale(0.06 -0.06)">
     <use xlink:href="#DejaVuSans-50"/>
     <use xlink:href="#DejaVuSans-35" x="60.302734"/>
    </g>
    <!-- J3 -->
    <g transform="translate(563.637322 583.122692) scale(0.06 -0.06)">
     <use xlink:href="#DejaVuSans-4a"/>
     <use xlink:href="#DejaVuSans-33" x="29.492188"/>
    </g>
    <!-- O1 -->
    <g transform="translate(563.637322 589.841379) scale(0.06 -0.06)">
     <use xlink:href="#DejaVuSans-4f"/>
     <use xlink:href="#DejaVuSans-31" x="78.710938"/>
    </g>
   </g>
   <g id="text_32">
    <!-- P3 -->
    <g transform="translate(276.59179 419.990211) scale(0.06 -0.06)">
     <use xlink:href="#DejaVuSans-50"/>
     <use xlink:href="#DejaVuSans-33" x="60.302734"/>
    </g>
    <!-- J2 -->
    <g transform="translate(276.59179 426.708899) scale(0.06 -0.06)">
     <use xlink:href="#DejaVuSans-4a"/>
     <use xlink:href="#DejaVuSans-32" x="29.492188"/>
    </g>
    <!-- O1 -->
    <g transform="translate(276.59179 433.427586) scale(0.06 -0.06)">
     <use xlink:href="#DejaVuSans-4f"/>
     <use xlink:href="#DejaVuSans-31" x="78.710938"/>
    </g>
   </g>
   <g id="text_33">
    <!-- P6 -->
    <g transform="translate(340.056218 263.576418) scale(0.06 -0.06)">
     <use xlink:href="#DejaVuSans-50"/>
     <use xlink:href="#DejaVuSans-36" x="60.302734"/>
    </g>
    <!-- J3 -->
    <g transform="translate(340.056218 270.295106) scale(0.06 -0.06)">
     <use xlink:href="#DejaVuSans-4a"/>
     <use xlink:href="#DejaVuSans-33" x="29.492188"/>
    </g>
    <!-- O1 -->
    <g transform="translate(340.056218 277.013793) scale(0.06 -0.06)">
     <use xlink:href="#DejaVuSans-4f"/>
     <use xlink:href="#DejaVuSans-31" x="78.710938"/>
    </g>
   </g>
   <g id="text_34">
    <!-- P3 -->
    <g transform="translate(347.784163 315.714349) scale(0.06 -0.06)">
     <use xlink:href="#DejaVuSans-50"/>
     <use xlink:href="#DejaVuSans-33" x="60.302734"/>
    </g>
    <!-- J2 -->
    <g transform="translate(347.784163 322.433037) scale(0.06 -0.06)">
     <use xlink:href="#DejaVuSans-4a"/>
     <use xlink:href="#DejaVuSans-32" x="29.492188"/>
    </g>
    <!-- O2 -->
    <g transform="translate(347.784163 329.151724) scale(0.06 -0.06)">
     <use xlink:href="#DejaVuSans-4f"/>
     <use xlink:href="#DejaVuSans-32" x="78.710938"/>
    </g>
   </g>
   <g id="text_35">
    <!-- P3 -->
    <g transform="translate(410.825142 524.266073) scale(0.06 -0.06)">
     <use xlink:href="#DejaVuSans-50"/>
     <use xlink:href="#DejaVuSans-33" x="60.302734"/>
    </g>
    <!-- J2 -->
    <g transform="translate(410.825142 530.984761) scale(0.06 -0.06)">
     <use xlink:href="#DejaVuSans-4a"/>
     <use xlink:href="#DejaVuSans-32" x="29.492188"/>
    </g>
    <!-- O3 -->
    <g transform="translate(410.825142 537.703448) scale(0.06 -0.06)">
     <use xlink:href="#DejaVuSans-4f"/>
     <use xlink:href="#DejaVuSans-33" x="78.710938"/>
    </g>
   </g>
   <g id="text_36">
    <!-- P3 -->
    <g transform="translate(461.956616 524.266073) scale(0.06 -0.06)">
     <use xlink:href="#DejaVuSans-50"/>
     <use xlink:href="#DejaVuSans-33" x="60.302734"/>
    </g>
    <!-- J2 -->
    <g transform="translate(461.956616 530.984761) scale(0.06 -0.06)">
     <use xlink:href="#DejaVuSans-4a"/>
     <use xlink:href="#DejaVuSans-32" x="29.492188"/>
    </g>
    <!-- O4 -->
    <g transform="translate(461.956616 537.703448) scale(0.06 -0.06)">
     <defs>
      <path id="DejaVuSans-34" d="M 2419 4116 
L 825 1625 
L 2419 1625 
L 2419 4116 
z
M 2253 4666 
L 3047 4666 
L 3047 1625 
L 3713 1625 
L 3713 1100 
L 3047 1100 
L 3047 0 
L 2419 0 
L 2419 1100 
L 313 1100 
L 313 1709 
L 2253 4666 
z
" transform="scale(0.015625)"/>
     </defs>
     <use xlink:href="#DejaVuSans-4f"/>
     <use xlink:href="#DejaVuSans-34" x="78.710938"/>
    </g>
   </g>
   <g id="text_37">
    <!-- P5 -->
    <g transform="translate(566.866121 524.266073) scale(0.06 -0.06)">
     <use xlink:href="#DejaVuSans-50"/>
     <use xlink:href="#DejaVuSans-35" x="60.302734"/>
    </g>
    <!-- J1 -->
    <g transform="translate(566.866121 530.984761) scale(0.06 -0.06)">
     <use xlink:href="#DejaVuSans-4a"/>
     <use xlink:href="#DejaVuSans-31" x="29.492188"/>
    </g>
    <!-- O1 -->
    <g transform="translate(566.866121 537.703448) scale(0.06 -0.06)">
     <use xlink:href="#DejaVuSans-4f"/>
     <use xlink:href="#DejaVuSans-31" x="78.710938"/>
    </g>
   </g>
   <g id="text_38">
    <!-- P6 -->
    <g transform="translate(410.878073 315.714349) scale(0.06 -0.06)">
     <use xlink:href="#DejaVuSans-50"/>
     <use xlink:href="#DejaVuSans-36" x="60.302734"/>
    </g>
    <!-- J1 -->
    <g transform="translate(410.878073 322.433037) scale(0.06 -0.06)">
     <use xlink:href="#DejaVuSans-4a"/>
     <use xlink:href="#DejaVuSans-31" x="29.492188"/>
    </g>
    <!-- O1 -->
    <g transform="translate(410.878073 329.151724) scale(0.06 -0.06)">
     <use xlink:href="#DejaVuSans-4f"/>
     <use xlink:href="#DejaVuSans-31" x="78.710938"/>
    </g>
   </g>
   <g id="text_39">
    <!-- P1 -->
    <g transform="translate(302.633907 694.117241) scale(0.06 -0.06)">
     <use xlink:href="#DejaVuSans-50"/>
     <use xlink:href="#DejaVuSans-31" x="60.302734"/>
    </g>
   </g>
   <g id="text_40">
    <!-- P2 -->
    <g transform="translate(295.594067 472.128142) scale(0.06 -0.06)">
     <use xlink:href="#DejaVuSans-50"/>
     <use xlink:href="#DejaVuSans-32" x="60.302734"/>
    </g>
    <!-- J3 -->
    <g transform="translate(295.594067 478.84683) scale(0.06 -0.06)">
     <use xlink:href="#DejaVuSans-4a"/>
     <use xlink:href="#DejaVuSans-33" x="29.492188"/>
    </g>
    <!-- O1 -->
    <g transform="translate(295.594067 485.565517) scale(0.06 -0.06)">
     <use xlink:href="#DejaVuSans-4f"/>
     <use xlink:href="#DejaVuSans-31" x="78.710938"/>
    </g>
   </g>
   <g id="text_41">
    <!-- P6 -->
    <g transform="translate(463.174032 211.438487) scale(0.06 -0.06)">
     <use xlink:href="#DejaVuSans-50"/>
     <use xlink:href="#DejaVuSans-36" x="60.302734"/>
    </g>
    <!-- J1 -->
    <g transform="translate(463.174032 218.157175) scale(0.06 -0.06)">
     <use xlink:href="#DejaVuSans-4a"/>
     <use xlink:href="#DejaVuSans-31" x="29.492188"/>
    </g>
    <!-- O2 -->
    <g transform="translate(463.174032 224.875862) scale(0.06 -0.06)">
     <use xlink:href="#DejaVuSans-4f"/>
     <use xlink:href="#DejaVuSans-32" x="78.710938"/>
    </g>
   </g>
   <g id="text_42">
    <!-- P3 -->
    <g transform="translate(366.468853 472.128142) scale(0.06 -0.06)">
     <use xlink:href="#DejaVuSans-50"/>
     <use xlink:href="#DejaVuSans-33" x="60.302734"/>
    </g>
    <!-- J3 -->
    <g transform="translate(366.468853 478.84683) scale(0.06 -0.06)">
     <use xlink:href="#DejaVuSans-4a"/>
     <use xlink:href="#DejaVuSans-33" x="29.492188"/>
    </g>
    <!-- O1 -->
    <g transform="translate(366.468853 485.565517) scale(0.06 -0.06)">
     <use xlink:href="#DejaVuSans-4f"/>
     <use xlink:href="#DejaVuSans-31" x="78.710938"/>
    </g>
   </g>
   <g id="text_43">
    <!-- P2 -->
    <g transform="translate(364.722126 367.85228) scale(0.06 -0.06)">
     <use xlink:href="#DejaVuSans-50"/>
     <use xlink:href="#DejaVuSans-32" x="60.302734"/>
    </g>
    <!-- J3 -->
    <g transform="translate(364.722126 374.570968) scale(0.06 -0.06)">
     <use xlink:href="#DejaVuSans-4a"/>
     <use xlink:href="#DejaVuSans-33" x="29.492188"/>
    </g>
    <!-- O2 -->
    <g transform="translate(364.722126 381.289655) scale(0.06 -0.06)">
     <use xlink:href="#DejaVuSans-4f"/>
     <use xlink:href="#DejaVuSans-32" x="78.710938"/>
    </g>
   </g>
   <g id="text_44">
    <!-- P1 -->
    <g transform="translate(631.547965 315.714349) scale(0.06 -0.06)">
     <use xlink:href="#DejaVuSans-50"/>
     <use xlink:href="#DejaVuSans-31" x="60.302734"/>
    </g>
    <!-- J2 -->
    <g transform="translate(631.547965 322.433037) scale(0.06 -0.06)">
     <use xlink:href="#DejaVuSans-4a"/>
     <use xlink:href="#DejaVuSans-32" x="29.492188"/>
    </g>
    <!-- O1 -->
    <g transform="translate(631.547965 329.151724) scale(0.06 -0.06)">
     <use xlink:href="#DejaVuSans-4f"/>
     <use xlink:href="#DejaVuSans-31" x="78.710938"/>
    </g>
   </g>
   <g id="text_45">
    <!-- P6 -->
    <g transform="translate(409.237208 211.438487) scale(0.06 -0.06)">
     <use xlink:href="#DejaVuSans-50"/>
     <use xlink:href="#DejaVuSans-36" x="60.302734"/>
    </g>
    <!-- J3 -->
    <g transform="translate(409.237208 218.157175) scale(0.06 -0.06)">
     <use xlink:href="#DejaVuSans-4a"/>
     <use xlink:href="#DejaVuSans-33" x="29.492188"/>
    </g>
    <!-- O2 -->
    <g transform="translate(409.237208 224.875862) scale(0.06 -0.06)">
     <use xlink:href="#DejaVuSans-4f"/>
     <use xlink:href="#DejaVuSans-32" x="78.710938"/>
    </g>
   </g>
   <g id="text_46">
    <!-- P1 -->
    <g transform="translate(681.620817 263.576418) scale(0.06 -0.06)">
     <use xlink:href="#DejaVuSans-50"/>
     <use xlink:href="#DejaVuSans-31" x="60.302734"/>
    </g>
    <!-- J2 -->
    <g transform="translate(681.620817 270.295106) scale(0.06 -0.06)">
     <use xlink:href="#DejaVuSans-4a"/>
     <use xlink:href="#DejaVuSans-32" x="29.492188"/>
    </g>
    <!-- O2 -->
    <g transform="translate(681.620817 277.013793) scale(0.06 -0.06)">
     <use xlink:href="#DejaVuSans-4f"/>
     <use xlink:href="#DejaVuSans-32" x="78.710938"/>
    </g>
   </g>
   <g id="text_47">
    <!-- P5 -->
    <g transform="translate(633.347624 576.404004) scale(0.06 -0.06)">
     <use xlink:href="#DejaVuSans-50"/>
     <use xlink:href="#DejaVuSans-35" x="60.302734"/>
    </g>
    <!-- J2 -->
    <g transform="translate(633.347624 583.122692) scale(0.06 -0.06)">
     <use xlink:href="#DejaVuSans-4a"/>
     <use xlink:href="#DejaVuSans-32" x="29.492188"/>
    </g>
    <!-- O2 -->
    <g transform="translate(633.347624 589.841379) scale(0.06 -0.06)">
     <use xlink:href="#DejaVuSans-4f"/>
     <use xlink:href="#DejaVuSans-32" x="78.710938"/>
    </g>
   </g>
   <g id="text_48">
    <!-- P6 -->
    <g transform="translate(412.836525 367.85228) scale(0.06 -0.06)">
     <use xlink:href="#DejaVuSans-50"/>
     <use xlink:href="#DejaVuSans-36" x="60.302734"/>
    </g>
    <!-- J2 -->
    <g transform="translate(412.836525 374.570968) scale(0.06 -0.06)">
     <use xlink:href="#DejaVuSans-4a"/>
     <use xlink:href="#DejaVuSans-32" x="29.492188"/>
    </g>
    <!-- O1 -->
    <g transform="translate(412.836525 381.289655) scale(0.06 -0.06)">
     <use xlink:href="#DejaVuSans-4f"/>
     <use xlink:href="#DejaVuSans-31" x="78.710938"/>
    </g>
   </g>
   <g id="text_49">
    <!-- P5 -->
    <g transform="translate(736.404539 576.404004) scale(0.06 -0.06)">
     <use xlink:href="#DejaVuSans-50"/>
     <use xlink:href="#DejaVuSans-35" x="60.302734"/>
    </g>
    <!-- J1 -->
    <g transform="translate(736.404539 583.122692) scale(0.06 -0.06)">
     <use xlink:href="#DejaVuSans-4a"/>
     <use xlink:href="#DejaVuSans-31" x="29.492188"/>
    </g>
    <!-- O2 -->
    <g transform="translate(736.404539 589.841379) scale(0.06 -0.06)">
     <use xlink:href="#DejaVuSans-4f"/>
     <use xlink:href="#DejaVuSans-32" x="78.710938"/>
    </g>
   </g>
   <g id="text_50">
    <!-- P2 -->
    <g transform="translate(294.958893 524.266073) scale(0.06 -0.06)">
     <use xlink:href="#DejaVuSans-50"/>
     <use xlink:href="#DejaVuSans-32" x="60.302734"/>
    </g>
    <!-- J1 -->
    <g transform="translate(294.958893 530.984761) scale(0.06 -0.06)">
     <use xlink:href="#DejaVuSans-4a"/>
     <use xlink:href="#DejaVuSans-31" x="29.492188"/>
    </g>
    <!-- O1 -->
    <g transform="translate(294.958893 537.703448) scale(0.06 -0.06)">
     <use xlink:href="#DejaVuSans-4f"/>
     <use xlink:href="#DejaVuSans-31" x="78.710938"/>
    </g>
   </g>
   <g id="text_51">
    <!-- P1 -->
    <g transform="translate(757.153543 263.576418) scale(0.06 -0.06)">
     <use xlink:href="#DejaVuSans-50"/>
     <use xlink:href="#DejaVuSans-31" x="60.302734"/>
    </g>
    <!-- J2 -->
    <g transform="translate(757.153543 270.295106) scale(0.06 -0.06)">
     <use xlink:href="#DejaVuSans-4a"/>
     <use xlink:href="#DejaVuSans-32" x="29.492188"/>
    </g>
    <!-- O3 -->
    <g transform="translate(757.153543 277.013793) scale(0.06 -0.06)">
     <use xlink:href="#DejaVuSans-4f"/>
     <use xlink:href="#DejaVuSans-33" x="78.710938"/>
    </g>
   </g>
   <g id="text_52">
    <!-- P3 -->
    <g transform="translate(629.9071 524.266073) scale(0.06 -0.06)">
     <use xlink:href="#DejaVuSans-50"/>
     <use xlink:href="#DejaVuSans-33" x="60.302734"/>
    </g>
    <!-- J3 -->
    <g transform="translate(629.9071 530.984761) scale(0.06 -0.06)">
     <use xlink:href="#DejaVuSans-4a"/>
     <use xlink:href="#DejaVuSans-33" x="29.492188"/>
    </g>
    <!-- O2 -->
    <g transform="translate(629.9071 537.703448) scale(0.06 -0.06)">
     <use xlink:href="#DejaVuSans-4f"/>
     <use xlink:href="#DejaVuSans-32" x="78.710938"/>
    </g>
   </g>
   <g id="text_53">
    <!-- P5 -->
    <g transform="translate(833.956616 576.404004) scale(0.06 -0.06)">
     <use xlink:href="#DejaVuSans-50"/>
     <use xlink:href="#DejaVuSans-35" x="60.302734"/>
    </g>
    <!-- J1 -->
    <g transform="translate(833.956616 583.122692) scale(0.06 -0.06)">
     <use xlink:href="#DejaVuSans-4a"/>
     <use xlink:href="#DejaVuSans-31" x="29.492188"/>
    </g>
    <!-- O3 -->
    <g transform="translate(833.956616 589.841379) scale(0.06 -0.06)">
     <use xlink:href="#DejaVuSans-4f"/>
     <use xlink:href="#DejaVuSans-33" x="78.710938"/>
    </g>
   </g>
   <g id="text_54">
    <!-- P5 -->
    <g transform="translate(859.045973 263.576418) scale(0.06 -0.06)">
     <use xlink:href="#DejaVuSans-50"/>
     <use xlink:href="#DejaVuSans-35" x="60.302734"/>
    </g>
    <!-- J3 -->
    <g transform="translate(859.045973 270.295106) scale(0.06 -0.06)">
     <use xlink:href="#DejaVuSans-4a"/>
     <use xlink:href="#DejaVuSans-33" x="29.492188"/>
    </g>
    <!-- O2 -->
    <g transform="translate(859.045973 277.013793) scale(0.06 -0.06)">
     <use xlink:href="#DejaVuSans-4f"/>
     <use xlink:href="#DejaVuSans-32" x="78.710938"/>
    </g>
   </g>
   <g id="text_55">
    <!-- P2 -->
    <g transform="translate(295.594067 367.85228) scale(0.06 -0.06)">
     <use xlink:href="#DejaVuSans-50"/>
     <use xlink:href="#DejaVuSans-32" x="60.302734"/>
    </g>
    <!-- J2 -->
    <g transform="translate(295.594067 374.570968) scale(0.06 -0.06)">
     <use xlink:href="#DejaVuSans-4a"/>
     <use xlink:href="#DejaVuSans-32" x="29.492188"/>
    </g>
    <!-- O1 -->
    <g transform="translate(295.594067 381.289655) scale(0.06 -0.06)">
     <use xlink:href="#DejaVuSans-4f"/>
     <use xlink:href="#DejaVuSans-31" x="78.710938"/>
    </g>
   </g>
   <g id="text_56">
    <!-- P5 -->
    <g transform="translate(967.660657 472.128142) scale(0.06 -0.06)">
     <use xlink:href="#DejaVuSans-50"/>
     <use xlink:href="#DejaVuSans-35" x="60.302734"/>
    </g>
    <!-- J3 -->
    <g transform="translate(967.660657 478.84683) scale(0.06 -0.06)">
     <use xlink:href="#DejaVuSans-4a"/>
     <use xlink:href="#DejaVuSans-33" x="29.492188"/>
    </g>
    <!-- O3 -->
    <g transform="translate(967.660657 485.565517) scale(0.06 -0.06)">
     <use xlink:href="#DejaVuSans-4f"/>
     <use xlink:href="#DejaVuSans-33" x="78.710938"/>
    </g>
   </g>
   <g id="text_57">
    <!-- P3 -->
    <g transform="translate(410.931005 263.576418) scale(0.06 -0.06)">
     <use xlink:href="#DejaVuSans-50"/>
     <use xlink:href="#DejaVuSans-33" x="60.302734"/>
    </g>
    <!-- J1 -->
    <g transform="translate(410.931005 270.295106) scale(0.06 -0.06)">
     <use xlink:href="#DejaVuSans-4a"/>
     <use xlink:href="#DejaVuSans-31" x="29.492188"/>
    </g>
    <!-- O1 -->
    <g transform="translate(410.931005 277.013793) scale(0.06 -0.06)">
     <use xlink:href="#DejaVuSans-4f"/>
     <use xlink:href="#DejaVuSans-31" x="78.710938"/>
    </g>
   </g>
   <g id="text_58">
    <!-- P1 -->
    <g transform="translate(858.728386 367.85228) scale(0.06 -0.06)">
     <use xlink:href="#DejaVuSans-50"/>
     <use xlink:href="#DejaVuSans-31" x="60.302734"/>
    </g>
    <!-- J2 -->
    <g transform="translate(858.728386 374.570968) scale(0.06 -0.06)">
     <use xlink:href="#DejaVuSans-4a"/>
     <use xlink:href="#DejaVuSans-32" x="29.492188"/>
    </g>
    <!-- O4 -->
    <g transform="translate(858.728386 381.289655) scale(0.06 -0.06)">
     <use xlink:href="#DejaVuSans-4f"/>
     <use xlink:href="#DejaVuSans-34" x="78.710938"/>
    </g>
   </g>
   <g id="text_59">
    <!-- P4 -->
    <g transform="translate(582.163219 694.117241) scale(0.06 -0.06)">
     <use xlink:href="#DejaVuSans-50"/>
     <use xlink:href="#DejaVuSans-34" x="60.302734"/>
    </g>
   </g>
   <g id="text_60">
    <!-- P2 -->
    <g transform="translate(557.497311 211.438487) scale(0.06 -0.06)">
     <use xlink:href="#DejaVuSans-50"/>
     <use xlink:href="#DejaVuSans-32" x="60.302734"/>
    </g>
    <!-- J3 -->
    <g transform="translate(557.497311 218.157175) scale(0.06 -0.06)">
     <use xlink:href="#DejaVuSans-4a"/>
     <use xlink:href="#DejaVuSans-33" x="29.492188"/>
    </g>
    <!-- O3 -->
    <g transform="translate(557.497311 224.875862) scale(0.06 -0.06)">
     <use xlink:href="#DejaVuSans-4f"/>
     <use xlink:href="#DejaVuSans-33" x="78.710938"/>
    </g>
   </g>
   <g id="text_61">
    <!-- P6 -->
    <g transform="translate(906.57813 576.404004) scale(0.06 -0.06)">
     <use xlink:href="#DejaVuSans-50"/>
     <use xlink:href="#DejaVuSans-36" x="60.302734"/>
    </g>
    <!-- J2 -->
    <g transform="translate(906.57813 583.122692) scale(0.06 -0.06)">
     <use xlink:href="#DejaVuSans-4a"/>
     <use xlink:href="#DejaVuSans-32" x="29.492188"/>
    </g>
    <!-- O2 -->
    <g transform="translate(906.57813 589.841379) scale(0.06 -0.06)">
     <use xlink:href="#DejaVuSans-4f"/>
     <use xlink:href="#DejaVuSans-32" x="78.710938"/>
    </g>
   </g>
   <g id="text_62">
    <!-- P3 -->
    <g transform="translate(510.229809 472.128142) scale(0.06 -0.06)">
     <use xlink:href="#DejaVuSans-50"/>
     <use xlink:href="#DejaVuSans-33" x="60.302734"/>
    </g>
    <!-- J1 -->
    <g transform="translate(510.229809 478.84683) scale(0.06 -0.06)">
     <use xlink:href="#DejaVuSans-4a"/>
     <use xlink:href="#DejaVuSans-31" x="29.492188"/>
    </g>
    <!-- O2 -->
    <g transform="translate(510.229809 485.565517) scale(0.06 -0.06)">
     <use xlink:href="#DejaVuSans-4f"/>
     <use xlink:href="#DejaVuSans-32" x="78.710938"/>
    </g>
   </g>
   <g id="text_63">
    <!-- P4 -->
    <g transform="translate(811.249161 472.128142) scale(0.06 -0.06)">
     <use xlink:href="#DejaVuSans-50"/>
     <use xlink:href="#DejaVuSans-34" x="60.302734"/>
    </g>
    <!-- J2 -->
    <g transform="translate(811.249161 478.84683) scale(0.06 -0.06)">
     <use xlink:href="#DejaVuSans-4a"/>
     <use xlink:href="#DejaVuSans-32" x="29.492188"/>
    </g>
    <!-- O1 -->
    <g transform="translate(811.249161 485.565517) scale(0.06 -0.06)">
     <use xlink:href="#DejaVuSans-4f"/>
     <use xlink:href="#DejaVuSans-31" x="78.710938"/>
    </g>
   </g>
   <g id="text_64">
    <!-- P2 -->
    <g transform="translate(625.619678 211.438487) scale(0.06 -0.06)">
     <use xlink:href="#DejaVuSans-50"/>
     <use xlink:href="#DejaVuSans-32" x="60.302734"/>
    </g>
    <!-- J2 -->
    <g transform="translate(625.619678 218.157175) scale(0.06 -0.06)">
     <use xlink:href="#DejaVuSans-4a"/>
     <use xlink:href="#DejaVuSans-32" x="29.492188"/>
    </g>
    <!-- O2 -->
    <g transform="translate(625.619678 224.875862) scale(0.06 -0.06)">
     <use xlink:href="#DejaVuSans-4f"/>
     <use xlink:href="#DejaVuSans-32" x="78.710938"/>
    </g>
   </g>
   <g id="text_65">
    <!-- P4 -->
    <g transform="translate(811.302092 211.438487) scale(0.06 -0.06)">
     <use xlink:href="#DejaVuSans-50"/>
     <use xlink:href="#DejaVuSans-34" x="60.302734"/>
    </g>
    <!-- J1 -->
    <g transform="translate(811.302092 218.157175) scale(0.06 -0.06)">
     <use xlink:href="#DejaVuSans-4a"/>
     <use xlink:href="#DejaVuSans-31" x="29.492188"/>
    </g>
    <!-- O1 -->
    <g transform="translate(811.302092 224.875862) scale(0.06 -0.06)">
     <use xlink:href="#DejaVuSans-4f"/>
     <use xlink:href="#DejaVuSans-31" x="78.710938"/>
    </g>
   </g>
   <g id="text_66">
    <!-- P1 -->
    <g transform="translate(576.287863 419.990211) scale(0.06 -0.06)">
     <use xlink:href="#DejaVuSans-50"/>
     <use xlink:href="#DejaVuSans-31" x="60.302734"/>
    </g>
    <!-- J3 -->
    <g transform="translate(576.287863 426.708899) scale(0.06 -0.06)">
     <use xlink:href="#DejaVuSans-4a"/>
     <use xlink:href="#DejaVuSans-33" x="29.492188"/>
    </g>
    <!-- O1 -->
    <g transform="translate(576.287863 433.427586) scale(0.06 -0.06)">
     <use xlink:href="#DejaVuSans-4f"/>
     <use xlink:href="#DejaVuSans-31" x="78.710938"/>
    </g>
   </g>
   <g id="text_67">
    <!-- P2 -->
    <g transform="translate(724.547965 524.266073) scale(0.06 -0.06)">
     <use xlink:href="#DejaVuSans-50"/>
     <use xlink:href="#DejaVuSans-32" x="60.302734"/>
    </g>
    <!-- J1 -->
    <g transform="translate(724.547965 530.984761) scale(0.06 -0.06)">
     <use xlink:href="#DejaVuSans-4a"/>
     <use xlink:href="#DejaVuSans-31" x="29.492188"/>
    </g>
    <!-- O2 -->
    <g transform="translate(724.547965 537.703448) scale(0.06 -0.06)">
     <use xlink:href="#DejaVuSans-4f"/>
     <use xlink:href="#DejaVuSans-32" x="78.710938"/>
    </g>
   </g>
   <g id="text_68">
    <!-- P5 -->
    <g transform="translate(1012.969707 576.404004) scale(0.06 -0.06)">
     <use xlink:href="#DejaVuSans-50"/>
     <use xlink:href="#DejaVuSans-35" x="60.302734"/>
    </g>
    <!-- J2 -->
    <g transform="translate(1012.969707 583.122692) scale(0.06 -0.06)">
     <use xlink:href="#DejaVuSans-4a"/>
     <use xlink:href="#DejaVuSans-32" x="29.492188"/>
    </g>
    <!-- O3 -->
    <g transform="translate(1012.969707 589.841379) scale(0.06 -0.06)">
     <use xlink:href="#DejaVuSans-4f"/>
     <use xlink:href="#DejaVuSans-33" x="78.710938"/>
    </g>
   </g>
   <g id="text_69">
    <!-- P5 -->
    <g transform="translate(1117.667487 576.404004) scale(0.06 -0.06)">
     <use xlink:href="#DejaVuSans-50"/>
     <use xlink:href="#DejaVuSans-35" x="60.302734"/>
    </g>
    <!-- J2 -->
    <g transform="translate(1117.667487 583.122692) scale(0.06 -0.06)">
     <use xlink:href="#DejaVuSans-4a"/>
     <use xlink:href="#DejaVuSans-32" x="29.492188"/>
    </g>
    <!-- O4 -->
    <g transform="translate(1117.667487 589.841379) scale(0.06 -0.06)">
     <use xlink:href="#DejaVuSans-4f"/>
     <use xlink:href="#DejaVuSans-34" x="78.710938"/>
    </g>
   </g>
   <g id="text_70">
    <!-- P1 -->
    <g transform="translate(968.084106 263.576418) scale(0.06 -0.06)">
     <use xlink:href="#DejaVuSans-50"/>
     <use xlink:href="#DejaVuSans-31" x="60.302734"/>
    </g>
    <!-- J3 -->
    <g transform="translate(968.084106 270.295106) scale(0.06 -0.06)">
     <use xlink:href="#DejaVuSans-4a"/>
     <use xlink:href="#DejaVuSans-33" x="29.492188"/>
    </g>
    <!-- O2 -->
    <g transform="translate(968.084106 277.013793) scale(0.06 -0.06)">
     <use xlink:href="#DejaVuSans-4f"/>
     <use xlink:href="#DejaVuSans-32" x="78.710938"/>
    </g>
   </g>
   <g id="text_71">
    <!-- P3 -->
    <g transform="translate(733.546258 68.462069) scale(0.06 -0.06)">
     <use xlink:href="#DejaVuSans-50"/>
     <use xlink:href="#DejaVuSans-33" x="60.302734"/>
    </g>
   </g>
   <g id="text_72">
    <!-- P6 -->
    <g transform="translate(1061.454624 263.576418) scale(0.06 -0.06)">
     <use xlink:href="#DejaVuSans-50"/>
     <use xlink:href="#DejaVuSans-36" x="60.302734"/>
    </g>
    <!-- J2 -->
    <g transform="translate(1061.454624 270.295106) scale(0.06 -0.06)">
     <use xlink:href="#DejaVuSans-4a"/>
     <use xlink:href="#DejaVuSans-32" x="29.492188"/>
    </g>
    <!-- O3 -->
    <g transform="translate(1061.454624 277.013793) scale(0.06 -0.06)">
     <use xlink:href="#DejaVuSans-4f"/>
     <use xlink:href="#DejaVuSans-33" x="78.710938"/>
    </g>
   </g>
   <g id="text_73">
    <!-- P4 -->
    <g transform="translate(1173.033452 576.404004) scale(0.06 -0.06)">
     <use xlink:href="#DejaVuSans-50"/>
     <use xlink:href="#DejaVuSans-34" x="60.302734"/>
    </g>
    <!-- J2 -->
    <g transform="translate(1173.033452 583.122692) scale(0.06 -0.06)">
     <use xlink:href="#DejaVuSans-4a"/>
     <use xlink:href="#DejaVuSans-32" x="29.492188"/>
    </g>
    <!-- O2 -->
    <g transform="translate(1173.033452 589.841379) scale(0.06 -0.06)">
     <use xlink:href="#DejaVuSans-4f"/>
     <use xlink:href="#DejaVuSans-32" x="78.710938"/>
    </g>
   </g>
   <g id="text_74">
    <!-- P4 -->
    <g transform="translate(811.407954 315.714349) scale(0.06 -0.06)">
     <use xlink:href="#DejaVuSans-50"/>
     <use xlink:href="#DejaVuSans-34" x="60.302734"/>
    </g>
    <!-- J3 -->
    <g transform="translate(811.407954 322.433037) scale(0.06 -0.06)">
     <use xlink:href="#DejaVuSans-4a"/>
     <use xlink:href="#DejaVuSans-33" x="29.492188"/>
    </g>
    <!-- O1 -->
    <g transform="translate(811.407954 329.151724) scale(0.06 -0.06)">
     <use xlink:href="#DejaVuSans-4f"/>
     <use xlink:href="#DejaVuSans-31" x="78.710938"/>
    </g>
   </g>
   <g id="text_75">
    <!-- P2 -->
    <g transform="translate(681.356161 315.714349) scale(0.06 -0.06)">
     <use xlink:href="#DejaVuSans-50"/>
     <use xlink:href="#DejaVuSans-32" x="60.302734"/>
    </g>
    <!-- J3 -->
    <g transform="translate(681.356161 322.433037) scale(0.06 -0.06)">
     <use xlink:href="#DejaVuSans-4a"/>
     <use xlink:href="#DejaVuSans-33" x="29.492188"/>
    </g>
    <!-- O4 -->
    <g transform="translate(681.356161 329.151724) scale(0.06 -0.06)">
     <use xlink:href="#DejaVuSans-4f"/>
     <use xlink:href="#DejaVuSans-34" x="78.710938"/>
    </g>
   </g>
   <g id="text_76">
    <!-- P5 -->
    <g transform="translate(1182.825711 120.6) scale(0.06 -0.06)">
     <use xlink:href="#DejaVuSans-50"/>
     <use xlink:href="#DejaVuSans-35" x="60.302734"/>
    </g>
   </g>
   <g id="text_77">
    <!-- P4 -->
    <g transform="translate(1049.492188 472.128142) scale(0.06 -0.06)">
     <use xlink:href="#DejaVuSans-50"/>
     <use xlink:href="#DejaVuSans-34" x="60.302734"/>
    </g>
    <!-- J1 -->
    <g transform="translate(1049.492188 478.84683) scale(0.06 -0.06)">
     <use xlink:href="#DejaVuSans-4a"/>
     <use xlink:href="#DejaVuSans-31" x="29.492188"/>
    </g>
    <!-- O2 -->
    <g transform="translate(1049.492188 485.565517) scale(0.06 -0.06)">
     <use xlink:href="#DejaVuSans-4f"/>
     <use xlink:href="#DejaVuSans-32" x="78.710938"/>
    </g>
   </g>
   <g id="text_78">
    <!-- P4 -->
    <g transform="translate(1154.295831 524.266073) scale(0.06 -0.06)">
     <use xlink:href="#DejaVuSans-50"/>
     <use xlink:href="#DejaVuSans-34" x="60.302734"/>
    </g>
    <!-- J1 -->
    <g transform="translate(1154.295831 530.984761) scale(0.06 -0.06)">
     <use xlink:href="#DejaVuSans-4a"/>
     <use xlink:href="#DejaVuSans-31" x="29.492188"/>
    </g>
    <!-- O3 -->
    <g transform="translate(1154.295831 537.703448) scale(0.06 -0.06)">
     <use xlink:href="#DejaVuSans-4f"/>
     <use xlink:href="#DejaVuSans-33" x="78.710938"/>
    </g>
   </g>
   <g id="text_79">
    <!-- P4 -->
    <g transform="translate(1213.102319 263.576418) scale(0.06 -0.06)">
     <use xlink:href="#DejaVuSans-50"/>
     <use xlink:href="#DejaVuSans-34" x="60.302734"/>
    </g>
    <!-- J1 -->
    <g transform="translate(1213.102319 270.295106) scale(0.06 -0.06)">
     <use xlink:href="#DejaVuSans-4a"/>
     <use xlink:href="#DejaVuSans-31" x="29.492188"/>
    </g>
    <!-- O4 -->
    <g transform="translate(1213.102319 277.013793) scale(0.06 -0.06)">
     <use xlink:href="#DejaVuSans-4f"/>
     <use xlink:href="#DejaVuSans-34" x="78.710938"/>
    </g>
   </g>
   <g id="text_80">
    <!-- P6 -->
    <g transform="translate(1525.819451 120.6) scale(0.06 -0.06)">
     <use xlink:href="#DejaVuSans-50"/>
     <use xlink:href="#DejaVuSans-36" x="60.302734"/>
    </g>
   </g>
   <g id="text_81">
    <!-- P4 -->
    <g transform="translate(1223.000441 211.438487) scale(0.06 -0.06)">
     <use xlink:href="#DejaVuSans-50"/>
     <use xlink:href="#DejaVuSans-34" x="60.302734"/>
    </g>
    <!-- J2 -->
    <g transform="translate(1223.000441 218.157175) scale(0.06 -0.06)">
     <use xlink:href="#DejaVuSans-4a"/>
     <use xlink:href="#DejaVuSans-32" x="29.492188"/>
    </g>
    <!-- O3 -->
    <g transform="translate(1223.000441 224.875862) scale(0.06 -0.06)">
     <use xlink:href="#DejaVuSans-4f"/>
     <use xlink:href="#DejaVuSans-33" x="78.710938"/>
    </g>
   </g>
   <g id="text_82">
    <!-- P2 -->
    <g transform="translate(1155.883765 472.128142) scale(0.06 -0.06)">
     <use xlink:href="#DejaVuSans-50"/>
     <use xlink:href="#DejaVuSans-32" x="60.302734"/>
    </g>
    <!-- J1 -->
    <g transform="translate(1155.883765 478.84683) scale(0.06 -0.06)">
     <use xlink:href="#DejaVuSans-4a"/>
     <use xlink:href="#DejaVuSans-31" x="29.492188"/>
    </g>
    <!-- O3 -->
    <g transform="translate(1155.883765 485.565517) scale(0.06 -0.06)">
     <use xlink:href="#DejaVuSans-4f"/>
     <use xlink:href="#DejaVuSans-33" x="78.710938"/>
    </g>
   </g>
   <g id="text_83">
    <!-- P2 -->
    <g transform="translate(1261.322581 524.266073) scale(0.06 -0.06)">
     <use xlink:href="#DejaVuSans-50"/>
     <use xlink:href="#DejaVuSans-32" x="60.302734"/>
    </g>
    <!-- J1 -->
    <g transform="translate(1261.322581 530.984761) scale(0.06 -0.06)">
     <use xlink:href="#DejaVuSans-4a"/>
     <use xlink:href="#DejaVuSans-31" x="29.492188"/>
    </g>
    <!-- O4 -->
    <g transform="translate(1261.322581 537.703448) scale(0.06 -0.06)">
     <use xlink:href="#DejaVuSans-4f"/>
     <use xlink:href="#DejaVuSans-34" x="78.710938"/>
    </g>
   </g>
   <g id="text_84">
    <!-- P4 -->
    <g transform="translate(1295.463162 315.714349) scale(0.06 -0.06)">
     <use xlink:href="#DejaVuSans-50"/>
     <use xlink:href="#DejaVuSans-34" x="60.302734"/>
    </g>
    <!-- J2 -->
    <g transform="translate(1295.463162 322.433037) scale(0.06 -0.06)">
     <use xlink:href="#DejaVuSans-4a"/>
     <use xlink:href="#DejaVuSans-32" x="29.492188"/>
    </g>
    <!-- O4 -->
    <g transform="translate(1295.463162 329.151724) scale(0.06 -0.06)">
     <use xlink:href="#DejaVuSans-4f"/>
     <use xlink:href="#DejaVuSans-34" x="78.710938"/>
    </g>
   </g>
   <g id="text_85">
    <!-- P2 -->
    <g transform="translate(799.868967 524.266073) scale(0.06 -0.06)">
     <use xlink:href="#DejaVuSans-50"/>
     <use xlink:href="#DejaVuSans-32" x="60.302734"/>
    </g>
    <!-- J3 -->
    <g transform="translate(799.868967 530.984761) scale(0.06 -0.06)">
     <use xlink:href="#DejaVuSans-4a"/>
     <use xlink:href="#DejaVuSans-33" x="29.492188"/>
    </g>
    <!-- O5 -->
    <g transform="translate(799.868967 537.703448) scale(0.06 -0.06)">
     <use xlink:href="#DejaVuSans-4f"/>
     <use xlink:href="#DejaVuSans-35" x="78.710938"/>
    </g>
   </g>
   <g id="text_86">
    <!-- P4 -->
    <g transform="translate(957.603742 367.85228) scale(0.06 -0.06)">
     <use xlink:href="#DejaVuSans-50"/>
     <use xlink:href="#DejaVuSans-34" x="60.302734"/>
    </g>
    <!-- J3 -->
    <g transform="translate(957.603742 374.570968) scale(0.06 -0.06)">
     <use xlink:href="#DejaVuSans-4a"/>
     <use xlink:href="#DejaVuSans-33" x="29.492188"/>
    </g>
    <!-- O2 -->
    <g transform="translate(957.603742 381.289655) scale(0.06 -0.06)">
     <use xlink:href="#DejaVuSans-4f"/>
     <use xlink:href="#DejaVuSans-32" x="78.710938"/>
    </g>
   </g>
   <g id="text_87">
    <!-- P1 -->
    <g transform="translate(634.882627 419.990211) scale(0.06 -0.06)">
     <use xlink:href="#DejaVuSans-50"/>
     <use xlink:href="#DejaVuSans-31" x="60.302734"/>
    </g>
    <!-- J1 -->
    <g transform="translate(634.882627 426.708899) scale(0.06 -0.06)">
     <use xlink:href="#DejaVuSans-4a"/>
     <use xlink:href="#DejaVuSans-31" x="29.492188"/>
    </g>
    <!-- O1 -->
    <g transform="translate(634.882627 433.427586) scale(0.06 -0.06)">
     <use xlink:href="#DejaVuSans-4f"/>
     <use xlink:href="#DejaVuSans-31" x="78.710938"/>
    </g>
   </g>
   <g id="text_88">
    <!-- P2 -->
    <g transform="translate(1347.388603 68.462069) scale(0.06 -0.06)">
     <use xlink:href="#DejaVuSans-50"/>
     <use xlink:href="#DejaVuSans-32" x="60.302734"/>
    </g>
   </g>
   <g id="text_89">
    <!-- P1 -->
    <g transform="translate(1144.874089 263.576418) scale(0.06 -0.06)">
     <use xlink:href="#DejaVuSans-50"/>
     <use xlink:href="#DejaVuSans-31" x="60.302734"/>
    </g>
    <!-- J1 -->
    <g transform="translate(1144.874089 270.295106) scale(0.06 -0.06)">
     <use xlink:href="#DejaVuSans-4a"/>
     <use xlink:href="#DejaVuSans-31" x="29.492188"/>
    </g>
    <!-- O2 -->
    <g transform="translate(1144.874089 277.013793) scale(0.06 -0.06)">
     <use xlink:href="#DejaVuSans-4f"/>
     <use xlink:href="#DejaVuSans-32" x="78.710938"/>
    </g>
   </g>
   <g id="text_90">
    <!-- P4 -->
    <g transform="translate(1023.291278 315.714349) scale(0.06 -0.06)">
     <use xlink:href="#DejaVuSans-50"/>
     <use xlink:href="#DejaVuSans-34" x="60.302734"/>
    </g>
    <!-- J3 -->
    <g transform="translate(1023.291278 322.433037) scale(0.06 -0.06)">
     <use xlink:href="#DejaVuSans-4a"/>
     <use xlink:href="#DejaVuSans-33" x="29.492188"/>
    </g>
    <!-- O3 -->
    <g transform="translate(1023.291278 329.151724) scale(0.06 -0.06)">
     <use xlink:href="#DejaVuSans-4f"/>
     <use xlink:href="#DejaVuSans-33" x="78.710938"/>
    </g>
   </g>
   <g id="text_91">
    <!-- P1 -->
    <g transform="translate(1293.769365 211.438487) scale(0.06 -0.06)">
     <use xlink:href="#DejaVuSans-50"/>
     <use xlink:href="#DejaVuSans-31" x="60.302734"/>
    </g>
    <!-- J1 -->
    <g transform="translate(1293.769365 218.157175) scale(0.06 -0.06)">
     <use xlink:href="#DejaVuSans-4a"/>
     <use xlink:href="#DejaVuSans-31" x="29.492188"/>
    </g>
    <!-- O3 -->
    <g transform="translate(1293.769365 224.875862) scale(0.06 -0.06)">
     <use xlink:href="#DejaVuSans-4f"/>
     <use xlink:href="#DejaVuSans-33" x="78.710938"/>
    </g>
   </g>
   <g id="text_92">
    <!-- P4 -->
    <g transform="translate(1868.230948 120.6) scale(0.06 -0.06)">
     <use xlink:href="#DejaVuSans-50"/>
     <use xlink:href="#DejaVuSans-34" x="60.302734"/>
    </g>
   </g>
   <g id="text_93">
    <!-- P1 -->
    <g transform="translate(1344.530322 419.990211) scale(0.06 -0.06)">
     <use xlink:href="#DejaVuSans-50"/>
     <use xlink:href="#DejaVuSans-31" x="60.302734"/>
    </g>
    <!-- J1 -->
    <g transform="translate(1344.530322 426.708899) scale(0.06 -0.06)">
     <use xlink:href="#DejaVuSans-4a"/>
     <use xlink:href="#DejaVuSans-31" x="29.492188"/>
    </g>
    <!-- O4 -->
    <g transform="translate(1344.530322 433.427586) scale(0.06 -0.06)">
     <use xlink:href="#DejaVuSans-4f"/>
     <use xlink:href="#DejaVuSans-34" x="78.710938"/>
    </g>
   </g>
   <g id="text_94">
    <!-- P1 -->
    <g transform="translate(2191.693099 120.6) scale(0.06 -0.06)">
     <use xlink:href="#DejaVuSans-50"/>
     <use xlink:href="#DejaVuSans-31" x="60.302734"/>
    </g>
   </g>
  </g>
 </g>
 <defs>
  <clipPath id="pe1b0cd909b">
   <rect x="55.075" y="7.2" width="2511" height="831.6"/>
  </clipPath>
 </defs>
</svg>
