<?xml version="1.0" encoding="utf-8" standalone="no"?>
<!DOCTYPE svg PUBLIC "-//W3C//DTD SVG 1.1//EN"
  "http://www.w3.org/Graphics/SVG/1.1/DTD/svg11.dtd">
<svg xmlns:xlink="http://www.w3.org/1999/xlink" width="3410.275pt" height="892.040625pt" viewBox="0 0 3410.275 892.040625" xmlns="http://www.w3.org/2000/svg" version="1.1">
 <metadata>
  <rdf:RDF xmlns:dc="http://purl.org/dc/elements/1.1/" xmlns:cc="http://creativecommons.org/ns#" xmlns:rdf="http://www.w3.org/1999/02/22-rdf-syntax-ns#">
   <cc:Work>
    <dc:type rdf:resource="http://purl.org/dc/dcmitype/StillImage"/>
    <dc:date>2025-01-15T01:55:55.849791</dc:date>
    <dc:format>image/svg+xml</dc:format>
    <dc:creator>
     <cc:Agent>
      <dc:title>Matplotlib v3.7.5, https://matplotlib.org/</dc:title>
     </cc:Agent>
    </dc:creator>
   </cc:Work>
  </rdf:RDF>
 </metadata>
 <defs>
  <style type="text/css">*{stroke-linejoin: round; stroke-linecap: butt}</style>
 </defs>
 <g id="figure_1">
  <g id="patch_1">
   <path d="M 0 892.040625 
L 3410.275 892.040625 
L 3410.275 0 
L 0 0 
z
" style="fill: #ffffff"/>
  </g>
  <g id="axes_1">
   <g id="patch_2">
    <path d="M 55.075 838.8 
L 3403.075 838.8 
L 3403.075 7.2 
L 55.075 7.2 
z
" style="fill: #ffffff"/>
   </g>
   <g id="patch_3">
    <path d="M 55.075 740.52 
L 429.029595 740.52 
L 429.029595 710.28 
L 55.075 710.28 
z
" clip-path="url(#p9e3e0d06c6)" style="fill: #45f73a"/>
   </g>
   <g id="patch_4">
    <path d="M 429.029595 256.68 
L 552.943544 256.68 
L 552.943544 226.44 
L 429.029595 226.44 
z
" clip-path="url(#p9e3e0d06c6)" style="fill: #45f73a"/>
   </g>
   <g id="patch_5">
    <path d="M 552.943544 619.56 
L 694.559485 619.56 
L 694.559485 589.32 
L 552.943544 589.32 
z
" clip-path="url(#p9e3e0d06c6)" style="fill: #45f73a"/>
   </g>
   <g id="patch_6">
    <path d="M 429.029595 619.56 
L 544.092547 619.56 
L 544.092547 589.32 
L 429.029595 589.32 
z
" clip-path="url(#p9e3e0d06c6)" style="fill: #45f73a"/>
   </g>
   <g id="patch_7">
    <path d="M 429.029595 740.52 
L 811.835186 740.52 
L 811.835186 710.28 
L 429.029595 710.28 
z
" clip-path="url(#p9e3e0d06c6)" style="fill: #b5ce17"/>
   </g>
   <g id="patch_8">
    <path d="M 429.029595 377.64 
L 513.11406 377.64 
L 513.11406 347.4 
L 429.029595 347.4 
z
" clip-path="url(#p9e3e0d06c6)" style="fill: #45f73a"/>
   </g>
   <g id="patch_9">
    <path d="M 55.075 801 
L 415.753101 801 
L 415.753101 770.76 
L 55.075 770.76 
z
" clip-path="url(#p9e3e0d06c6)" style="fill: #ed7154"/>
   </g>
   <g id="patch_10">
    <path d="M 415.753101 801 
L 811.835186 801 
L 811.835186 770.76 
L 415.753101 770.76 
z
" clip-path="url(#p9e3e0d06c6)" style="fill: #651a79"/>
   </g>
   <g id="patch_11">
    <path d="M 811.835186 498.6 
L 933.536386 498.6 
L 933.536386 468.36 
L 811.835186 468.36 
z
" clip-path="url(#p9e3e0d06c6)" style="fill: #651a79"/>
   </g>
   <g id="patch_12">
    <path d="M 415.753101 438.12 
L 519.752307 438.12 
L 519.752307 407.88 
L 415.753101 407.88 
z
" clip-path="url(#p9e3e0d06c6)" style="fill: #ed7154"/>
   </g>
   <g id="patch_13">
    <path d="M 811.835186 559.08 
L 942.387382 559.08 
L 942.387382 528.84 
L 811.835186 528.84 
z
" clip-path="url(#p9e3e0d06c6)" style="fill: #b5ce17"/>
   </g>
   <g id="patch_14">
    <path d="M 811.835186 680.04 
L 937.961884 680.04 
L 937.961884 649.8 
L 811.835186 649.8 
z
" clip-path="url(#p9e3e0d06c6)" style="fill: #651a79"/>
   </g>
   <g id="patch_15">
    <path d="M 937.961884 680.04 
L 1024.259098 680.04 
L 1024.259098 649.8 
L 937.961884 649.8 
z
" clip-path="url(#p9e3e0d06c6)" style="fill: #b5ce17"/>
   </g>
   <g id="patch_16">
    <path d="M 933.536386 438.12 
L 1048.599338 438.12 
L 1048.599338 407.88 
L 933.536386 407.88 
z
" clip-path="url(#p9e3e0d06c6)" style="fill: #651a79"/>
   </g>
   <g id="patch_17">
    <path d="M 1024.259098 317.16 
L 1101.705316 317.16 
L 1101.705316 286.92 
L 1024.259098 286.92 
z
" clip-path="url(#p9e3e0d06c6)" style="fill: #b5ce17"/>
   </g>
   <g id="patch_18">
    <path d="M 811.835186 801 
L 1130.471054 801 
L 1130.471054 770.76 
L 811.835186 770.76 
z
" clip-path="url(#p9e3e0d06c6)" style="fill: #68a257"/>
   </g>
   <g id="patch_19">
    <path d="M 1130.471054 377.64 
L 1252.172254 377.64 
L 1252.172254 347.4 
L 1130.471054 347.4 
z
" clip-path="url(#p9e3e0d06c6)" style="fill: #68a257"/>
   </g>
   <g id="patch_20">
    <path d="M 811.835186 438.12 
L 920.259891 438.12 
L 920.259891 407.88 
L 811.835186 407.88 
z
" clip-path="url(#p9e3e0d06c6)" style="fill: #651a79"/>
   </g>
   <g id="patch_21">
    <path d="M 415.753101 559.08 
L 502.050315 559.08 
L 502.050315 528.84 
L 415.753101 528.84 
z
" clip-path="url(#p9e3e0d06c6)" style="fill: #ed7154"/>
   </g>
   <g id="patch_22">
    <path d="M 1130.471054 438.12 
L 1236.68301 438.12 
L 1236.68301 407.88 
L 1130.471054 407.88 
z
" clip-path="url(#p9e3e0d06c6)" style="fill: #68a257"/>
   </g>
   <g id="patch_23">
    <path d="M 811.835186 740.52 
L 1199.066276 740.52 
L 1199.066276 710.28 
L 811.835186 710.28 
z
" clip-path="url(#p9e3e0d06c6)" style="fill: #c8d456"/>
   </g>
   <g id="patch_24">
    <path d="M 1199.066276 256.68 
L 1349.533214 256.68 
L 1349.533214 226.44 
L 1199.066276 226.44 
z
" clip-path="url(#p9e3e0d06c6)" style="fill: #c8d456"/>
   </g>
   <g id="patch_25">
    <path d="M 937.961884 317.16 
L 1022.046349 317.16 
L 1022.046349 286.92 
L 937.961884 286.92 
z
" clip-path="url(#p9e3e0d06c6)" style="fill: #651a79"/>
   </g>
   <g id="patch_26">
    <path d="M 415.753101 317.16 
L 544.092547 317.16 
L 544.092547 286.92 
L 415.753101 286.92 
z
" clip-path="url(#p9e3e0d06c6)" style="fill: #ed7154"/>
   </g>
   <g id="patch_27">
    <path d="M 1199.066276 740.52 
L 1548.680631 740.52 
L 1548.680631 710.28 
L 1199.066276 710.28 
z
" clip-path="url(#p9e3e0d06c6)" style="fill: #52ecaf"/>
   </g>
   <g id="patch_28">
    <path d="M 1130.471054 801 
L 1524.340391 801 
L 1524.340391 770.76 
L 1130.471054 770.76 
z
" clip-path="url(#p9e3e0d06c6)" style="fill: #7ab1fd"/>
   </g>
   <g id="patch_29">
    <path d="M 1548.680631 377.64 
L 1661.530834 377.64 
L 1661.530834 347.4 
L 1548.680631 347.4 
z
" clip-path="url(#p9e3e0d06c6)" style="fill: #52ecaf"/>
   </g>
   <g id="patch_30">
    <path d="M 519.752307 438.12 
L 670.219245 438.12 
L 670.219245 407.88 
L 519.752307 407.88 
z
" clip-path="url(#p9e3e0d06c6)" style="fill: #ed7154"/>
   </g>
   <g id="patch_31">
    <path d="M 519.752307 559.08 
L 659.1555 559.08 
L 659.1555 528.84 
L 519.752307 528.84 
z
" clip-path="url(#p9e3e0d06c6)" style="fill: #ed7154"/>
   </g>
   <g id="patch_32">
    <path d="M 1101.705316 317.16 
L 1170.300538 317.16 
L 1170.300538 286.92 
L 1101.705316 286.92 
z
" clip-path="url(#p9e3e0d06c6)" style="fill: #651a79"/>
   </g>
   <g id="patch_33">
    <path d="M 1524.340391 256.68 
L 1654.892587 256.68 
L 1654.892587 226.44 
L 1524.340391 226.44 
z
" clip-path="url(#p9e3e0d06c6)" style="fill: #7ab1fd"/>
   </g>
   <g id="patch_34">
    <path d="M 1661.530834 377.64 
L 1745.615299 377.64 
L 1745.615299 347.4 
L 1661.530834 347.4 
z
" clip-path="url(#p9e3e0d06c6)" style="fill: #7ab1fd"/>
   </g>
   <g id="patch_35">
    <path d="M 1048.599338 498.6 
L 1145.960298 498.6 
L 1145.960298 468.36 
L 1048.599338 468.36 
z
" clip-path="url(#p9e3e0d06c6)" style="fill: #651a79"/>
   </g>
   <g id="patch_36">
    <path d="M 1745.615299 377.64 
L 1814.210521 377.64 
L 1814.210521 347.4 
L 1745.615299 347.4 
z
" clip-path="url(#p9e3e0d06c6)" style="fill: #7ab1fd"/>
   </g>
   <g id="patch_37">
    <path d="M 544.092547 680.04 
L 665.793747 680.04 
L 665.793747 649.8 
L 544.092547 649.8 
z
" clip-path="url(#p9e3e0d06c6)" style="fill: #ed7154"/>
   </g>
   <g id="patch_38">
    <path d="M 1654.892587 256.68 
L 1736.764303 256.68 
L 1736.764303 226.44 
L 1654.892587 226.44 
z
" clip-path="url(#p9e3e0d06c6)" style="fill: #7ab1fd"/>
   </g>
   <g id="patch_39">
    <path d="M 1349.533214 438.12 
L 1442.468675 438.12 
L 1442.468675 407.88 
L 1349.533214 407.88 
z
" clip-path="url(#p9e3e0d06c6)" style="fill: #c8d456"/>
   </g>
   <g id="patch_40">
    <path d="M 1349.533214 256.68 
L 1433.617679 256.68 
L 1433.617679 226.44 
L 1349.533214 226.44 
z
" clip-path="url(#p9e3e0d06c6)" style="fill: #68a257"/>
   </g>
   <g id="patch_41">
    <path d="M 552.943544 256.68 
L 696.772234 256.68 
L 696.772234 226.44 
L 552.943544 226.44 
z
" clip-path="url(#p9e3e0d06c6)" style="fill: #45f73a"/>
   </g>
   <g id="patch_42">
    <path d="M 1024.259098 680.04 
L 1170.300538 680.04 
L 1170.300538 649.8 
L 1024.259098 649.8 
z
" clip-path="url(#p9e3e0d06c6)" style="fill: #b5ce17"/>
   </g>
   <g id="patch_43">
    <path d="M 1548.680631 438.12 
L 1643.828842 438.12 
L 1643.828842 407.88 
L 1548.680631 407.88 
z
" clip-path="url(#p9e3e0d06c6)" style="fill: #52ecaf"/>
   </g>
   <g id="patch_44">
    <path d="M 670.219245 498.6 
L 743.239965 498.6 
L 743.239965 468.36 
L 670.219245 468.36 
z
" clip-path="url(#p9e3e0d06c6)" style="fill: #ed7154"/>
   </g>
   <g id="patch_45">
    <path d="M 1814.210521 377.64 
L 1904.933233 377.64 
L 1904.933233 347.4 
L 1814.210521 347.4 
z
" clip-path="url(#p9e3e0d06c6)" style="fill: #52ecaf"/>
   </g>
   <g id="patch_46">
    <path d="M 1199.066276 317.16 
L 1345.107715 317.16 
L 1345.107715 286.92 
L 1199.066276 286.92 
z
" clip-path="url(#p9e3e0d06c6)" style="fill: #c8d456"/>
   </g>
   <g id="patch_47">
    <path d="M 811.835186 256.68 
L 957.876626 256.68 
L 957.876626 226.44 
L 811.835186 226.44 
z
" clip-path="url(#p9e3e0d06c6)" style="fill: #b5ce17"/>
   </g>
   <g id="patch_48">
    <path d="M 1442.468675 498.6 
L 1557.531627 498.6 
L 1557.531627 468.36 
L 1442.468675 468.36 
z
" clip-path="url(#p9e3e0d06c6)" style="fill: #c8d456"/>
   </g>
   <g id="patch_49">
    <path d="M 1345.107715 317.16 
L 1438.043177 317.16 
L 1438.043177 286.92 
L 1345.107715 286.92 
z
" clip-path="url(#p9e3e0d06c6)" style="fill: #b5ce17"/>
   </g>
   <g id="patch_50">
    <path d="M 1904.933233 438.12 
L 2031.059931 438.12 
L 2031.059931 407.88 
L 1904.933233 407.88 
z
" clip-path="url(#p9e3e0d06c6)" style="fill: #52ecaf"/>
   </g>
   <g id="patch_51">
    <path d="M 1170.300538 680.04 
L 1276.512494 680.04 
L 1276.512494 649.8 
L 1170.300538 649.8 
z
" clip-path="url(#p9e3e0d06c6)" style="fill: #651a79"/>
   </g>
   <g id="patch_52">
    <path d="M 544.092547 317.16 
L 681.28299 317.16 
L 681.28299 286.92 
L 544.092547 286.92 
z
" clip-path="url(#p9e3e0d06c6)" style="fill: #45f73a"/>
   </g>
   <g id="patch_53">
    <path d="M 1904.933233 377.64 
L 1975.741204 377.64 
L 1975.741204 347.4 
L 1904.933233 347.4 
z
" clip-path="url(#p9e3e0d06c6)" style="fill: #52ecaf"/>
   </g>
   <g id="patch_54">
    <path d="M 1524.340391 619.56 
L 1652.679838 619.56 
L 1652.679838 589.32 
L 1524.340391 589.32 
z
" clip-path="url(#p9e3e0d06c6)" style="fill: #7ab1fd"/>
   </g>
   <g id="patch_55">
    <path d="M 670.219245 438.12 
L 745.452714 438.12 
L 745.452714 407.88 
L 670.219245 407.88 
z
" clip-path="url(#p9e3e0d06c6)" style="fill: #ed7154"/>
   </g>
   <g id="patch_56">
    <path d="M 1975.741204 256.68 
L 2099.655153 256.68 
L 2099.655153 226.44 
L 1975.741204 226.44 
z
" clip-path="url(#p9e3e0d06c6)" style="fill: #52ecaf"/>
   </g>
   <g id="patch_57">
    <path d="M 1652.679838 559.08 
L 1792.08303 559.08 
L 1792.08303 528.84 
L 1652.679838 528.84 
z
" clip-path="url(#p9e3e0d06c6)" style="fill: #7ab1fd"/>
   </g>
   <g id="patch_58">
    <path d="M 2031.059931 438.12 
L 2099.655153 438.12 
L 2099.655153 407.88 
L 2031.059931 407.88 
z
" clip-path="url(#p9e3e0d06c6)" style="fill: #52ecaf"/>
   </g>
   <g id="patch_59">
    <path d="M 1345.107715 377.64 
L 1431.40493 377.64 
L 1431.40493 347.4 
L 1345.107715 347.4 
z
" clip-path="url(#p9e3e0d06c6)" style="fill: #c8d456"/>
   </g>
   <g id="patch_60">
    <path d="M 1276.512494 619.56 
L 1409.277439 619.56 
L 1409.277439 589.32 
L 1276.512494 589.32 
z
" clip-path="url(#p9e3e0d06c6)" style="fill: #651a79"/>
   </g>
   <g id="patch_61">
    <path d="M 1145.960298 498.6 
L 1269.874247 498.6 
L 1269.874247 468.36 
L 1145.960298 468.36 
z
" clip-path="url(#p9e3e0d06c6)" style="fill: #ed7154"/>
   </g>
   <g id="patch_62">
    <path d="M 2099.655153 680.04 
L 2197.016112 680.04 
L 2197.016112 649.8 
L 2099.655153 649.8 
z
" clip-path="url(#p9e3e0d06c6)" style="fill: #52ecaf"/>
   </g>
   <g id="patch_63">
    <path d="M 1431.40493 377.64 
L 1544.255133 377.64 
L 1544.255133 347.4 
L 1431.40493 347.4 
z
" clip-path="url(#p9e3e0d06c6)" style="fill: #c8d456"/>
   </g>
   <g id="patch_64">
    <path d="M 1652.679838 619.56 
L 1774.381037 619.56 
L 1774.381037 589.32 
L 1652.679838 589.32 
z
" clip-path="url(#p9e3e0d06c6)" style="fill: #68a257"/>
   </g>
   <g id="patch_65">
    <path d="M 1643.828842 438.12 
L 1765.530041 438.12 
L 1765.530041 407.88 
L 1643.828842 407.88 
z
" clip-path="url(#p9e3e0d06c6)" style="fill: #ed7154"/>
   </g>
   <g id="patch_66">
    <path d="M 1433.617679 256.68 
L 1511.063897 256.68 
L 1511.063897 226.44 
L 1433.617679 226.44 
z
" clip-path="url(#p9e3e0d06c6)" style="fill: #b5ce17"/>
   </g>
   <g id="patch_67">
    <path d="M 1814.210521 680.04 
L 1964.677459 680.04 
L 1964.677459 649.8 
L 1814.210521 649.8 
z
" clip-path="url(#p9e3e0d06c6)" style="fill: #7ab1fd"/>
   </g>
   <g id="patch_68">
    <path d="M 696.772234 75.24 
L 1101.705316 75.24 
L 1101.705316 45 
L 696.772234 45 
z
" clip-path="url(#p9e3e0d06c6)" style="fill: #45f73a"/>
   </g>
   <g id="patch_69">
    <path d="M 1409.277439 619.56 
L 1515.489395 619.56 
L 1515.489395 589.32 
L 1409.277439 589.32 
z
" clip-path="url(#p9e3e0d06c6)" style="fill: #c8d456"/>
   </g>
   <g id="patch_70">
    <path d="M 1964.677459 680.04 
L 2099.655153 680.04 
L 2099.655153 649.8 
L 1964.677459 649.8 
z
" clip-path="url(#p9e3e0d06c6)" style="fill: #7ab1fd"/>
   </g>
   <g id="patch_71">
    <path d="M 1736.764303 256.68 
L 1823.061517 256.68 
L 1823.061517 226.44 
L 1736.764303 226.44 
z
" clip-path="url(#p9e3e0d06c6)" style="fill: #68a257"/>
   </g>
   <g id="patch_72">
    <path d="M 1252.172254 377.64 
L 1345.107715 377.64 
L 1345.107715 347.4 
L 1252.172254 347.4 
z
" clip-path="url(#p9e3e0d06c6)" style="fill: #68a257"/>
   </g>
   <g id="patch_73">
    <path d="M 1557.531627 498.6 
L 1685.871074 498.6 
L 1685.871074 468.36 
L 1557.531627 468.36 
z
" clip-path="url(#p9e3e0d06c6)" style="fill: #c8d456"/>
   </g>
   <g id="patch_74">
    <path d="M 1774.381037 498.6 
L 1878.380244 498.6 
L 1878.380244 468.36 
L 1774.381037 468.36 
z
" clip-path="url(#p9e3e0d06c6)" style="fill: #68a257"/>
   </g>
   <g id="patch_75">
    <path d="M 1269.874247 498.6 
L 1340.682217 498.6 
L 1340.682217 468.36 
L 1269.874247 468.36 
z
" clip-path="url(#p9e3e0d06c6)" style="fill: #651a79"/>
   </g>
   <g id="patch_76">
    <path d="M 1438.043177 317.16 
L 1586.297365 317.16 
L 1586.297365 286.92 
L 1438.043177 286.92 
z
" clip-path="url(#p9e3e0d06c6)" style="fill: #b5ce17"/>
   </g>
   <g id="patch_77">
    <path d="M 1823.061517 619.56 
L 1966.890208 619.56 
L 1966.890208 589.32 
L 1823.061517 589.32 
z
" clip-path="url(#p9e3e0d06c6)" style="fill: #68a257"/>
   </g>
   <g id="patch_78">
    <path d="M 1643.828842 317.16 
L 1787.657532 317.16 
L 1787.657532 286.92 
L 1643.828842 286.92 
z
" clip-path="url(#p9e3e0d06c6)" style="fill: #52ecaf"/>
   </g>
   <g id="patch_79">
    <path d="M 1975.741204 377.64 
L 2057.61292 377.64 
L 2057.61292 347.4 
L 1975.741204 347.4 
z
" clip-path="url(#p9e3e0d06c6)" style="fill: #c8d456"/>
   </g>
   <g id="patch_80">
    <path d="M 1409.277439 196.2 
L 1772.168288 196.2 
L 1772.168288 165.96 
L 1409.277439 165.96 
z
" clip-path="url(#p9e3e0d06c6)" style="fill: #651a79"/>
   </g>
   <g id="patch_81">
    <path d="M 2057.61292 135.72 
L 2389.525283 135.72 
L 2389.525283 105.48 
L 2057.61292 105.48 
z
" clip-path="url(#p9e3e0d06c6)" style="fill: #c8d456"/>
   </g>
   <g id="patch_82">
    <path d="M 2389.525283 135.72 
L 2759.054379 135.72 
L 2759.054379 105.48 
L 2389.525283 105.48 
z
" clip-path="url(#p9e3e0d06c6)" style="fill: #68a257"/>
   </g>
   <g id="patch_83">
    <path d="M 2197.016112 680.04 
L 2296.589821 680.04 
L 2296.589821 649.8 
L 2197.016112 649.8 
z
" clip-path="url(#p9e3e0d06c6)" style="fill: #52ecaf"/>
   </g>
   <g id="patch_84">
    <path d="M 1966.890208 619.56 
L 2117.357145 619.56 
L 2117.357145 589.32 
L 1966.890208 589.32 
z
" clip-path="url(#p9e3e0d06c6)" style="fill: #b5ce17"/>
   </g>
   <g id="patch_85">
    <path d="M 2296.589821 619.56 
L 2416.078272 619.56 
L 2416.078272 589.32 
L 2296.589821 589.32 
z
" clip-path="url(#p9e3e0d06c6)" style="fill: #52ecaf"/>
   </g>
   <g id="patch_86">
    <path d="M 2117.357145 196.2 
L 2482.460744 196.2 
L 2482.460744 165.96 
L 2117.357145 165.96 
z
" clip-path="url(#p9e3e0d06c6)" style="fill: #b5ce17"/>
   </g>
   <g id="patch_87">
    <path d="M 1792.08303 317.16 
L 1889.44399 317.16 
L 1889.44399 286.92 
L 1792.08303 286.92 
z
" clip-path="url(#p9e3e0d06c6)" style="fill: #7ab1fd"/>
   </g>
   <g id="patch_88">
    <path d="M 1889.44399 559.08 
L 2019.996186 559.08 
L 2019.996186 528.84 
L 1889.44399 528.84 
z
" clip-path="url(#p9e3e0d06c6)" style="fill: #7ab1fd"/>
   </g>
   <g id="patch_89">
    <path d="M 2416.078272 75.24 
L 2836.500597 75.24 
L 2836.500597 45 
L 2416.078272 45 
z
" clip-path="url(#p9e3e0d06c6)" style="fill: #52ecaf"/>
   </g>
   <g id="patch_90">
    <path d="M 2019.996186 498.6 
L 2099.655153 498.6 
L 2099.655153 468.36 
L 2019.996186 468.36 
z
" clip-path="url(#p9e3e0d06c6)" style="fill: #7ab1fd"/>
   </g>
   <g id="patch_91">
    <path d="M 2482.460744 196.2 
L 2953.776299 196.2 
L 2953.776299 165.96 
L 2482.460744 165.96 
z
" clip-path="url(#p9e3e0d06c6)" style="fill: #ed7154"/>
   </g>
   <g id="patch_92">
    <path d="M 2759.054379 135.72 
L 3243.646429 135.72 
L 3243.646429 105.48 
L 2759.054379 105.48 
z
" clip-path="url(#p9e3e0d06c6)" style="fill: #7ab1fd"/>
   </g>
   <g id="matplotlib.axis_1">
    <g id="xtick_1">
     <g id="line2d_1">
      <defs>
       <path id="m5133a2a088" d="M 0 0 
L 0 3.5 
" style="stroke: #000000; stroke-width: 0.8"/>
      </defs>
      <g>
       <use xlink:href="#m5133a2a088" x="55.075" y="838.8" style="stroke: #000000; stroke-width: 0.8"/>
      </g>
     </g>
     <g id="text_1">
      <!-- 0 -->
      <g transform="translate(50.075 859.6875) scale(0.2 -0.2)">
       <defs>
        <path id="TimesNewRomanPSMT-30" d="M 231 2094 
Q 231 2819 450 3342 
Q 669 3866 1031 4122 
Q 1313 4325 1613 4325 
Q 2100 4325 2488 3828 
Q 2972 3213 2972 2159 
Q 2972 1422 2759 906 
Q 2547 391 2217 158 
Q 1888 -75 1581 -75 
Q 975 -75 572 641 
Q 231 1244 231 2094 
z
M 844 2016 
Q 844 1141 1059 588 
Q 1238 122 1591 122 
Q 1759 122 1940 273 
Q 2122 425 2216 781 
Q 2359 1319 2359 2297 
Q 2359 3022 2209 3506 
Q 2097 3866 1919 4016 
Q 1791 4119 1609 4119 
Q 1397 4119 1231 3928 
Q 1006 3669 925 3112 
Q 844 2556 844 2016 
z
" transform="scale(0.015625)"/>
       </defs>
       <use xlink:href="#TimesNewRomanPSMT-30"/>
      </g>
     </g>
    </g>
    <g id="xtick_2">
     <g id="line2d_2">
      <g>
       <use xlink:href="#m5133a2a088" x="497.624817" y="838.8" style="stroke: #000000; stroke-width: 0.8"/>
      </g>
     </g>
     <g id="text_2">
      <!-- 200 -->
      <g transform="translate(482.624817 859.6875) scale(0.2 -0.2)">
       <defs>
        <path id="TimesNewRomanPSMT-32" d="M 2934 816 
L 2638 0 
L 138 0 
L 138 116 
Q 1241 1122 1691 1759 
Q 2141 2397 2141 2925 
Q 2141 3328 1894 3587 
Q 1647 3847 1303 3847 
Q 991 3847 742 3664 
Q 494 3481 375 3128 
L 259 3128 
Q 338 3706 661 4015 
Q 984 4325 1469 4325 
Q 1984 4325 2329 3994 
Q 2675 3663 2675 3213 
Q 2675 2891 2525 2569 
Q 2294 2063 1775 1497 
Q 997 647 803 472 
L 1909 472 
Q 2247 472 2383 497 
Q 2519 522 2628 598 
Q 2738 675 2819 816 
L 2934 816 
z
" transform="scale(0.015625)"/>
       </defs>
       <use xlink:href="#TimesNewRomanPSMT-32"/>
       <use xlink:href="#TimesNewRomanPSMT-30" x="50"/>
       <use xlink:href="#TimesNewRomanPSMT-30" x="100"/>
      </g>
     </g>
    </g>
    <g id="xtick_3">
     <g id="line2d_3">
      <g>
       <use xlink:href="#m5133a2a088" x="940.174633" y="838.8" style="stroke: #000000; stroke-width: 0.8"/>
      </g>
     </g>
     <g id="text_3">
      <!-- 400 -->
      <g transform="translate(925.174633 859.6875) scale(0.2 -0.2)">
       <defs>
        <path id="TimesNewRomanPSMT-34" d="M 2978 1563 
L 2978 1119 
L 2409 1119 
L 2409 0 
L 1894 0 
L 1894 1119 
L 100 1119 
L 100 1519 
L 2066 4325 
L 2409 4325 
L 2409 1563 
L 2978 1563 
z
M 1894 1563 
L 1894 3666 
L 406 1563 
L 1894 1563 
z
" transform="scale(0.015625)"/>
       </defs>
       <use xlink:href="#TimesNewRomanPSMT-34"/>
       <use xlink:href="#TimesNewRomanPSMT-30" x="50"/>
       <use xlink:href="#TimesNewRomanPSMT-30" x="100"/>
      </g>
     </g>
    </g>
    <g id="xtick_4">
     <g id="line2d_4">
      <g>
       <use xlink:href="#m5133a2a088" x="1382.72445" y="838.8" style="stroke: #000000; stroke-width: 0.8"/>
      </g>
     </g>
     <g id="text_4">
      <!-- 600 -->
      <g transform="translate(1367.72445 859.6875) scale(0.2 -0.2)">
       <defs>
        <path id="TimesNewRomanPSMT-36" d="M 2869 4325 
L 2869 4209 
Q 2456 4169 2195 4045 
Q 1934 3922 1679 3669 
Q 1425 3416 1258 3105 
Q 1091 2794 978 2366 
Q 1428 2675 1881 2675 
Q 2316 2675 2634 2325 
Q 2953 1975 2953 1425 
Q 2953 894 2631 456 
Q 2244 -75 1606 -75 
Q 1172 -75 869 213 
Q 275 772 275 1663 
Q 275 2231 503 2743 
Q 731 3256 1154 3653 
Q 1578 4050 1965 4187 
Q 2353 4325 2688 4325 
L 2869 4325 
z
M 925 2138 
Q 869 1716 869 1456 
Q 869 1156 980 804 
Q 1091 453 1309 247 
Q 1469 100 1697 100 
Q 1969 100 2183 356 
Q 2397 613 2397 1088 
Q 2397 1622 2184 2012 
Q 1972 2403 1581 2403 
Q 1463 2403 1327 2353 
Q 1191 2303 925 2138 
z
" transform="scale(0.015625)"/>
       </defs>
       <use xlink:href="#TimesNewRomanPSMT-36"/>
       <use xlink:href="#TimesNewRomanPSMT-30" x="50"/>
       <use xlink:href="#TimesNewRomanPSMT-30" x="100"/>
      </g>
     </g>
    </g>
    <g id="xtick_5">
     <g id="line2d_5">
      <g>
       <use xlink:href="#m5133a2a088" x="1825.274266" y="838.8" style="stroke: #000000; stroke-width: 0.8"/>
      </g>
     </g>
     <g id="text_5">
      <!-- 800 -->
      <g transform="translate(1810.274266 859.6875) scale(0.2 -0.2)">
       <defs>
        <path id="TimesNewRomanPSMT-38" d="M 1228 2134 
Q 725 2547 579 2797 
Q 434 3047 434 3316 
Q 434 3728 753 4026 
Q 1072 4325 1600 4325 
Q 2113 4325 2425 4047 
Q 2738 3769 2738 3413 
Q 2738 3175 2569 2928 
Q 2400 2681 1866 2347 
Q 2416 1922 2594 1678 
Q 2831 1359 2831 1006 
Q 2831 559 2490 242 
Q 2150 -75 1597 -75 
Q 994 -75 656 303 
Q 388 606 388 966 
Q 388 1247 577 1523 
Q 766 1800 1228 2134 
z
M 1719 2469 
Q 2094 2806 2194 3001 
Q 2294 3197 2294 3444 
Q 2294 3772 2109 3958 
Q 1925 4144 1606 4144 
Q 1288 4144 1088 3959 
Q 888 3775 888 3528 
Q 888 3366 970 3203 
Q 1053 3041 1206 2894 
L 1719 2469 
z
M 1375 2016 
Q 1116 1797 991 1539 
Q 866 1281 866 981 
Q 866 578 1086 336 
Q 1306 94 1647 94 
Q 1984 94 2187 284 
Q 2391 475 2391 747 
Q 2391 972 2272 1150 
Q 2050 1481 1375 2016 
z
" transform="scale(0.015625)"/>
       </defs>
       <use xlink:href="#TimesNewRomanPSMT-38"/>
       <use xlink:href="#TimesNewRomanPSMT-30" x="50"/>
       <use xlink:href="#TimesNewRomanPSMT-30" x="100"/>
      </g>
     </g>
    </g>
    <g id="xtick_6">
     <g id="line2d_6">
      <g>
       <use xlink:href="#m5133a2a088" x="2267.824083" y="838.8" style="stroke: #000000; stroke-width: 0.8"/>
      </g>
     </g>
     <g id="text_6">
      <!-- 1000 -->
      <g transform="translate(2247.824083 859.6875) scale(0.2 -0.2)">
       <defs>
        <path id="TimesNewRomanPSMT-31" d="M 750 3822 
L 1781 4325 
L 1884 4325 
L 1884 747 
Q 1884 391 1914 303 
Q 1944 216 2037 169 
Q 2131 122 2419 116 
L 2419 0 
L 825 0 
L 825 116 
Q 1125 122 1212 167 
Q 1300 213 1334 289 
Q 1369 366 1369 747 
L 1369 3034 
Q 1369 3497 1338 3628 
Q 1316 3728 1258 3775 
Q 1200 3822 1119 3822 
Q 1003 3822 797 3725 
L 750 3822 
z
" transform="scale(0.015625)"/>
       </defs>
       <use xlink:href="#TimesNewRomanPSMT-31"/>
       <use xlink:href="#TimesNewRomanPSMT-30" x="50"/>
       <use xlink:href="#TimesNewRomanPSMT-30" x="100"/>
       <use xlink:href="#TimesNewRomanPSMT-30" x="150"/>
      </g>
     </g>
    </g>
    <g id="xtick_7">
     <g id="line2d_7">
      <g>
       <use xlink:href="#m5133a2a088" x="2710.3739" y="838.8" style="stroke: #000000; stroke-width: 0.8"/>
      </g>
     </g>
     <g id="text_7">
      <!-- 1200 -->
      <g transform="translate(2690.3739 859.6875) scale(0.2 -0.2)">
       <use xlink:href="#TimesNewRomanPSMT-31"/>
       <use xlink:href="#TimesNewRomanPSMT-32" x="50"/>
       <use xlink:href="#TimesNewRomanPSMT-30" x="100"/>
       <use xlink:href="#TimesNewRomanPSMT-30" x="150"/>
      </g>
     </g>
    </g>
    <g id="xtick_8">
     <g id="line2d_8">
      <g>
       <use xlink:href="#m5133a2a088" x="3152.923716" y="838.8" style="stroke: #000000; stroke-width: 0.8"/>
      </g>
     </g>
     <g id="text_8">
      <!-- 1400 -->
      <g transform="translate(3132.923716 859.6875) scale(0.2 -0.2)">
       <use xlink:href="#TimesNewRomanPSMT-31"/>
       <use xlink:href="#TimesNewRomanPSMT-34" x="50"/>
       <use xlink:href="#TimesNewRomanPSMT-30" x="100"/>
       <use xlink:href="#TimesNewRomanPSMT-30" x="150"/>
      </g>
     </g>
    </g>
    <g id="text_9">
     <!-- Makespan -->
     <g transform="translate(1689.075 882.2625) scale(0.2 -0.2)">
      <defs>
       <path id="SimSun-4d" d="M 2800 450 
Q 2800 350 2862 300 
Q 2925 250 3025 250 
L 3125 250 
L 3125 100 
L 2050 100 
L 2050 250 
L 2175 250 
Q 2300 250 2350 300 
Q 2400 350 2400 450 
L 2400 3725 
L 2350 3725 
L 1500 100 
L 1350 100 
L 575 3650 
L 525 3650 
L 525 450 
Q 525 350 587 300 
Q 650 250 750 250 
L 825 250 
L 825 100 
L 75 100 
L 75 250 
L 150 250 
Q 275 250 325 300 
Q 375 350 375 450 
L 375 4025 
Q 375 4125 325 4175 
Q 275 4225 150 4225 
L 50 4225 
L 50 4375 
L 775 4375 
L 1500 1025 
L 1550 1025 
L 2325 4375 
L 3125 4375 
L 3125 4225 
L 3025 4225 
Q 2925 4225 2862 4175 
Q 2800 4125 2800 4025 
L 2800 450 
z
" transform="scale(0.015625)"/>
       <path id="SimSun-61" d="M 1225 75 
Q 775 75 525 287 
Q 275 500 275 775 
Q 275 1225 662 1512 
Q 1050 1800 2200 1925 
L 2200 2225 
Q 2200 2475 2087 2637 
Q 1975 2800 1575 2800 
Q 1150 2800 975 2662 
Q 800 2525 850 2375 
Q 875 2325 875 2275 
Q 875 2225 837 2150 
Q 800 2075 650 2075 
Q 550 2075 487 2137 
Q 425 2200 425 2325 
Q 425 2550 750 2750 
Q 1075 2950 1550 2950 
Q 2050 2950 2300 2762 
Q 2550 2575 2550 2225 
L 2550 575 
Q 2550 375 2587 337 
Q 2625 300 2725 300 
Q 2850 300 2900 412 
Q 2950 525 2950 725 
L 3075 725 
Q 3075 375 2950 237 
Q 2825 100 2625 100 
Q 2450 100 2350 175 
Q 2250 250 2200 425 
Q 1950 250 1737 162 
Q 1525 75 1225 75 
z
M 700 850 
Q 700 625 837 437 
Q 975 250 1275 250 
Q 1500 250 1725 337 
Q 1950 425 2200 600 
L 2200 1775 
Q 1350 1675 1025 1437 
Q 700 1200 700 850 
z
" transform="scale(0.015625)"/>
       <path id="SimSun-6b" d="M 1675 1900 
L 2625 425 
Q 2700 325 2762 287 
Q 2825 250 2900 250 
L 3000 250 
L 3000 100 
L 1975 100 
L 1975 250 
L 2050 250 
Q 2175 250 2225 287 
Q 2275 325 2200 425 
L 1425 1650 
L 925 1125 
L 925 450 
Q 925 350 987 300 
Q 1050 250 1150 250 
L 1275 250 
L 1275 100 
L 225 100 
L 225 250 
L 350 250 
Q 475 250 525 300 
Q 575 350 575 450 
L 575 4025 
Q 575 4125 525 4175 
Q 475 4225 350 4225 
L 200 4225 
L 200 4375 
L 425 4375 
Q 575 4375 687 4425 
Q 800 4475 875 4575 
L 925 4575 
L 925 1400 
L 1975 2525 
Q 2025 2625 2012 2687 
Q 2000 2750 1900 2750 
L 1750 2750 
L 1750 2900 
L 2800 2900 
L 2800 2750 
L 2675 2750 
Q 2600 2750 2487 2712 
Q 2375 2675 2275 2575 
L 1675 1900 
z
M 2450 2750 
L 2450 2750 
z
M 2175 2750 
L 2175 2750 
z
M 2300 250 
L 2300 250 
z
M 2750 250 
L 2750 250 
z
" transform="scale(0.015625)"/>
       <path id="SimSun-65" d="M 2400 1650 
Q 2425 2200 2212 2487 
Q 2000 2775 1650 2775 
Q 1275 2775 1037 2475 
Q 800 2175 800 1650 
L 2400 1650 
z
M 800 1500 
Q 800 825 1062 537 
Q 1325 250 1750 250 
Q 2075 250 2300 437 
Q 2525 625 2625 900 
L 2750 850 
Q 2675 575 2412 312 
Q 2150 50 1700 50 
Q 1125 50 762 425 
Q 400 800 400 1500 
Q 400 2125 762 2537 
Q 1125 2950 1650 2950 
Q 2125 2950 2475 2625 
Q 2825 2300 2825 1500 
L 800 1500 
z
" transform="scale(0.015625)"/>
       <path id="SimSun-73" d="M 625 2175 
Q 625 2550 912 2750 
Q 1200 2950 1600 2950 
Q 1825 2950 2025 2900 
Q 2225 2825 2300 2825 
Q 2375 2825 2425 2850 
Q 2475 2875 2550 2950 
L 2650 2125 
L 2500 2100 
Q 2400 2425 2162 2612 
Q 1925 2800 1625 2800 
Q 1300 2800 1112 2675 
Q 925 2550 925 2325 
Q 925 2125 1012 2012 
Q 1100 1900 1325 1850 
Q 1500 1775 1775 1700 
Q 2025 1600 2250 1500 
Q 2450 1400 2587 1237 
Q 2725 1075 2725 875 
Q 2725 500 2462 287 
Q 2200 75 1700 75 
Q 1375 75 1225 150 
Q 1050 200 950 200 
Q 875 200 787 162 
Q 700 125 600 75 
L 525 1000 
L 675 1025 
Q 750 625 1000 425 
Q 1250 225 1700 225 
Q 2050 225 2237 350 
Q 2425 475 2425 725 
Q 2425 900 2325 1012 
Q 2225 1125 2125 1175 
Q 1875 1275 1575 1400 
Q 1275 1500 1050 1600 
Q 825 1700 725 1850 
Q 625 2000 625 2175 
z
" transform="scale(0.015625)"/>
       <path id="SimSun-70" d="M 1150 -675 
L 1325 -675 
L 1325 -825 
L 175 -825 
L 175 -675 
L 325 -675 
Q 450 -675 500 -625 
Q 550 -575 550 -450 
L 550 2500 
Q 550 2600 500 2662 
Q 450 2725 325 2725 
L 175 2725 
L 175 2875 
L 400 2875 
Q 525 2875 637 2900 
Q 750 2925 850 3000 
L 900 3000 
L 900 2425 
Q 1075 2675 1287 2800 
Q 1500 2925 1750 2925 
Q 2250 2925 2575 2587 
Q 2900 2250 2900 1525 
Q 2900 825 2550 450 
Q 2200 75 1725 75 
Q 1450 75 1262 162 
Q 1075 250 900 425 
L 900 -450 
Q 900 -575 975 -625 
Q 1050 -675 1150 -675 
z
M 900 750 
Q 1025 500 1212 375 
Q 1400 250 1650 250 
Q 2000 250 2250 562 
Q 2500 875 2500 1525 
Q 2500 2125 2312 2425 
Q 2125 2725 1750 2725 
Q 1525 2725 1300 2587 
Q 1075 2450 900 2150 
L 900 750 
z
" transform="scale(0.015625)"/>
       <path id="SimSun-6e" d="M 200 100 
L 200 250 
L 325 250 
Q 450 250 500 300 
Q 550 350 550 450 
L 550 2600 
Q 550 2675 525 2712 
Q 500 2750 425 2750 
L 225 2750 
L 225 2900 
L 400 2900 
Q 525 2900 637 2925 
Q 750 2950 850 3025 
L 900 3025 
L 900 2450 
Q 1125 2700 1350 2825 
Q 1575 2950 1825 2950 
Q 2250 2950 2450 2725 
Q 2650 2500 2650 2050 
L 2650 450 
Q 2650 350 2712 300 
Q 2775 250 2875 250 
L 3000 250 
L 3000 100 
L 1950 100 
L 1950 250 
L 2075 250 
Q 2200 250 2250 300 
Q 2300 350 2300 450 
L 2300 2125 
Q 2300 2425 2175 2587 
Q 2050 2750 1800 2750 
Q 1575 2750 1337 2600 
Q 1100 2450 900 2175 
L 900 450 
Q 900 350 962 300 
Q 1025 250 1125 250 
L 1250 250 
L 1250 100 
L 200 100 
z
" transform="scale(0.015625)"/>
      </defs>
      <use xlink:href="#SimSun-4d"/>
      <use xlink:href="#SimSun-61" x="50"/>
      <use xlink:href="#SimSun-6b" x="100"/>
      <use xlink:href="#SimSun-65" x="150"/>
      <use xlink:href="#SimSun-73" x="200"/>
      <use xlink:href="#SimSun-70" x="250"/>
      <use xlink:href="#SimSun-61" x="300"/>
      <use xlink:href="#SimSun-6e" x="350"/>
     </g>
    </g>
   </g>
   <g id="matplotlib.axis_2">
    <g id="ytick_1">
     <g id="line2d_9">
      <defs>
       <path id="mc9a6f90c62" d="M 0 0 
L -3.5 0 
" style="stroke: #000000; stroke-width: 0.8"/>
      </defs>
      <g>
       <use xlink:href="#mc9a6f90c62" x="55.075" y="785.88" style="stroke: #000000; stroke-width: 0.8"/>
      </g>
     </g>
     <g id="text_10">
      <!-- 3 -->
      <g transform="translate(38.075 792.82375) scale(0.2 -0.2)">
       <defs>
        <path id="TimesNewRomanPSMT-33" d="M 325 3431 
Q 506 3859 782 4092 
Q 1059 4325 1472 4325 
Q 1981 4325 2253 3994 
Q 2459 3747 2459 3466 
Q 2459 3003 1878 2509 
Q 2269 2356 2469 2072 
Q 2669 1788 2669 1403 
Q 2669 853 2319 450 
Q 1863 -75 997 -75 
Q 569 -75 414 31 
Q 259 138 259 259 
Q 259 350 332 419 
Q 406 488 509 488 
Q 588 488 669 463 
Q 722 447 909 348 
Q 1097 250 1169 231 
Q 1284 197 1416 197 
Q 1734 197 1970 444 
Q 2206 691 2206 1028 
Q 2206 1275 2097 1509 
Q 2016 1684 1919 1775 
Q 1784 1900 1550 2001 
Q 1316 2103 1072 2103 
L 972 2103 
L 972 2197 
Q 1219 2228 1467 2375 
Q 1716 2522 1828 2728 
Q 1941 2934 1941 3181 
Q 1941 3503 1739 3701 
Q 1538 3900 1238 3900 
Q 753 3900 428 3381 
L 325 3431 
z
" transform="scale(0.015625)"/>
       </defs>
       <use xlink:href="#TimesNewRomanPSMT-33"/>
      </g>
     </g>
    </g>
    <g id="ytick_2">
     <g id="line2d_10">
      <g>
       <use xlink:href="#mc9a6f90c62" x="55.075" y="725.4" style="stroke: #000000; stroke-width: 0.8"/>
      </g>
     </g>
     <g id="text_11">
      <!-- 4 -->
      <g transform="translate(38.075 732.34375) scale(0.2 -0.2)">
       <use xlink:href="#TimesNewRomanPSMT-34"/>
      </g>
     </g>
    </g>
    <g id="ytick_3">
     <g id="line2d_11">
      <g>
       <use xlink:href="#mc9a6f90c62" x="55.075" y="664.92" style="stroke: #000000; stroke-width: 0.8"/>
      </g>
     </g>
     <g id="text_12">
      <!-- 5 -->
      <g transform="translate(38.075 671.86375) scale(0.2 -0.2)">
       <defs>
        <path id="TimesNewRomanPSMT-35" d="M 2778 4238 
L 2534 3706 
L 1259 3706 
L 981 3138 
Q 1809 3016 2294 2522 
Q 2709 2097 2709 1522 
Q 2709 1188 2573 903 
Q 2438 619 2231 419 
Q 2025 219 1772 97 
Q 1413 -75 1034 -75 
Q 653 -75 479 54 
Q 306 184 306 341 
Q 306 428 378 495 
Q 450 563 559 563 
Q 641 563 702 538 
Q 763 513 909 409 
Q 1144 247 1384 247 
Q 1750 247 2026 523 
Q 2303 800 2303 1197 
Q 2303 1581 2056 1914 
Q 1809 2247 1375 2428 
Q 1034 2569 447 2591 
L 1259 4238 
L 2778 4238 
z
" transform="scale(0.015625)"/>
       </defs>
       <use xlink:href="#TimesNewRomanPSMT-35"/>
      </g>
     </g>
    </g>
    <g id="ytick_4">
     <g id="line2d_12">
      <g>
       <use xlink:href="#mc9a6f90c62" x="55.075" y="604.44" style="stroke: #000000; stroke-width: 0.8"/>
      </g>
     </g>
     <g id="text_13">
      <!-- 6 -->
      <g transform="translate(38.075 611.38375) scale(0.2 -0.2)">
       <use xlink:href="#TimesNewRomanPSMT-36"/>
      </g>
     </g>
    </g>
    <g id="ytick_5">
     <g id="line2d_13">
      <g>
       <use xlink:href="#mc9a6f90c62" x="55.075" y="543.96" style="stroke: #000000; stroke-width: 0.8"/>
      </g>
     </g>
     <g id="text_14">
      <!-- 7 -->
      <g transform="translate(38.075 550.90375) scale(0.2 -0.2)">
       <defs>
        <path id="TimesNewRomanPSMT-37" d="M 644 4238 
L 2916 4238 
L 2916 4119 
L 1503 -88 
L 1153 -88 
L 2419 3728 
L 1253 3728 
Q 900 3728 750 3644 
Q 488 3500 328 3200 
L 238 3234 
L 644 4238 
z
" transform="scale(0.015625)"/>
       </defs>
       <use xlink:href="#TimesNewRomanPSMT-37"/>
      </g>
     </g>
    </g>
    <g id="ytick_6">
     <g id="line2d_14">
      <g>
       <use xlink:href="#mc9a6f90c62" x="55.075" y="483.48" style="stroke: #000000; stroke-width: 0.8"/>
      </g>
     </g>
     <g id="text_15">
      <!-- 8 -->
      <g transform="translate(38.075 490.42375) scale(0.2 -0.2)">
       <use xlink:href="#TimesNewRomanPSMT-38"/>
      </g>
     </g>
    </g>
    <g id="ytick_7">
     <g id="line2d_15">
      <g>
       <use xlink:href="#mc9a6f90c62" x="55.075" y="423" style="stroke: #000000; stroke-width: 0.8"/>
      </g>
     </g>
     <g id="text_16">
      <!-- 9 -->
      <g transform="translate(38.075 429.94375) scale(0.2 -0.2)">
       <defs>
        <path id="TimesNewRomanPSMT-39" d="M 338 -88 
L 338 28 
Q 744 34 1094 217 
Q 1444 400 1770 856 
Q 2097 1313 2225 1859 
Q 1734 1544 1338 1544 
Q 891 1544 572 1889 
Q 253 2234 253 2806 
Q 253 3363 572 3797 
Q 956 4325 1575 4325 
Q 2097 4325 2469 3894 
Q 2925 3359 2925 2575 
Q 2925 1869 2578 1258 
Q 2231 647 1613 244 
Q 1109 -88 516 -88 
L 338 -88 
z
M 2275 2091 
Q 2331 2497 2331 2741 
Q 2331 3044 2228 3395 
Q 2125 3747 1936 3934 
Q 1747 4122 1506 4122 
Q 1228 4122 1018 3872 
Q 809 3622 809 3128 
Q 809 2469 1088 2097 
Q 1291 1828 1588 1828 
Q 1731 1828 1928 1897 
Q 2125 1966 2275 2091 
z
" transform="scale(0.015625)"/>
       </defs>
       <use xlink:href="#TimesNewRomanPSMT-39"/>
      </g>
     </g>
    </g>
    <g id="ytick_8">
     <g id="line2d_16">
      <g>
       <use xlink:href="#mc9a6f90c62" x="55.075" y="362.52" style="stroke: #000000; stroke-width: 0.8"/>
      </g>
     </g>
     <g id="text_17">
      <!-- 10 -->
      <g transform="translate(28.075 369.46375) scale(0.2 -0.2)">
       <use xlink:href="#TimesNewRomanPSMT-31"/>
       <use xlink:href="#TimesNewRomanPSMT-30" x="50"/>
      </g>
     </g>
    </g>
    <g id="ytick_9">
     <g id="line2d_17">
      <g>
       <use xlink:href="#mc9a6f90c62" x="55.075" y="302.04" style="stroke: #000000; stroke-width: 0.8"/>
      </g>
     </g>
     <g id="text_18">
      <!-- 11 -->
      <g transform="translate(28.825 308.98375) scale(0.2 -0.2)">
       <use xlink:href="#TimesNewRomanPSMT-31"/>
       <use xlink:href="#TimesNewRomanPSMT-31" x="46.25"/>
      </g>
     </g>
    </g>
    <g id="ytick_10">
     <g id="line2d_18">
      <g>
       <use xlink:href="#mc9a6f90c62" x="55.075" y="241.56" style="stroke: #000000; stroke-width: 0.8"/>
      </g>
     </g>
     <g id="text_19">
      <!-- 12 -->
      <g transform="translate(28.075 248.50375) scale(0.2 -0.2)">
       <use xlink:href="#TimesNewRomanPSMT-31"/>
       <use xlink:href="#TimesNewRomanPSMT-32" x="50"/>
      </g>
     </g>
    </g>
    <g id="ytick_11">
     <g id="line2d_19">
      <g>
       <use xlink:href="#mc9a6f90c62" x="55.075" y="181.08" style="stroke: #000000; stroke-width: 0.8"/>
      </g>
     </g>
     <g id="text_20">
      <!-- 13 -->
      <g transform="translate(28.075 188.02375) scale(0.2 -0.2)">
       <use xlink:href="#TimesNewRomanPSMT-31"/>
       <use xlink:href="#TimesNewRomanPSMT-33" x="50"/>
      </g>
     </g>
    </g>
    <g id="ytick_12">
     <g id="line2d_20">
      <g>
       <use xlink:href="#mc9a6f90c62" x="55.075" y="120.6" style="stroke: #000000; stroke-width: 0.8"/>
      </g>
     </g>
     <g id="text_21">
      <!-- 14 -->
      <g transform="translate(28.075 127.54375) scale(0.2 -0.2)">
       <use xlink:href="#TimesNewRomanPSMT-31"/>
       <use xlink:href="#TimesNewRomanPSMT-34" x="50"/>
      </g>
     </g>
    </g>
    <g id="ytick_13">
     <g id="line2d_21">
      <g>
       <use xlink:href="#mc9a6f90c62" x="55.075" y="60.12" style="stroke: #000000; stroke-width: 0.8"/>
      </g>
     </g>
     <g id="text_22">
      <!-- 15 -->
      <g transform="translate(28.075 67.06375) scale(0.2 -0.2)">
       <use xlink:href="#TimesNewRomanPSMT-31"/>
       <use xlink:href="#TimesNewRomanPSMT-35" x="50"/>
      </g>
     </g>
    </g>
    <g id="text_23">
     <!-- Machine -->
     <g transform="translate(21.496875 458) rotate(-90) scale(0.2 -0.2)">
      <defs>
       <path id="SimSun-63" d="M 2150 2225 
Q 2150 2300 2175 2325 
Q 2175 2350 2200 2425 
Q 2225 2525 2100 2662 
Q 1975 2800 1675 2800 
Q 1300 2800 1037 2437 
Q 775 2075 775 1475 
Q 775 925 1000 587 
Q 1225 250 1750 250 
Q 2100 250 2337 475 
Q 2575 700 2675 1000 
L 2800 950 
Q 2700 575 2425 312 
Q 2150 50 1675 50 
Q 1075 50 725 425 
Q 375 800 375 1500 
Q 375 2125 750 2537 
Q 1125 2950 1725 2950 
Q 2150 2950 2387 2725 
Q 2625 2500 2625 2275 
Q 2625 2125 2562 2062 
Q 2500 2000 2375 2000 
Q 2275 2000 2212 2062 
Q 2150 2125 2150 2225 
z
" transform="scale(0.015625)"/>
       <path id="SimSun-68" d="M 200 100 
L 200 250 
L 325 250 
Q 450 250 500 300 
Q 550 350 550 450 
L 550 4025 
Q 550 4125 500 4175 
Q 450 4225 325 4225 
L 175 4225 
L 175 4375 
L 450 4375 
Q 550 4375 650 4425 
Q 750 4475 850 4575 
L 900 4575 
L 900 2450 
Q 1125 2725 1362 2837 
Q 1600 2950 1875 2950 
Q 2250 2950 2450 2737 
Q 2650 2525 2650 2075 
L 2650 450 
Q 2650 350 2712 300 
Q 2775 250 2875 250 
L 3000 250 
L 3000 100 
L 1950 100 
L 1950 250 
L 2075 250 
Q 2200 250 2250 300 
Q 2300 350 2300 450 
L 2300 2025 
Q 2300 2450 2162 2587 
Q 2025 2725 1800 2725 
Q 1600 2725 1362 2600 
Q 1125 2475 900 2175 
L 900 450 
Q 900 350 962 300 
Q 1025 250 1125 250 
L 1250 250 
L 1250 100 
L 200 100 
z
" transform="scale(0.015625)"/>
       <path id="SimSun-69" d="M 1425 2525 
Q 1425 2625 1375 2687 
Q 1325 2750 1200 2750 
L 675 2750 
L 675 2900 
L 925 2900 
Q 1150 2900 1350 2937 
Q 1550 2975 1725 3075 
L 1775 3075 
L 1775 450 
Q 1775 350 1837 300 
Q 1900 250 2000 250 
L 2525 250 
L 2525 100 
L 675 100 
L 675 250 
L 1200 250 
Q 1325 250 1375 300 
Q 1425 350 1425 450 
L 1425 2525 
z
M 1725 3025 
L 1725 3025 
z
M 1625 4425 
Q 1750 4425 1850 4337 
Q 1950 4250 1950 4125 
Q 1950 4000 1850 3900 
Q 1750 3800 1625 3800 
Q 1500 3800 1400 3900 
Q 1300 4000 1300 4125 
Q 1300 4250 1400 4337 
Q 1500 4425 1625 4425 
z
" transform="scale(0.015625)"/>
      </defs>
      <use xlink:href="#SimSun-4d"/>
      <use xlink:href="#SimSun-61" x="50"/>
      <use xlink:href="#SimSun-63" x="100"/>
      <use xlink:href="#SimSun-68" x="150"/>
      <use xlink:href="#SimSun-69" x="200"/>
      <use xlink:href="#SimSun-6e" x="250"/>
      <use xlink:href="#SimSun-65" x="300"/>
     </g>
    </g>
   </g>
   <g id="patch_93">
    <path d="M 55.075 838.8 
L 55.075 7.2 
" style="fill: none; stroke: #000000; stroke-width: 0.8; stroke-linejoin: miter; stroke-linecap: square"/>
   </g>
   <g id="patch_94">
    <path d="M 3403.075 838.8 
L 3403.075 7.2 
" style="fill: none; stroke: #000000; stroke-width: 0.8; stroke-linejoin: miter; stroke-linecap: square"/>
   </g>
   <g id="patch_95">
    <path d="M 55.075 838.8 
L 3403.075 838.8 
" style="fill: none; stroke: #000000; stroke-width: 0.8; stroke-linejoin: miter; stroke-linecap: square"/>
   </g>
   <g id="patch_96">
    <path d="M 55.075 7.2 
L 3403.075 7.2 
" style="fill: none; stroke: #000000; stroke-width: 0.8; stroke-linejoin: miter; stroke-linecap: square"/>
   </g>
   <g id="text_24">
    <!-- P7 -->
    <g transform="translate(67.540153 737.496) scale(0.06 -0.06)">
     <defs>
      <path id="DejaVuSans-50" d="M 1259 4147 
L 1259 2394 
L 2053 2394 
Q 2494 2394 2734 2622 
Q 2975 2850 2975 3272 
Q 2975 3691 2734 3919 
Q 2494 4147 2053 4147 
L 1259 4147 
z
M 628 4666 
L 2053 4666 
Q 2838 4666 3239 4311 
Q 3641 3956 3641 3272 
Q 3641 2581 3239 2228 
Q 2838 1875 2053 1875 
L 1259 1875 
L 1259 0 
L 628 0 
L 628 4666 
z
" transform="scale(0.015625)"/>
      <path id="DejaVuSans-37" d="M 525 4666 
L 3525 4666 
L 3525 4397 
L 1831 0 
L 1172 0 
L 2766 4134 
L 525 4134 
L 525 4666 
z
" transform="scale(0.015625)"/>
     </defs>
     <use xlink:href="#DejaVuSans-50"/>
     <use xlink:href="#DejaVuSans-37" x="60.302734"/>
    </g>
   </g>
   <g id="text_25">
    <!-- P7 -->
    <g transform="translate(433.16006 240.218625) scale(0.06 -0.06)">
     <use xlink:href="#DejaVuSans-50"/>
     <use xlink:href="#DejaVuSans-37" x="60.302734"/>
    </g>
    <!-- J2 -->
    <g transform="translate(433.16006 246.937313) scale(0.06 -0.06)">
     <defs>
      <path id="DejaVuSans-4a" d="M 628 4666 
L 1259 4666 
L 1259 325 
Q 1259 -519 939 -900 
Q 619 -1281 -91 -1281 
L -331 -1281 
L -331 -750 
L -134 -750 
Q 284 -750 456 -515 
Q 628 -281 628 325 
L 628 4666 
z
" transform="scale(0.015625)"/>
      <path id="DejaVuSans-32" d="M 1228 531 
L 3431 531 
L 3431 0 
L 469 0 
L 469 531 
Q 828 903 1448 1529 
Q 2069 2156 2228 2338 
Q 2531 2678 2651 2914 
Q 2772 3150 2772 3378 
Q 2772 3750 2511 3984 
Q 2250 4219 1831 4219 
Q 1534 4219 1204 4116 
Q 875 4013 500 3803 
L 500 4441 
Q 881 4594 1212 4672 
Q 1544 4750 1819 4750 
Q 2544 4750 2975 4387 
Q 3406 4025 3406 3419 
Q 3406 3131 3298 2873 
Q 3191 2616 2906 2266 
Q 2828 2175 2409 1742 
Q 1991 1309 1228 531 
z
" transform="scale(0.015625)"/>
     </defs>
     <use xlink:href="#DejaVuSans-4a"/>
     <use xlink:href="#DejaVuSans-32" x="29.492188"/>
    </g>
    <!-- O1 -->
    <g transform="translate(433.16006 253.656) scale(0.06 -0.06)">
     <defs>
      <path id="DejaVuSans-4f" d="M 2522 4238 
Q 1834 4238 1429 3725 
Q 1025 3213 1025 2328 
Q 1025 1447 1429 934 
Q 1834 422 2522 422 
Q 3209 422 3611 934 
Q 4013 1447 4013 2328 
Q 4013 3213 3611 3725 
Q 3209 4238 2522 4238 
z
M 2522 4750 
Q 3503 4750 4090 4092 
Q 4678 3434 4678 2328 
Q 4678 1225 4090 567 
Q 3503 -91 2522 -91 
Q 1538 -91 948 565 
Q 359 1222 359 2328 
Q 359 3434 948 4092 
Q 1538 4750 2522 4750 
z
" transform="scale(0.015625)"/>
      <path id="DejaVuSans-31" d="M 794 531 
L 1825 531 
L 1825 4091 
L 703 3866 
L 703 4441 
L 1819 4666 
L 2450 4666 
L 2450 531 
L 3481 531 
L 3481 0 
L 794 0 
L 794 531 
z
" transform="scale(0.015625)"/>
     </defs>
     <use xlink:href="#DejaVuSans-4f"/>
     <use xlink:href="#DejaVuSans-31" x="78.710938"/>
    </g>
   </g>
   <g id="text_26">
    <!-- P7 -->
    <g transform="translate(557.664075 603.098625) scale(0.06 -0.06)">
     <use xlink:href="#DejaVuSans-50"/>
     <use xlink:href="#DejaVuSans-37" x="60.302734"/>
    </g>
    <!-- J2 -->
    <g transform="translate(557.664075 609.817313) scale(0.06 -0.06)">
     <use xlink:href="#DejaVuSans-4a"/>
     <use xlink:href="#DejaVuSans-32" x="29.492188"/>
    </g>
    <!-- O2 -->
    <g transform="translate(557.664075 616.536) scale(0.06 -0.06)">
     <use xlink:href="#DejaVuSans-4f"/>
     <use xlink:href="#DejaVuSans-32" x="78.710938"/>
    </g>
   </g>
   <g id="text_27">
    <!-- P7 -->
    <g transform="translate(432.865027 603.098625) scale(0.06 -0.06)">
     <use xlink:href="#DejaVuSans-50"/>
     <use xlink:href="#DejaVuSans-37" x="60.302734"/>
    </g>
    <!-- J3 -->
    <g transform="translate(432.865027 609.817313) scale(0.06 -0.06)">
     <defs>
      <path id="DejaVuSans-33" d="M 2597 2516 
Q 3050 2419 3304 2112 
Q 3559 1806 3559 1356 
Q 3559 666 3084 287 
Q 2609 -91 1734 -91 
Q 1441 -91 1130 -33 
Q 819 25 488 141 
L 488 750 
Q 750 597 1062 519 
Q 1375 441 1716 441 
Q 2309 441 2620 675 
Q 2931 909 2931 1356 
Q 2931 1769 2642 2001 
Q 2353 2234 1838 2234 
L 1294 2234 
L 1294 2753 
L 1863 2753 
Q 2328 2753 2575 2939 
Q 2822 3125 2822 3475 
Q 2822 3834 2567 4026 
Q 2313 4219 1838 4219 
Q 1578 4219 1281 4162 
Q 984 4106 628 3988 
L 628 4550 
Q 988 4650 1302 4700 
Q 1616 4750 1894 4750 
Q 2613 4750 3031 4423 
Q 3450 4097 3450 3541 
Q 3450 3153 3228 2886 
Q 3006 2619 2597 2516 
z
" transform="scale(0.015625)"/>
     </defs>
     <use xlink:href="#DejaVuSans-4a"/>
     <use xlink:href="#DejaVuSans-33" x="29.492188"/>
    </g>
    <!-- O1 -->
    <g transform="translate(432.865027 616.536) scale(0.06 -0.06)">
     <use xlink:href="#DejaVuSans-4f"/>
     <use xlink:href="#DejaVuSans-31" x="78.710938"/>
    </g>
   </g>
   <g id="text_28">
    <!-- P5 -->
    <g transform="translate(441.789781 737.496) scale(0.06 -0.06)">
     <defs>
      <path id="DejaVuSans-35" d="M 691 4666 
L 3169 4666 
L 3169 4134 
L 1269 4134 
L 1269 2991 
Q 1406 3038 1543 3061 
Q 1681 3084 1819 3084 
Q 2600 3084 3056 2656 
Q 3513 2228 3513 1497 
Q 3513 744 3044 326 
Q 2575 -91 1722 -91 
Q 1428 -91 1123 -41 
Q 819 9 494 109 
L 494 744 
Q 775 591 1075 516 
Q 1375 441 1709 441 
Q 2250 441 2565 725 
Q 2881 1009 2881 1497 
Q 2881 1984 2565 2268 
Q 2250 2553 1709 2553 
Q 1456 2553 1204 2497 
Q 953 2441 691 2322 
L 691 4666 
z
" transform="scale(0.015625)"/>
     </defs>
     <use xlink:href="#DejaVuSans-50"/>
     <use xlink:href="#DejaVuSans-35" x="60.302734"/>
    </g>
   </g>
   <g id="text_29">
    <!-- P7 -->
    <g transform="translate(431.832411 361.178625) scale(0.06 -0.06)">
     <use xlink:href="#DejaVuSans-50"/>
     <use xlink:href="#DejaVuSans-37" x="60.302734"/>
    </g>
    <!-- J1 -->
    <g transform="translate(431.832411 367.897312) scale(0.06 -0.06)">
     <use xlink:href="#DejaVuSans-4a"/>
     <use xlink:href="#DejaVuSans-31" x="29.492188"/>
    </g>
    <!-- O1 -->
    <g transform="translate(431.832411 374.616) scale(0.06 -0.06)">
     <use xlink:href="#DejaVuSans-4f"/>
     <use xlink:href="#DejaVuSans-31" x="78.710938"/>
    </g>
   </g>
   <g id="text_30">
    <!-- P8 -->
    <g transform="translate(67.097603 797.976) scale(0.06 -0.06)">
     <defs>
      <path id="DejaVuSans-38" d="M 2034 2216 
Q 1584 2216 1326 1975 
Q 1069 1734 1069 1313 
Q 1069 891 1326 650 
Q 1584 409 2034 409 
Q 2484 409 2743 651 
Q 3003 894 3003 1313 
Q 3003 1734 2745 1975 
Q 2488 2216 2034 2216 
z
M 1403 2484 
Q 997 2584 770 2862 
Q 544 3141 544 3541 
Q 544 4100 942 4425 
Q 1341 4750 2034 4750 
Q 2731 4750 3128 4425 
Q 3525 4100 3525 3541 
Q 3525 3141 3298 2862 
Q 3072 2584 2669 2484 
Q 3125 2378 3379 2068 
Q 3634 1759 3634 1313 
Q 3634 634 3220 271 
Q 2806 -91 2034 -91 
Q 1263 -91 848 271 
Q 434 634 434 1313 
Q 434 1759 690 2068 
Q 947 2378 1403 2484 
z
M 1172 3481 
Q 1172 3119 1398 2916 
Q 1625 2713 2034 2713 
Q 2441 2713 2670 2916 
Q 2900 3119 2900 3481 
Q 2900 3844 2670 4047 
Q 2441 4250 2034 4250 
Q 1625 4250 1398 4047 
Q 1172 3844 1172 3481 
z
" transform="scale(0.015625)"/>
     </defs>
     <use xlink:href="#DejaVuSans-50"/>
     <use xlink:href="#DejaVuSans-38" x="60.302734"/>
    </g>
   </g>
   <g id="text_31">
    <!-- P1 -->
    <g transform="translate(428.955837 797.976) scale(0.06 -0.06)">
     <use xlink:href="#DejaVuSans-50"/>
     <use xlink:href="#DejaVuSans-31" x="60.302734"/>
    </g>
   </g>
   <g id="text_32">
    <!-- P1 -->
    <g transform="translate(815.891893 482.138625) scale(0.06 -0.06)">
     <use xlink:href="#DejaVuSans-50"/>
     <use xlink:href="#DejaVuSans-31" x="60.302734"/>
    </g>
    <!-- J1 -->
    <g transform="translate(815.891893 488.857313) scale(0.06 -0.06)">
     <use xlink:href="#DejaVuSans-4a"/>
     <use xlink:href="#DejaVuSans-31" x="29.492188"/>
    </g>
    <!-- O1 -->
    <g transform="translate(815.891893 495.576) scale(0.06 -0.06)">
     <use xlink:href="#DejaVuSans-4f"/>
     <use xlink:href="#DejaVuSans-31" x="78.710938"/>
    </g>
   </g>
   <g id="text_33">
    <!-- P8 -->
    <g transform="translate(419.219741 421.658625) scale(0.06 -0.06)">
     <use xlink:href="#DejaVuSans-50"/>
     <use xlink:href="#DejaVuSans-38" x="60.302734"/>
    </g>
    <!-- J3 -->
    <g transform="translate(419.219741 428.377312) scale(0.06 -0.06)">
     <use xlink:href="#DejaVuSans-4a"/>
     <use xlink:href="#DejaVuSans-33" x="29.492188"/>
    </g>
    <!-- O1 -->
    <g transform="translate(419.219741 435.096) scale(0.06 -0.06)">
     <use xlink:href="#DejaVuSans-4f"/>
     <use xlink:href="#DejaVuSans-31" x="78.710938"/>
    </g>
   </g>
   <g id="text_34">
    <!-- P5 -->
    <g transform="translate(816.186926 542.618625) scale(0.06 -0.06)">
     <use xlink:href="#DejaVuSans-50"/>
     <use xlink:href="#DejaVuSans-35" x="60.302734"/>
    </g>
    <!-- J1 -->
    <g transform="translate(816.186926 549.337313) scale(0.06 -0.06)">
     <use xlink:href="#DejaVuSans-4a"/>
     <use xlink:href="#DejaVuSans-31" x="29.492188"/>
    </g>
    <!-- O1 -->
    <g transform="translate(816.186926 556.056) scale(0.06 -0.06)">
     <use xlink:href="#DejaVuSans-4f"/>
     <use xlink:href="#DejaVuSans-31" x="78.710938"/>
    </g>
   </g>
   <g id="text_35">
    <!-- P1 -->
    <g transform="translate(816.03941 663.578625) scale(0.06 -0.06)">
     <use xlink:href="#DejaVuSans-50"/>
     <use xlink:href="#DejaVuSans-31" x="60.302734"/>
    </g>
    <!-- J3 -->
    <g transform="translate(816.03941 670.297313) scale(0.06 -0.06)">
     <use xlink:href="#DejaVuSans-4a"/>
     <use xlink:href="#DejaVuSans-33" x="29.492188"/>
    </g>
    <!-- O1 -->
    <g transform="translate(816.03941 677.016) scale(0.06 -0.06)">
     <use xlink:href="#DejaVuSans-4f"/>
     <use xlink:href="#DejaVuSans-31" x="78.710938"/>
    </g>
   </g>
   <g id="text_36">
    <!-- P5 -->
    <g transform="translate(940.838458 663.578625) scale(0.06 -0.06)">
     <use xlink:href="#DejaVuSans-50"/>
     <use xlink:href="#DejaVuSans-35" x="60.302734"/>
    </g>
    <!-- J3 -->
    <g transform="translate(940.838458 670.297313) scale(0.06 -0.06)">
     <use xlink:href="#DejaVuSans-4a"/>
     <use xlink:href="#DejaVuSans-33" x="29.492188"/>
    </g>
    <!-- O1 -->
    <g transform="translate(940.838458 677.016) scale(0.06 -0.06)">
     <use xlink:href="#DejaVuSans-4f"/>
     <use xlink:href="#DejaVuSans-31" x="78.710938"/>
    </g>
   </g>
   <g id="text_37">
    <!-- P1 -->
    <g transform="translate(937.371818 421.658625) scale(0.06 -0.06)">
     <use xlink:href="#DejaVuSans-50"/>
     <use xlink:href="#DejaVuSans-31" x="60.302734"/>
    </g>
    <!-- J1 -->
    <g transform="translate(937.371818 428.377312) scale(0.06 -0.06)">
     <use xlink:href="#DejaVuSans-4a"/>
     <use xlink:href="#DejaVuSans-31" x="29.492188"/>
    </g>
    <!-- O2 -->
    <g transform="translate(937.371818 435.096) scale(0.06 -0.06)">
     <use xlink:href="#DejaVuSans-4f"/>
     <use xlink:href="#DejaVuSans-32" x="78.710938"/>
    </g>
   </g>
   <g id="text_38">
    <!-- P5 -->
    <g transform="translate(1026.840639 300.698625) scale(0.06 -0.06)">
     <use xlink:href="#DejaVuSans-50"/>
     <use xlink:href="#DejaVuSans-35" x="60.302734"/>
    </g>
    <!-- J3 -->
    <g transform="translate(1026.840639 307.417313) scale(0.06 -0.06)">
     <use xlink:href="#DejaVuSans-4a"/>
     <use xlink:href="#DejaVuSans-33" x="29.492188"/>
    </g>
    <!-- O2 -->
    <g transform="translate(1026.840639 314.136) scale(0.06 -0.06)">
     <use xlink:href="#DejaVuSans-4f"/>
     <use xlink:href="#DejaVuSans-32" x="78.710938"/>
    </g>
   </g>
   <g id="text_39">
    <!-- P3 -->
    <g transform="translate(822.456382 797.976) scale(0.06 -0.06)">
     <use xlink:href="#DejaVuSans-50"/>
     <use xlink:href="#DejaVuSans-33" x="60.302734"/>
    </g>
   </g>
   <g id="text_40">
    <!-- P3 -->
    <g transform="translate(1134.527761 361.178625) scale(0.06 -0.06)">
     <use xlink:href="#DejaVuSans-50"/>
     <use xlink:href="#DejaVuSans-33" x="60.302734"/>
    </g>
    <!-- J2 -->
    <g transform="translate(1134.527761 367.897312) scale(0.06 -0.06)">
     <use xlink:href="#DejaVuSans-4a"/>
     <use xlink:href="#DejaVuSans-32" x="29.492188"/>
    </g>
    <!-- O1 -->
    <g transform="translate(1134.527761 374.616) scale(0.06 -0.06)">
     <use xlink:href="#DejaVuSans-4f"/>
     <use xlink:href="#DejaVuSans-31" x="78.710938"/>
    </g>
   </g>
   <g id="text_41">
    <!-- P1 -->
    <g transform="translate(815.449343 421.658625) scale(0.06 -0.06)">
     <use xlink:href="#DejaVuSans-50"/>
     <use xlink:href="#DejaVuSans-31" x="60.302734"/>
    </g>
    <!-- J2 -->
    <g transform="translate(815.449343 428.377312) scale(0.06 -0.06)">
     <use xlink:href="#DejaVuSans-4a"/>
     <use xlink:href="#DejaVuSans-32" x="29.492188"/>
    </g>
    <!-- O1 -->
    <g transform="translate(815.449343 435.096) scale(0.06 -0.06)">
     <use xlink:href="#DejaVuSans-4f"/>
     <use xlink:href="#DejaVuSans-31" x="78.710938"/>
    </g>
   </g>
   <g id="text_42">
    <!-- P8 -->
    <g transform="translate(418.629674 542.618625) scale(0.06 -0.06)">
     <use xlink:href="#DejaVuSans-50"/>
     <use xlink:href="#DejaVuSans-38" x="60.302734"/>
    </g>
    <!-- J1 -->
    <g transform="translate(418.629674 549.337313) scale(0.06 -0.06)">
     <use xlink:href="#DejaVuSans-4a"/>
     <use xlink:href="#DejaVuSans-31" x="29.492188"/>
    </g>
    <!-- O1 -->
    <g transform="translate(418.629674 556.056) scale(0.06 -0.06)">
     <use xlink:href="#DejaVuSans-4f"/>
     <use xlink:href="#DejaVuSans-31" x="78.710938"/>
    </g>
   </g>
   <g id="text_43">
    <!-- P3 -->
    <g transform="translate(1134.011453 421.658625) scale(0.06 -0.06)">
     <use xlink:href="#DejaVuSans-50"/>
     <use xlink:href="#DejaVuSans-33" x="60.302734"/>
    </g>
    <!-- J3 -->
    <g transform="translate(1134.011453 428.377312) scale(0.06 -0.06)">
     <use xlink:href="#DejaVuSans-4a"/>
     <use xlink:href="#DejaVuSans-33" x="29.492188"/>
    </g>
    <!-- O1 -->
    <g transform="translate(1134.011453 435.096) scale(0.06 -0.06)">
     <use xlink:href="#DejaVuSans-4f"/>
     <use xlink:href="#DejaVuSans-31" x="78.710938"/>
    </g>
   </g>
   <g id="text_44">
    <!-- P2 -->
    <g transform="translate(824.742889 737.496) scale(0.06 -0.06)">
     <use xlink:href="#DejaVuSans-50"/>
     <use xlink:href="#DejaVuSans-32" x="60.302734"/>
    </g>
   </g>
   <g id="text_45">
    <!-- P2 -->
    <g transform="translate(1204.08184 240.218625) scale(0.06 -0.06)">
     <use xlink:href="#DejaVuSans-50"/>
     <use xlink:href="#DejaVuSans-32" x="60.302734"/>
    </g>
    <!-- J3 -->
    <g transform="translate(1204.08184 246.937313) scale(0.06 -0.06)">
     <use xlink:href="#DejaVuSans-4a"/>
     <use xlink:href="#DejaVuSans-33" x="29.492188"/>
    </g>
    <!-- O1 -->
    <g transform="translate(1204.08184 253.656) scale(0.06 -0.06)">
     <use xlink:href="#DejaVuSans-4f"/>
     <use xlink:href="#DejaVuSans-31" x="78.710938"/>
    </g>
   </g>
   <g id="text_46">
    <!-- P1 -->
    <g transform="translate(940.7647 300.698625) scale(0.06 -0.06)">
     <use xlink:href="#DejaVuSans-50"/>
     <use xlink:href="#DejaVuSans-31" x="60.302734"/>
    </g>
    <!-- J3 -->
    <g transform="translate(940.7647 307.417313) scale(0.06 -0.06)">
     <use xlink:href="#DejaVuSans-4a"/>
     <use xlink:href="#DejaVuSans-33" x="29.492188"/>
    </g>
    <!-- O2 -->
    <g transform="translate(940.7647 314.136) scale(0.06 -0.06)">
     <use xlink:href="#DejaVuSans-4f"/>
     <use xlink:href="#DejaVuSans-32" x="78.710938"/>
    </g>
   </g>
   <g id="text_47">
    <!-- P8 -->
    <g transform="translate(420.031082 300.698625) scale(0.06 -0.06)">
     <use xlink:href="#DejaVuSans-50"/>
     <use xlink:href="#DejaVuSans-38" x="60.302734"/>
    </g>
    <!-- J2 -->
    <g transform="translate(420.031082 307.417313) scale(0.06 -0.06)">
     <use xlink:href="#DejaVuSans-4a"/>
     <use xlink:href="#DejaVuSans-32" x="29.492188"/>
    </g>
    <!-- O1 -->
    <g transform="translate(420.031082 314.136) scale(0.06 -0.06)">
     <use xlink:href="#DejaVuSans-4f"/>
     <use xlink:href="#DejaVuSans-31" x="78.710938"/>
    </g>
   </g>
   <g id="text_48">
    <!-- P6 -->
    <g transform="translate(1210.720088 737.496) scale(0.06 -0.06)">
     <defs>
      <path id="DejaVuSans-36" d="M 2113 2584 
Q 1688 2584 1439 2293 
Q 1191 2003 1191 1497 
Q 1191 994 1439 701 
Q 1688 409 2113 409 
Q 2538 409 2786 701 
Q 3034 994 3034 1497 
Q 3034 2003 2786 2293 
Q 2538 2584 2113 2584 
z
M 3366 4563 
L 3366 3988 
Q 3128 4100 2886 4159 
Q 2644 4219 2406 4219 
Q 1781 4219 1451 3797 
Q 1122 3375 1075 2522 
Q 1259 2794 1537 2939 
Q 1816 3084 2150 3084 
Q 2853 3084 3261 2657 
Q 3669 2231 3669 1497 
Q 3669 778 3244 343 
Q 2819 -91 2113 -91 
Q 1303 -91 875 529 
Q 447 1150 447 2328 
Q 447 3434 972 4092 
Q 1497 4750 2381 4750 
Q 2619 4750 2861 4703 
Q 3103 4656 3366 4563 
z
" transform="scale(0.015625)"/>
     </defs>
     <use xlink:href="#DejaVuSans-50"/>
     <use xlink:href="#DejaVuSans-36" x="60.302734"/>
    </g>
   </g>
   <g id="text_49">
    <!-- P4 -->
    <g transform="translate(1143.600032 797.976) scale(0.06 -0.06)">
     <defs>
      <path id="DejaVuSans-34" d="M 2419 4116 
L 825 1625 
L 2419 1625 
L 2419 4116 
z
M 2253 4666 
L 3047 4666 
L 3047 1625 
L 3713 1625 
L 3713 1100 
L 3047 1100 
L 3047 0 
L 2419 0 
L 2419 1100 
L 313 1100 
L 313 1709 
L 2253 4666 
z
" transform="scale(0.015625)"/>
     </defs>
     <use xlink:href="#DejaVuSans-50"/>
     <use xlink:href="#DejaVuSans-34" x="60.302734"/>
    </g>
   </g>
   <g id="text_50">
    <!-- P6 -->
    <g transform="translate(1552.442304 361.178625) scale(0.06 -0.06)">
     <use xlink:href="#DejaVuSans-50"/>
     <use xlink:href="#DejaVuSans-36" x="60.302734"/>
    </g>
    <!-- J3 -->
    <g transform="translate(1552.442304 367.897312) scale(0.06 -0.06)">
     <use xlink:href="#DejaVuSans-4a"/>
     <use xlink:href="#DejaVuSans-33" x="29.492188"/>
    </g>
    <!-- O1 -->
    <g transform="translate(1552.442304 374.616) scale(0.06 -0.06)">
     <use xlink:href="#DejaVuSans-4f"/>
     <use xlink:href="#DejaVuSans-31" x="78.710938"/>
    </g>
   </g>
   <g id="text_51">
    <!-- P8 -->
    <g transform="translate(524.767872 421.658625) scale(0.06 -0.06)">
     <use xlink:href="#DejaVuSans-50"/>
     <use xlink:href="#DejaVuSans-38" x="60.302734"/>
    </g>
    <!-- J1 -->
    <g transform="translate(524.767872 428.377312) scale(0.06 -0.06)">
     <use xlink:href="#DejaVuSans-4a"/>
     <use xlink:href="#DejaVuSans-31" x="29.492188"/>
    </g>
    <!-- O2 -->
    <g transform="translate(524.767872 435.096) scale(0.06 -0.06)">
     <use xlink:href="#DejaVuSans-4f"/>
     <use xlink:href="#DejaVuSans-32" x="78.710938"/>
    </g>
   </g>
   <g id="text_52">
    <!-- P8 -->
    <g transform="translate(524.39908 542.618625) scale(0.06 -0.06)">
     <use xlink:href="#DejaVuSans-50"/>
     <use xlink:href="#DejaVuSans-38" x="60.302734"/>
    </g>
    <!-- J3 -->
    <g transform="translate(524.39908 549.337313) scale(0.06 -0.06)">
     <use xlink:href="#DejaVuSans-4a"/>
     <use xlink:href="#DejaVuSans-33" x="29.492188"/>
    </g>
    <!-- O2 -->
    <g transform="translate(524.39908 556.056) scale(0.06 -0.06)">
     <use xlink:href="#DejaVuSans-4f"/>
     <use xlink:href="#DejaVuSans-32" x="78.710938"/>
    </g>
   </g>
   <g id="text_53">
    <!-- P1 -->
    <g transform="translate(1103.991824 300.698625) scale(0.06 -0.06)">
     <use xlink:href="#DejaVuSans-50"/>
     <use xlink:href="#DejaVuSans-31" x="60.302734"/>
    </g>
    <!-- J3 -->
    <g transform="translate(1103.991824 307.417313) scale(0.06 -0.06)">
     <use xlink:href="#DejaVuSans-4a"/>
     <use xlink:href="#DejaVuSans-33" x="29.492188"/>
    </g>
    <!-- O3 -->
    <g transform="translate(1103.991824 314.136) scale(0.06 -0.06)">
     <use xlink:href="#DejaVuSans-4f"/>
     <use xlink:href="#DejaVuSans-33" x="78.710938"/>
    </g>
   </g>
   <g id="text_54">
    <!-- P4 -->
    <g transform="translate(1528.692131 240.218625) scale(0.06 -0.06)">
     <use xlink:href="#DejaVuSans-50"/>
     <use xlink:href="#DejaVuSans-34" x="60.302734"/>
    </g>
    <!-- J2 -->
    <g transform="translate(1528.692131 246.937313) scale(0.06 -0.06)">
     <use xlink:href="#DejaVuSans-4a"/>
     <use xlink:href="#DejaVuSans-32" x="29.492188"/>
    </g>
    <!-- O1 -->
    <g transform="translate(1528.692131 253.656) scale(0.06 -0.06)">
     <use xlink:href="#DejaVuSans-4f"/>
     <use xlink:href="#DejaVuSans-31" x="78.710938"/>
    </g>
   </g>
   <g id="text_55">
    <!-- P4 -->
    <g transform="translate(1664.33365 361.178625) scale(0.06 -0.06)">
     <use xlink:href="#DejaVuSans-50"/>
     <use xlink:href="#DejaVuSans-34" x="60.302734"/>
    </g>
    <!-- J1 -->
    <g transform="translate(1664.33365 367.897312) scale(0.06 -0.06)">
     <use xlink:href="#DejaVuSans-4a"/>
     <use xlink:href="#DejaVuSans-31" x="29.492188"/>
    </g>
    <!-- O1 -->
    <g transform="translate(1664.33365 374.616) scale(0.06 -0.06)">
     <use xlink:href="#DejaVuSans-4f"/>
     <use xlink:href="#DejaVuSans-31" x="78.710938"/>
    </g>
   </g>
   <g id="text_56">
    <!-- P1 -->
    <g transform="translate(1051.844704 482.138625) scale(0.06 -0.06)">
     <use xlink:href="#DejaVuSans-50"/>
     <use xlink:href="#DejaVuSans-31" x="60.302734"/>
    </g>
    <!-- J1 -->
    <g transform="translate(1051.844704 488.857313) scale(0.06 -0.06)">
     <use xlink:href="#DejaVuSans-4a"/>
     <use xlink:href="#DejaVuSans-31" x="29.492188"/>
    </g>
    <!-- O3 -->
    <g transform="translate(1051.844704 495.576) scale(0.06 -0.06)">
     <use xlink:href="#DejaVuSans-4f"/>
     <use xlink:href="#DejaVuSans-33" x="78.710938"/>
    </g>
   </g>
   <g id="text_57">
    <!-- P4 -->
    <g transform="translate(1747.901807 361.178625) scale(0.06 -0.06)">
     <use xlink:href="#DejaVuSans-50"/>
     <use xlink:href="#DejaVuSans-34" x="60.302734"/>
    </g>
    <!-- J1 -->
    <g transform="translate(1747.901807 367.897312) scale(0.06 -0.06)">
     <use xlink:href="#DejaVuSans-4a"/>
     <use xlink:href="#DejaVuSans-31" x="29.492188"/>
    </g>
    <!-- O2 -->
    <g transform="translate(1747.901807 374.616) scale(0.06 -0.06)">
     <use xlink:href="#DejaVuSans-4f"/>
     <use xlink:href="#DejaVuSans-32" x="78.710938"/>
    </g>
   </g>
   <g id="text_58">
    <!-- P8 -->
    <g transform="translate(548.149254 663.578625) scale(0.06 -0.06)">
     <use xlink:href="#DejaVuSans-50"/>
     <use xlink:href="#DejaVuSans-38" x="60.302734"/>
    </g>
    <!-- J2 -->
    <g transform="translate(548.149254 670.297313) scale(0.06 -0.06)">
     <use xlink:href="#DejaVuSans-4a"/>
     <use xlink:href="#DejaVuSans-32" x="29.492188"/>
    </g>
    <!-- O2 -->
    <g transform="translate(548.149254 677.016) scale(0.06 -0.06)">
     <use xlink:href="#DejaVuSans-4f"/>
     <use xlink:href="#DejaVuSans-32" x="78.710938"/>
    </g>
   </g>
   <g id="text_59">
    <!-- P4 -->
    <g transform="translate(1657.621644 240.218625) scale(0.06 -0.06)">
     <use xlink:href="#DejaVuSans-50"/>
     <use xlink:href="#DejaVuSans-34" x="60.302734"/>
    </g>
    <!-- J2 -->
    <g transform="translate(1657.621644 246.937313) scale(0.06 -0.06)">
     <use xlink:href="#DejaVuSans-4a"/>
     <use xlink:href="#DejaVuSans-32" x="29.492188"/>
    </g>
    <!-- O2 -->
    <g transform="translate(1657.621644 253.656) scale(0.06 -0.06)">
     <use xlink:href="#DejaVuSans-4f"/>
     <use xlink:href="#DejaVuSans-32" x="78.710938"/>
    </g>
   </g>
   <g id="text_60">
    <!-- P2 -->
    <g transform="translate(1352.631062 421.658625) scale(0.06 -0.06)">
     <use xlink:href="#DejaVuSans-50"/>
     <use xlink:href="#DejaVuSans-32" x="60.302734"/>
    </g>
    <!-- J3 -->
    <g transform="translate(1352.631062 428.377312) scale(0.06 -0.06)">
     <use xlink:href="#DejaVuSans-4a"/>
     <use xlink:href="#DejaVuSans-33" x="29.492188"/>
    </g>
    <!-- O2 -->
    <g transform="translate(1352.631062 435.096) scale(0.06 -0.06)">
     <use xlink:href="#DejaVuSans-4f"/>
     <use xlink:href="#DejaVuSans-32" x="78.710938"/>
    </g>
   </g>
   <g id="text_61">
    <!-- P3 -->
    <g transform="translate(1352.336029 240.218625) scale(0.06 -0.06)">
     <use xlink:href="#DejaVuSans-50"/>
     <use xlink:href="#DejaVuSans-33" x="60.302734"/>
    </g>
    <!-- J1 -->
    <g transform="translate(1352.336029 246.937313) scale(0.06 -0.06)">
     <use xlink:href="#DejaVuSans-4a"/>
     <use xlink:href="#DejaVuSans-31" x="29.492188"/>
    </g>
    <!-- O1 -->
    <g transform="translate(1352.336029 253.656) scale(0.06 -0.06)">
     <use xlink:href="#DejaVuSans-4f"/>
     <use xlink:href="#DejaVuSans-31" x="78.710938"/>
    </g>
   </g>
   <g id="text_62">
    <!-- P7 -->
    <g transform="translate(557.737833 240.218625) scale(0.06 -0.06)">
     <use xlink:href="#DejaVuSans-50"/>
     <use xlink:href="#DejaVuSans-37" x="60.302734"/>
    </g>
    <!-- J3 -->
    <g transform="translate(557.737833 246.937313) scale(0.06 -0.06)">
     <use xlink:href="#DejaVuSans-4a"/>
     <use xlink:href="#DejaVuSans-33" x="29.492188"/>
    </g>
    <!-- O2 -->
    <g transform="translate(557.737833 253.656) scale(0.06 -0.06)">
     <use xlink:href="#DejaVuSans-4f"/>
     <use xlink:href="#DejaVuSans-32" x="78.710938"/>
    </g>
   </g>
   <g id="text_63">
    <!-- P5 -->
    <g transform="translate(1029.127146 663.578625) scale(0.06 -0.06)">
     <use xlink:href="#DejaVuSans-50"/>
     <use xlink:href="#DejaVuSans-35" x="60.302734"/>
    </g>
    <!-- J1 -->
    <g transform="translate(1029.127146 670.297313) scale(0.06 -0.06)">
     <use xlink:href="#DejaVuSans-4a"/>
     <use xlink:href="#DejaVuSans-31" x="29.492188"/>
    </g>
    <!-- O2 -->
    <g transform="translate(1029.127146 677.016) scale(0.06 -0.06)">
     <use xlink:href="#DejaVuSans-4f"/>
     <use xlink:href="#DejaVuSans-32" x="78.710938"/>
    </g>
   </g>
   <g id="text_64">
    <!-- P6 -->
    <g transform="translate(1551.852238 421.658625) scale(0.06 -0.06)">
     <use xlink:href="#DejaVuSans-50"/>
     <use xlink:href="#DejaVuSans-36" x="60.302734"/>
    </g>
    <!-- J1 -->
    <g transform="translate(1551.852238 428.377312) scale(0.06 -0.06)">
     <use xlink:href="#DejaVuSans-4a"/>
     <use xlink:href="#DejaVuSans-31" x="29.492188"/>
    </g>
    <!-- O1 -->
    <g transform="translate(1551.852238 435.096) scale(0.06 -0.06)">
     <use xlink:href="#DejaVuSans-4f"/>
     <use xlink:href="#DejaVuSans-31" x="78.710938"/>
    </g>
   </g>
   <g id="text_65">
    <!-- P8 -->
    <g transform="translate(672.653269 482.138625) scale(0.06 -0.06)">
     <use xlink:href="#DejaVuSans-50"/>
     <use xlink:href="#DejaVuSans-38" x="60.302734"/>
    </g>
    <!-- J1 -->
    <g transform="translate(672.653269 488.857313) scale(0.06 -0.06)">
     <use xlink:href="#DejaVuSans-4a"/>
     <use xlink:href="#DejaVuSans-31" x="29.492188"/>
    </g>
    <!-- O3 -->
    <g transform="translate(672.653269 495.576) scale(0.06 -0.06)">
     <use xlink:href="#DejaVuSans-4f"/>
     <use xlink:href="#DejaVuSans-33" x="78.710938"/>
    </g>
   </g>
   <g id="text_66">
    <!-- P6 -->
    <g transform="translate(1817.234611 361.178625) scale(0.06 -0.06)">
     <use xlink:href="#DejaVuSans-50"/>
     <use xlink:href="#DejaVuSans-36" x="60.302734"/>
    </g>
    <!-- J2 -->
    <g transform="translate(1817.234611 367.897312) scale(0.06 -0.06)">
     <use xlink:href="#DejaVuSans-4a"/>
     <use xlink:href="#DejaVuSans-32" x="29.492188"/>
    </g>
    <!-- O1 -->
    <g transform="translate(1817.234611 374.616) scale(0.06 -0.06)">
     <use xlink:href="#DejaVuSans-4f"/>
     <use xlink:href="#DejaVuSans-31" x="78.710938"/>
    </g>
   </g>
   <g id="text_67">
    <!-- P2 -->
    <g transform="translate(1203.934324 300.698625) scale(0.06 -0.06)">
     <use xlink:href="#DejaVuSans-50"/>
     <use xlink:href="#DejaVuSans-32" x="60.302734"/>
    </g>
    <!-- J2 -->
    <g transform="translate(1203.934324 307.417313) scale(0.06 -0.06)">
     <use xlink:href="#DejaVuSans-4a"/>
     <use xlink:href="#DejaVuSans-32" x="29.492188"/>
    </g>
    <!-- O1 -->
    <g transform="translate(1203.934324 314.136) scale(0.06 -0.06)">
     <use xlink:href="#DejaVuSans-4f"/>
     <use xlink:href="#DejaVuSans-31" x="78.710938"/>
    </g>
   </g>
   <g id="text_68">
    <!-- P5 -->
    <g transform="translate(816.703234 240.218625) scale(0.06 -0.06)">
     <use xlink:href="#DejaVuSans-50"/>
     <use xlink:href="#DejaVuSans-35" x="60.302734"/>
    </g>
    <!-- J2 -->
    <g transform="translate(816.703234 246.937313) scale(0.06 -0.06)">
     <use xlink:href="#DejaVuSans-4a"/>
     <use xlink:href="#DejaVuSans-32" x="29.492188"/>
    </g>
    <!-- O1 -->
    <g transform="translate(816.703234 253.656) scale(0.06 -0.06)">
     <use xlink:href="#DejaVuSans-4f"/>
     <use xlink:href="#DejaVuSans-31" x="78.710938"/>
    </g>
   </g>
   <g id="text_69">
    <!-- P2 -->
    <g transform="translate(1446.304107 482.138625) scale(0.06 -0.06)">
     <use xlink:href="#DejaVuSans-50"/>
     <use xlink:href="#DejaVuSans-32" x="60.302734"/>
    </g>
    <!-- J3 -->
    <g transform="translate(1446.304107 488.857313) scale(0.06 -0.06)">
     <use xlink:href="#DejaVuSans-4a"/>
     <use xlink:href="#DejaVuSans-33" x="29.492188"/>
    </g>
    <!-- O3 -->
    <g transform="translate(1446.304107 495.576) scale(0.06 -0.06)">
     <use xlink:href="#DejaVuSans-4f"/>
     <use xlink:href="#DejaVuSans-33" x="78.710938"/>
    </g>
   </g>
   <g id="text_70">
    <!-- P5 -->
    <g transform="translate(1348.205564 300.698625) scale(0.06 -0.06)">
     <use xlink:href="#DejaVuSans-50"/>
     <use xlink:href="#DejaVuSans-35" x="60.302734"/>
    </g>
    <!-- J2 -->
    <g transform="translate(1348.205564 307.417313) scale(0.06 -0.06)">
     <use xlink:href="#DejaVuSans-4a"/>
     <use xlink:href="#DejaVuSans-32" x="29.492188"/>
    </g>
    <!-- O2 -->
    <g transform="translate(1348.205564 314.136) scale(0.06 -0.06)">
     <use xlink:href="#DejaVuSans-4f"/>
     <use xlink:href="#DejaVuSans-32" x="78.710938"/>
    </g>
   </g>
   <g id="text_71">
    <!-- P6 -->
    <g transform="translate(1909.137457 421.658625) scale(0.06 -0.06)">
     <use xlink:href="#DejaVuSans-50"/>
     <use xlink:href="#DejaVuSans-36" x="60.302734"/>
    </g>
    <!-- J2 -->
    <g transform="translate(1909.137457 428.377312) scale(0.06 -0.06)">
     <use xlink:href="#DejaVuSans-4a"/>
     <use xlink:href="#DejaVuSans-32" x="29.492188"/>
    </g>
    <!-- O2 -->
    <g transform="translate(1909.137457 435.096) scale(0.06 -0.06)">
     <use xlink:href="#DejaVuSans-4f"/>
     <use xlink:href="#DejaVuSans-32" x="78.710938"/>
    </g>
   </g>
   <g id="text_72">
    <!-- P1 -->
    <g transform="translate(1173.840936 663.578625) scale(0.06 -0.06)">
     <use xlink:href="#DejaVuSans-50"/>
     <use xlink:href="#DejaVuSans-31" x="60.302734"/>
    </g>
    <!-- J2 -->
    <g transform="translate(1173.840936 670.297313) scale(0.06 -0.06)">
     <use xlink:href="#DejaVuSans-4a"/>
     <use xlink:href="#DejaVuSans-32" x="29.492188"/>
    </g>
    <!-- O2 -->
    <g transform="translate(1173.840936 677.016) scale(0.06 -0.06)">
     <use xlink:href="#DejaVuSans-4f"/>
     <use xlink:href="#DejaVuSans-32" x="78.710938"/>
    </g>
   </g>
   <g id="text_73">
    <!-- P7 -->
    <g transform="translate(548.665562 300.698625) scale(0.06 -0.06)">
     <use xlink:href="#DejaVuSans-50"/>
     <use xlink:href="#DejaVuSans-37" x="60.302734"/>
    </g>
    <!-- J1 -->
    <g transform="translate(548.665562 307.417313) scale(0.06 -0.06)">
     <use xlink:href="#DejaVuSans-4a"/>
     <use xlink:href="#DejaVuSans-31" x="29.492188"/>
    </g>
    <!-- O2 -->
    <g transform="translate(548.665562 314.136) scale(0.06 -0.06)">
     <use xlink:href="#DejaVuSans-4f"/>
     <use xlink:href="#DejaVuSans-32" x="78.710938"/>
    </g>
   </g>
   <g id="text_74">
    <!-- P6 -->
    <g transform="translate(1907.293499 361.178625) scale(0.06 -0.06)">
     <use xlink:href="#DejaVuSans-50"/>
     <use xlink:href="#DejaVuSans-36" x="60.302734"/>
    </g>
    <!-- J3 -->
    <g transform="translate(1907.293499 367.897312) scale(0.06 -0.06)">
     <use xlink:href="#DejaVuSans-4a"/>
     <use xlink:href="#DejaVuSans-33" x="29.492188"/>
    </g>
    <!-- O2 -->
    <g transform="translate(1907.293499 374.616) scale(0.06 -0.06)">
     <use xlink:href="#DejaVuSans-4f"/>
     <use xlink:href="#DejaVuSans-32" x="78.710938"/>
    </g>
   </g>
   <g id="text_75">
    <!-- P4 -->
    <g transform="translate(1528.618373 603.098625) scale(0.06 -0.06)">
     <use xlink:href="#DejaVuSans-50"/>
     <use xlink:href="#DejaVuSans-34" x="60.302734"/>
    </g>
    <!-- J3 -->
    <g transform="translate(1528.618373 609.817313) scale(0.06 -0.06)">
     <use xlink:href="#DejaVuSans-4a"/>
     <use xlink:href="#DejaVuSans-33" x="29.492188"/>
    </g>
    <!-- O1 -->
    <g transform="translate(1528.618373 616.536) scale(0.06 -0.06)">
     <use xlink:href="#DejaVuSans-4f"/>
     <use xlink:href="#DejaVuSans-31" x="78.710938"/>
    </g>
   </g>
   <g id="text_76">
    <!-- P8 -->
    <g transform="translate(672.727027 421.658625) scale(0.06 -0.06)">
     <use xlink:href="#DejaVuSans-50"/>
     <use xlink:href="#DejaVuSans-38" x="60.302734"/>
    </g>
    <!-- J3 -->
    <g transform="translate(672.727027 428.377312) scale(0.06 -0.06)">
     <use xlink:href="#DejaVuSans-4a"/>
     <use xlink:href="#DejaVuSans-33" x="29.492188"/>
    </g>
    <!-- O3 -->
    <g transform="translate(672.727027 435.096) scale(0.06 -0.06)">
     <use xlink:href="#DejaVuSans-4f"/>
     <use xlink:href="#DejaVuSans-33" x="78.710938"/>
    </g>
   </g>
   <g id="text_77">
    <!-- P6 -->
    <g transform="translate(1979.871669 240.218625) scale(0.06 -0.06)">
     <use xlink:href="#DejaVuSans-50"/>
     <use xlink:href="#DejaVuSans-36" x="60.302734"/>
    </g>
    <!-- J3 -->
    <g transform="translate(1979.871669 246.937313) scale(0.06 -0.06)">
     <use xlink:href="#DejaVuSans-4a"/>
     <use xlink:href="#DejaVuSans-33" x="29.492188"/>
    </g>
    <!-- O3 -->
    <g transform="translate(1979.871669 253.656) scale(0.06 -0.06)">
     <use xlink:href="#DejaVuSans-4f"/>
     <use xlink:href="#DejaVuSans-33" x="78.710938"/>
    </g>
   </g>
   <g id="text_78">
    <!-- P4 -->
    <g transform="translate(1657.326611 542.618625) scale(0.06 -0.06)">
     <use xlink:href="#DejaVuSans-50"/>
     <use xlink:href="#DejaVuSans-34" x="60.302734"/>
    </g>
    <!-- J3 -->
    <g transform="translate(1657.326611 549.337313) scale(0.06 -0.06)">
     <use xlink:href="#DejaVuSans-4a"/>
     <use xlink:href="#DejaVuSans-33" x="29.492188"/>
    </g>
    <!-- O2 -->
    <g transform="translate(1657.326611 556.056) scale(0.06 -0.06)">
     <use xlink:href="#DejaVuSans-4f"/>
     <use xlink:href="#DejaVuSans-32" x="78.710938"/>
    </g>
   </g>
   <g id="text_79">
    <!-- P6 -->
    <g transform="translate(2033.346438 421.658625) scale(0.06 -0.06)">
     <use xlink:href="#DejaVuSans-50"/>
     <use xlink:href="#DejaVuSans-36" x="60.302734"/>
    </g>
    <!-- J2 -->
    <g transform="translate(2033.346438 428.377312) scale(0.06 -0.06)">
     <use xlink:href="#DejaVuSans-4a"/>
     <use xlink:href="#DejaVuSans-32" x="29.492188"/>
    </g>
    <!-- O3 -->
    <g transform="translate(2033.346438 435.096) scale(0.06 -0.06)">
     <use xlink:href="#DejaVuSans-4f"/>
     <use xlink:href="#DejaVuSans-33" x="78.710938"/>
    </g>
   </g>
   <g id="text_80">
    <!-- P2 -->
    <g transform="translate(1347.984289 361.178625) scale(0.06 -0.06)">
     <use xlink:href="#DejaVuSans-50"/>
     <use xlink:href="#DejaVuSans-32" x="60.302734"/>
    </g>
    <!-- J2 -->
    <g transform="translate(1347.984289 367.897312) scale(0.06 -0.06)">
     <use xlink:href="#DejaVuSans-4a"/>
     <use xlink:href="#DejaVuSans-32" x="29.492188"/>
    </g>
    <!-- O2 -->
    <g transform="translate(1347.984289 374.616) scale(0.06 -0.06)">
     <use xlink:href="#DejaVuSans-4f"/>
     <use xlink:href="#DejaVuSans-32" x="78.710938"/>
    </g>
   </g>
   <g id="text_81">
    <!-- P1 -->
    <g transform="translate(1280.937992 603.098625) scale(0.06 -0.06)">
     <use xlink:href="#DejaVuSans-50"/>
     <use xlink:href="#DejaVuSans-31" x="60.302734"/>
    </g>
    <!-- J2 -->
    <g transform="translate(1280.937992 609.817313) scale(0.06 -0.06)">
     <use xlink:href="#DejaVuSans-4a"/>
     <use xlink:href="#DejaVuSans-32" x="29.492188"/>
    </g>
    <!-- O3 -->
    <g transform="translate(1280.937992 616.536) scale(0.06 -0.06)">
     <use xlink:href="#DejaVuSans-4f"/>
     <use xlink:href="#DejaVuSans-33" x="78.710938"/>
    </g>
   </g>
   <g id="text_82">
    <!-- P8 -->
    <g transform="translate(1150.090763 482.138625) scale(0.06 -0.06)">
     <use xlink:href="#DejaVuSans-50"/>
     <use xlink:href="#DejaVuSans-38" x="60.302734"/>
    </g>
    <!-- J2 -->
    <g transform="translate(1150.090763 488.857313) scale(0.06 -0.06)">
     <use xlink:href="#DejaVuSans-4a"/>
     <use xlink:href="#DejaVuSans-32" x="29.492188"/>
    </g>
    <!-- O3 -->
    <g transform="translate(1150.090763 495.576) scale(0.06 -0.06)">
     <use xlink:href="#DejaVuSans-4f"/>
     <use xlink:href="#DejaVuSans-33" x="78.710938"/>
    </g>
   </g>
   <g id="text_83">
    <!-- P6 -->
    <g transform="translate(2102.900518 663.578625) scale(0.06 -0.06)">
     <use xlink:href="#DejaVuSans-50"/>
     <use xlink:href="#DejaVuSans-36" x="60.302734"/>
    </g>
    <!-- J3 -->
    <g transform="translate(2102.900518 670.297313) scale(0.06 -0.06)">
     <use xlink:href="#DejaVuSans-4a"/>
     <use xlink:href="#DejaVuSans-33" x="29.492188"/>
    </g>
    <!-- O4 -->
    <g transform="translate(2102.900518 677.016) scale(0.06 -0.06)">
     <use xlink:href="#DejaVuSans-4f"/>
     <use xlink:href="#DejaVuSans-34" x="78.710938"/>
    </g>
   </g>
   <g id="text_84">
    <!-- P2 -->
    <g transform="translate(1435.166603 361.178625) scale(0.06 -0.06)">
     <use xlink:href="#DejaVuSans-50"/>
     <use xlink:href="#DejaVuSans-32" x="60.302734"/>
    </g>
    <!-- J2 -->
    <g transform="translate(1435.166603 367.897312) scale(0.06 -0.06)">
     <use xlink:href="#DejaVuSans-4a"/>
     <use xlink:href="#DejaVuSans-32" x="29.492188"/>
    </g>
    <!-- O3 -->
    <g transform="translate(1435.166603 374.616) scale(0.06 -0.06)">
     <use xlink:href="#DejaVuSans-4f"/>
     <use xlink:href="#DejaVuSans-33" x="78.710938"/>
    </g>
   </g>
   <g id="text_85">
    <!-- P3 -->
    <g transform="translate(1656.736545 603.098625) scale(0.06 -0.06)">
     <use xlink:href="#DejaVuSans-50"/>
     <use xlink:href="#DejaVuSans-33" x="60.302734"/>
    </g>
    <!-- J2 -->
    <g transform="translate(1656.736545 609.817313) scale(0.06 -0.06)">
     <use xlink:href="#DejaVuSans-4a"/>
     <use xlink:href="#DejaVuSans-32" x="29.492188"/>
    </g>
    <!-- O2 -->
    <g transform="translate(1656.736545 616.536) scale(0.06 -0.06)">
     <use xlink:href="#DejaVuSans-4f"/>
     <use xlink:href="#DejaVuSans-32" x="78.710938"/>
    </g>
   </g>
   <g id="text_86">
    <!-- P8 -->
    <g transform="translate(1647.885548 421.658625) scale(0.06 -0.06)">
     <use xlink:href="#DejaVuSans-50"/>
     <use xlink:href="#DejaVuSans-38" x="60.302734"/>
    </g>
    <!-- J3 -->
    <g transform="translate(1647.885548 428.377312) scale(0.06 -0.06)">
     <use xlink:href="#DejaVuSans-4a"/>
     <use xlink:href="#DejaVuSans-33" x="29.492188"/>
    </g>
    <!-- O4 -->
    <g transform="translate(1647.885548 435.096) scale(0.06 -0.06)">
     <use xlink:href="#DejaVuSans-4f"/>
     <use xlink:href="#DejaVuSans-34" x="78.710938"/>
    </g>
   </g>
   <g id="text_87">
    <!-- P5 -->
    <g transform="translate(1436.199219 240.218625) scale(0.06 -0.06)">
     <use xlink:href="#DejaVuSans-50"/>
     <use xlink:href="#DejaVuSans-35" x="60.302734"/>
    </g>
    <!-- J1 -->
    <g transform="translate(1436.199219 246.937313) scale(0.06 -0.06)">
     <use xlink:href="#DejaVuSans-4a"/>
     <use xlink:href="#DejaVuSans-31" x="29.492188"/>
    </g>
    <!-- O3 -->
    <g transform="translate(1436.199219 253.656) scale(0.06 -0.06)">
     <use xlink:href="#DejaVuSans-4f"/>
     <use xlink:href="#DejaVuSans-33" x="78.710938"/>
    </g>
   </g>
   <g id="text_88">
    <!-- P4 -->
    <g transform="translate(1819.226086 663.578625) scale(0.06 -0.06)">
     <use xlink:href="#DejaVuSans-50"/>
     <use xlink:href="#DejaVuSans-34" x="60.302734"/>
    </g>
    <!-- J1 -->
    <g transform="translate(1819.226086 670.297313) scale(0.06 -0.06)">
     <use xlink:href="#DejaVuSans-4a"/>
     <use xlink:href="#DejaVuSans-31" x="29.492188"/>
    </g>
    <!-- O3 -->
    <g transform="translate(1819.226086 677.016) scale(0.06 -0.06)">
     <use xlink:href="#DejaVuSans-4f"/>
     <use xlink:href="#DejaVuSans-33" x="78.710938"/>
    </g>
   </g>
   <g id="text_89">
    <!-- P7 -->
    <g transform="translate(710.270003 72.216) scale(0.06 -0.06)">
     <use xlink:href="#DejaVuSans-50"/>
     <use xlink:href="#DejaVuSans-37" x="60.302734"/>
    </g>
   </g>
   <g id="text_90">
    <!-- P2 -->
    <g transform="translate(1412.817837 603.098625) scale(0.06 -0.06)">
     <use xlink:href="#DejaVuSans-50"/>
     <use xlink:href="#DejaVuSans-32" x="60.302734"/>
    </g>
    <!-- J1 -->
    <g transform="translate(1412.817837 609.817313) scale(0.06 -0.06)">
     <use xlink:href="#DejaVuSans-4a"/>
     <use xlink:href="#DejaVuSans-31" x="29.492188"/>
    </g>
    <!-- O1 -->
    <g transform="translate(1412.817837 616.536) scale(0.06 -0.06)">
     <use xlink:href="#DejaVuSans-4f"/>
     <use xlink:href="#DejaVuSans-31" x="78.710938"/>
    </g>
   </g>
   <g id="text_91">
    <!-- P4 -->
    <g transform="translate(1969.176715 663.578625) scale(0.06 -0.06)">
     <use xlink:href="#DejaVuSans-50"/>
     <use xlink:href="#DejaVuSans-34" x="60.302734"/>
    </g>
    <!-- J1 -->
    <g transform="translate(1969.176715 670.297313) scale(0.06 -0.06)">
     <use xlink:href="#DejaVuSans-4a"/>
     <use xlink:href="#DejaVuSans-31" x="29.492188"/>
    </g>
    <!-- O4 -->
    <g transform="translate(1969.176715 677.016) scale(0.06 -0.06)">
     <use xlink:href="#DejaVuSans-4f"/>
     <use xlink:href="#DejaVuSans-34" x="78.710938"/>
    </g>
   </g>
   <g id="text_92">
    <!-- P3 -->
    <g transform="translate(1739.640877 240.218625) scale(0.06 -0.06)">
     <use xlink:href="#DejaVuSans-50"/>
     <use xlink:href="#DejaVuSans-33" x="60.302734"/>
    </g>
    <!-- J1 -->
    <g transform="translate(1739.640877 246.937313) scale(0.06 -0.06)">
     <use xlink:href="#DejaVuSans-4a"/>
     <use xlink:href="#DejaVuSans-31" x="29.492188"/>
    </g>
    <!-- O2 -->
    <g transform="translate(1739.640877 253.656) scale(0.06 -0.06)">
     <use xlink:href="#DejaVuSans-4f"/>
     <use xlink:href="#DejaVuSans-32" x="78.710938"/>
    </g>
   </g>
   <g id="text_93">
    <!-- P3 -->
    <g transform="translate(1255.270103 361.178625) scale(0.06 -0.06)">
     <use xlink:href="#DejaVuSans-50"/>
     <use xlink:href="#DejaVuSans-33" x="60.302734"/>
    </g>
    <!-- J3 -->
    <g transform="translate(1255.270103 367.897312) scale(0.06 -0.06)">
     <use xlink:href="#DejaVuSans-4a"/>
     <use xlink:href="#DejaVuSans-33" x="29.492188"/>
    </g>
    <!-- O2 -->
    <g transform="translate(1255.270103 374.616) scale(0.06 -0.06)">
     <use xlink:href="#DejaVuSans-4f"/>
     <use xlink:href="#DejaVuSans-32" x="78.710938"/>
    </g>
   </g>
   <g id="text_94">
    <!-- P2 -->
    <g transform="translate(1561.809609 482.138625) scale(0.06 -0.06)">
     <use xlink:href="#DejaVuSans-50"/>
     <use xlink:href="#DejaVuSans-32" x="60.302734"/>
    </g>
    <!-- J1 -->
    <g transform="translate(1561.809609 488.857313) scale(0.06 -0.06)">
     <use xlink:href="#DejaVuSans-4a"/>
     <use xlink:href="#DejaVuSans-31" x="29.492188"/>
    </g>
    <!-- O2 -->
    <g transform="translate(1561.809609 495.576) scale(0.06 -0.06)">
     <use xlink:href="#DejaVuSans-4f"/>
     <use xlink:href="#DejaVuSans-32" x="78.710938"/>
    </g>
   </g>
   <g id="text_95">
    <!-- P3 -->
    <g transform="translate(1777.847678 482.138625) scale(0.06 -0.06)">
     <use xlink:href="#DejaVuSans-50"/>
     <use xlink:href="#DejaVuSans-33" x="60.302734"/>
    </g>
    <!-- J2 -->
    <g transform="translate(1777.847678 488.857313) scale(0.06 -0.06)">
     <use xlink:href="#DejaVuSans-4a"/>
     <use xlink:href="#DejaVuSans-32" x="29.492188"/>
    </g>
    <!-- O3 -->
    <g transform="translate(1777.847678 495.576) scale(0.06 -0.06)">
     <use xlink:href="#DejaVuSans-4f"/>
     <use xlink:href="#DejaVuSans-33" x="78.710938"/>
    </g>
   </g>
   <g id="text_96">
    <!-- P1 -->
    <g transform="translate(1272.234512 482.138625) scale(0.06 -0.06)">
     <use xlink:href="#DejaVuSans-50"/>
     <use xlink:href="#DejaVuSans-31" x="60.302734"/>
    </g>
    <!-- J3 -->
    <g transform="translate(1272.234512 488.857313) scale(0.06 -0.06)">
     <use xlink:href="#DejaVuSans-4a"/>
     <use xlink:href="#DejaVuSans-33" x="29.492188"/>
    </g>
    <!-- O4 -->
    <g transform="translate(1272.234512 495.576) scale(0.06 -0.06)">
     <use xlink:href="#DejaVuSans-4f"/>
     <use xlink:href="#DejaVuSans-34" x="78.710938"/>
    </g>
   </g>
   <g id="text_97">
    <!-- P5 -->
    <g transform="translate(1442.984983 300.698625) scale(0.06 -0.06)">
     <use xlink:href="#DejaVuSans-50"/>
     <use xlink:href="#DejaVuSans-35" x="60.302734"/>
    </g>
    <!-- J2 -->
    <g transform="translate(1442.984983 307.417313) scale(0.06 -0.06)">
     <use xlink:href="#DejaVuSans-4a"/>
     <use xlink:href="#DejaVuSans-32" x="29.492188"/>
    </g>
    <!-- O3 -->
    <g transform="translate(1442.984983 314.136) scale(0.06 -0.06)">
     <use xlink:href="#DejaVuSans-4f"/>
     <use xlink:href="#DejaVuSans-33" x="78.710938"/>
    </g>
   </g>
   <g id="text_98">
    <!-- P3 -->
    <g transform="translate(1827.855807 603.098625) scale(0.06 -0.06)">
     <use xlink:href="#DejaVuSans-50"/>
     <use xlink:href="#DejaVuSans-33" x="60.302734"/>
    </g>
    <!-- J1 -->
    <g transform="translate(1827.855807 609.817313) scale(0.06 -0.06)">
     <use xlink:href="#DejaVuSans-4a"/>
     <use xlink:href="#DejaVuSans-31" x="29.492188"/>
    </g>
    <!-- O3 -->
    <g transform="translate(1827.855807 616.536) scale(0.06 -0.06)">
     <use xlink:href="#DejaVuSans-4f"/>
     <use xlink:href="#DejaVuSans-33" x="78.710938"/>
    </g>
   </g>
   <g id="text_99">
    <!-- P6 -->
    <g transform="translate(1648.623131 300.698625) scale(0.06 -0.06)">
     <use xlink:href="#DejaVuSans-50"/>
     <use xlink:href="#DejaVuSans-36" x="60.302734"/>
    </g>
    <!-- J1 -->
    <g transform="translate(1648.623131 307.417313) scale(0.06 -0.06)">
     <use xlink:href="#DejaVuSans-4a"/>
     <use xlink:href="#DejaVuSans-31" x="29.492188"/>
    </g>
    <!-- O2 -->
    <g transform="translate(1648.623131 314.136) scale(0.06 -0.06)">
     <use xlink:href="#DejaVuSans-4f"/>
     <use xlink:href="#DejaVuSans-32" x="78.710938"/>
    </g>
   </g>
   <g id="text_100">
    <!-- P2 -->
    <g transform="translate(1978.470261 361.178625) scale(0.06 -0.06)">
     <use xlink:href="#DejaVuSans-50"/>
     <use xlink:href="#DejaVuSans-32" x="60.302734"/>
    </g>
    <!-- J3 -->
    <g transform="translate(1978.470261 367.897312) scale(0.06 -0.06)">
     <use xlink:href="#DejaVuSans-4a"/>
     <use xlink:href="#DejaVuSans-33" x="29.492188"/>
    </g>
    <!-- O4 -->
    <g transform="translate(1978.470261 374.616) scale(0.06 -0.06)">
     <use xlink:href="#DejaVuSans-4f"/>
     <use xlink:href="#DejaVuSans-34" x="78.710938"/>
    </g>
   </g>
   <g id="text_101">
    <!-- P1 -->
    <g transform="translate(1421.3738 193.176) scale(0.06 -0.06)">
     <use xlink:href="#DejaVuSans-50"/>
     <use xlink:href="#DejaVuSans-31" x="60.302734"/>
    </g>
   </g>
   <g id="text_102">
    <!-- P2 -->
    <g transform="translate(2068.676666 132.696) scale(0.06 -0.06)">
     <use xlink:href="#DejaVuSans-50"/>
     <use xlink:href="#DejaVuSans-32" x="60.302734"/>
    </g>
   </g>
   <g id="text_103">
    <!-- P3 -->
    <g transform="translate(2401.842919 132.696) scale(0.06 -0.06)">
     <use xlink:href="#DejaVuSans-50"/>
     <use xlink:href="#DejaVuSans-33" x="60.302734"/>
    </g>
   </g>
   <g id="text_104">
    <!-- P6 -->
    <g transform="translate(2200.335236 663.578625) scale(0.06 -0.06)">
     <use xlink:href="#DejaVuSans-50"/>
     <use xlink:href="#DejaVuSans-36" x="60.302734"/>
    </g>
    <!-- J1 -->
    <g transform="translate(2200.335236 670.297313) scale(0.06 -0.06)">
     <use xlink:href="#DejaVuSans-4a"/>
     <use xlink:href="#DejaVuSans-31" x="29.492188"/>
    </g>
    <!-- O3 -->
    <g transform="translate(2200.335236 677.016) scale(0.06 -0.06)">
     <use xlink:href="#DejaVuSans-4f"/>
     <use xlink:href="#DejaVuSans-33" x="78.710938"/>
    </g>
   </g>
   <g id="text_105">
    <!-- P5 -->
    <g transform="translate(1971.905772 603.098625) scale(0.06 -0.06)">
     <use xlink:href="#DejaVuSans-50"/>
     <use xlink:href="#DejaVuSans-35" x="60.302734"/>
    </g>
    <!-- J1 -->
    <g transform="translate(1971.905772 609.817313) scale(0.06 -0.06)">
     <use xlink:href="#DejaVuSans-4a"/>
     <use xlink:href="#DejaVuSans-31" x="29.492188"/>
    </g>
    <!-- O4 -->
    <g transform="translate(1971.905772 616.536) scale(0.06 -0.06)">
     <use xlink:href="#DejaVuSans-4f"/>
     <use xlink:href="#DejaVuSans-34" x="78.710938"/>
    </g>
   </g>
   <g id="text_106">
    <!-- P6 -->
    <g transform="translate(2300.572769 603.098625) scale(0.06 -0.06)">
     <use xlink:href="#DejaVuSans-50"/>
     <use xlink:href="#DejaVuSans-36" x="60.302734"/>
    </g>
    <!-- J1 -->
    <g transform="translate(2300.572769 609.817313) scale(0.06 -0.06)">
     <use xlink:href="#DejaVuSans-4a"/>
     <use xlink:href="#DejaVuSans-31" x="29.492188"/>
    </g>
    <!-- O4 -->
    <g transform="translate(2300.572769 616.536) scale(0.06 -0.06)">
     <use xlink:href="#DejaVuSans-4f"/>
     <use xlink:href="#DejaVuSans-34" x="78.710938"/>
    </g>
   </g>
   <g id="text_107">
    <!-- P5 -->
    <g transform="translate(2129.527265 193.176) scale(0.06 -0.06)">
     <use xlink:href="#DejaVuSans-50"/>
     <use xlink:href="#DejaVuSans-35" x="60.302734"/>
    </g>
   </g>
   <g id="text_108">
    <!-- P4 -->
    <g transform="translate(1795.328395 300.698625) scale(0.06 -0.06)">
     <use xlink:href="#DejaVuSans-50"/>
     <use xlink:href="#DejaVuSans-34" x="60.302734"/>
    </g>
    <!-- J3 -->
    <g transform="translate(1795.328395 307.417313) scale(0.06 -0.06)">
     <use xlink:href="#DejaVuSans-4a"/>
     <use xlink:href="#DejaVuSans-33" x="29.492188"/>
    </g>
    <!-- O3 -->
    <g transform="translate(1795.328395 314.136) scale(0.06 -0.06)">
     <use xlink:href="#DejaVuSans-4f"/>
     <use xlink:href="#DejaVuSans-33" x="78.710938"/>
    </g>
   </g>
   <g id="text_109">
    <!-- P4 -->
    <g transform="translate(1893.79573 542.618625) scale(0.06 -0.06)">
     <use xlink:href="#DejaVuSans-50"/>
     <use xlink:href="#DejaVuSans-34" x="60.302734"/>
    </g>
    <!-- J3 -->
    <g transform="translate(1893.79573 549.337313) scale(0.06 -0.06)">
     <use xlink:href="#DejaVuSans-4a"/>
     <use xlink:href="#DejaVuSans-33" x="29.492188"/>
    </g>
    <!-- O4 -->
    <g transform="translate(1893.79573 556.056) scale(0.06 -0.06)">
     <use xlink:href="#DejaVuSans-4f"/>
     <use xlink:href="#DejaVuSans-34" x="78.710938"/>
    </g>
   </g>
   <g id="text_110">
    <!-- P6 -->
    <g transform="translate(2430.092349 72.216) scale(0.06 -0.06)">
     <use xlink:href="#DejaVuSans-50"/>
     <use xlink:href="#DejaVuSans-36" x="60.302734"/>
    </g>
   </g>
   <g id="text_111">
    <!-- P4 -->
    <g transform="translate(2022.651485 482.138625) scale(0.06 -0.06)">
     <use xlink:href="#DejaVuSans-50"/>
     <use xlink:href="#DejaVuSans-34" x="60.302734"/>
    </g>
    <!-- J3 -->
    <g transform="translate(2022.651485 488.857313) scale(0.06 -0.06)">
     <use xlink:href="#DejaVuSans-4a"/>
     <use xlink:href="#DejaVuSans-33" x="29.492188"/>
    </g>
    <!-- O5 -->
    <g transform="translate(2022.651485 495.576) scale(0.06 -0.06)">
     <use xlink:href="#DejaVuSans-4f"/>
     <use xlink:href="#DejaVuSans-35" x="78.710938"/>
    </g>
   </g>
   <g id="text_112">
    <!-- P8 -->
    <g transform="translate(2498.171263 193.176) scale(0.06 -0.06)">
     <use xlink:href="#DejaVuSans-50"/>
     <use xlink:href="#DejaVuSans-38" x="60.302734"/>
    </g>
   </g>
   <g id="text_113">
    <!-- P4 -->
    <g transform="translate(2775.207448 132.696) scale(0.06 -0.06)">
     <use xlink:href="#DejaVuSans-50"/>
     <use xlink:href="#DejaVuSans-34" x="60.302734"/>
    </g>
   </g>
  </g>
 </g>
 <defs>
  <clipPath id="p9e3e0d06c6">
   <rect x="55.075" y="7.2" width="3348" height="831.6"/>
  </clipPath>
 </defs>
</svg>
